<svg xmlns="http://www.w3.org/2000/svg" viewBox="0 0 40 40"><title>apps-grid</title><g id="Layer_2" data-name="Layer 2"><path d="M11.31,13.11H8.11a1.8,1.8,0,0,1-1.8-1.8V8.11a1.8,1.8,0,0,1,1.8-1.8h3.21a1.8,1.8,0,0,1,1.8,1.8v3.21A1.8,1.8,0,0,1,11.31,13.11Zm0-5H8.11v3.21h3.21Zm10.29,5H18.39a1.8,1.8,0,0,1-1.8-1.8V8.11a1.8,1.8,0,0,1,1.8-1.8H21.6a1.8,1.8,0,0,1,1.8,1.8v3.21A1.8,1.8,0,0,1,21.6,13.11Zm0-5H18.39v3.21H21.6Zm10.29,5H28.68a1.8,1.8,0,0,1-1.8-1.8V8.11a1.8,1.8,0,0,1,1.8-1.8h3.21a1.8,1.8,0,0,1,1.8,1.8v3.21A1.8,1.8,0,0,1,31.89,13.11Zm0-5H28.68v3.21h3.21Zm0,15.3H28.68a1.8,1.8,0,0,1-1.8-1.8V18.4a1.8,1.8,0,0,1,1.8-1.8h3.21a1.8,1.8,0,0,1,1.8,1.8V21.6A1.8,1.8,0,0,1,31.89,23.4Zm0-5H28.68V21.6h3.21Zm0,15.3H28.68a1.8,1.8,0,0,1-1.8-1.8V28.68a1.8,1.8,0,0,1,1.8-1.8h3.21a1.8,1.8,0,0,1,1.8,1.8v3.21A1.8,1.8,0,0,1,31.89,33.69Zm0-5H28.68v3.21h3.21Zm-20.58,5H8.11a1.8,1.8,0,0,1-1.8-1.8V28.68a1.8,1.8,0,0,1,1.8-1.8h3.21a1.8,1.8,0,0,1,1.8,1.8v3.21A1.8,1.8,0,0,1,11.31,33.69Zm0-5H8.11v3.21h3.21Zm10.29,5H18.39a1.8,1.8,0,0,1-1.8-1.8V28.68a1.8,1.8,0,0,1,1.8-1.8H21.6a1.8,1.8,0,0,1,1.8,1.8v3.21A1.8,1.8,0,0,1,21.6,33.69Zm0-1.8h0m0-3.21H18.39v3.21H21.6ZM11.31,23.34H8.11a1.8,1.8,0,0,1-1.8-1.8V18.34a1.8,1.8,0,0,1,1.8-1.8h3.21a1.8,1.8,0,0,1,1.8,1.8v3.21A1.8,1.8,0,0,1,11.31,23.34Zm0-5H8.11v3.21h3.21Zm10.29,5H18.39a1.8,1.8,0,0,1-1.8-1.8V18.34a1.8,1.8,0,0,1,1.8-1.8H21.6a1.8,1.8,0,0,1,1.8,1.8v3.21A1.8,1.8,0,0,1,21.6,23.34Zm0-5H18.39v3.21H21.6Z"/></g></svg>