<svg xmlns="http://www.w3.org/2000/svg" viewBox="0 0 40 40"><title>arrow-up-off</title><g id="Layer_2" data-name="Layer 2"><path d="M5.1,5.48A1.25,1.25,0,0,0,3.33,7.25l3.22,3.22a16.47,16.47,0,0,0,23,23l3.22,3.22a1.25,1.25,0,0,0,1.77-1.77ZM6,20a13.89,13.89,0,0,1,2.35-7.74l4.36,4.36-1.91,1.91a1.25,1.25,0,1,0,1.77,1.77l1.91-1.91L19.1,23V34A14,14,0,0,1,6,20ZM21.6,33.91V25.52l6.13,6.13A13.89,13.89,0,0,1,21.6,33.91ZM12.47,8.2,10.67,6.39A16.5,16.5,0,0,1,33.61,29.33L31.8,27.53A14,14,0,0,0,12.47,8.2Zm6.63,6.63V13.75l-.54.54L16.8,12.52l2.68-2.68a1.25,1.25,0,0,1,1.77,0l8.68,8.68a1.25,1.25,0,1,1-1.77,1.77L21.6,13.75v3.58Z"/></g></svg>