<svg xmlns="http://www.w3.org/2000/svg" viewBox="0 0 40 40"><title>bee</title><g id="Layer_2" data-name="Layer 2"><path d="M35.1,21.34a17.31,17.31,0,0,0-6.68-7.49,19.59,19.59,0,0,0-2.61-1.45v-.06A5.9,5.9,0,0,0,22.32,7l2-2a1.15,1.15,0,0,0-1.63-1.63L20,6.06,17.39,3.44a1.15,1.15,0,1,0-1.63,1.63L17.68,7a5.8,5.8,0,0,0-3.54,5.34v.06a19.59,19.59,0,0,0-2.61,1.45A17.53,17.53,0,0,0,4.9,21.34a5.86,5.86,0,0,0,5.34,8.07,6.61,6.61,0,0,0,2.61-.58,8.06,8.06,0,0,0,6,3.89V35.8a1.16,1.16,0,1,0,2.32,0V32.72a8.5,8.5,0,0,0,6-3.89,5.83,5.83,0,0,0,4.82.12,5.83,5.83,0,0,0,3.14-7.61ZM20,8.85a3.44,3.44,0,0,1,3.37,2.61,8.2,8.2,0,0,0-2.44-.41H19.07a7.92,7.92,0,0,0-2.44.41A3.44,3.44,0,0,1,20,8.85Zm0,21.67a6,6,0,0,1-3.83-1.39h7.67A6,6,0,0,1,20,30.51Zm4.36-4.71c.17.35.35.7.52,1H15.12a3,3,0,0,0,.52-1l.52-1.28h7.61Zm-7.2-3.6.93-2.32h3.83l.93,2.32ZM19,17.62l1-2.38,1,2.38ZM10.3,27.09A3.45,3.45,0,0,1,9,26.8,3.5,3.5,0,0,1,7,22.21c1.57-3.72,5.52-6.68,8.77-8,.06,0,.12-.06.17-.06a11.35,11.35,0,0,1,2.32-.7l-2,4.88h0L14.36,22.9h0l-.81,2a3.46,3.46,0,0,1-.93,1.28.06.06,0,0,0-.06.06,3.26,3.26,0,0,1-2.27.87ZM31,26.86a3.45,3.45,0,0,1-1.34.29,3.16,3.16,0,0,1-2.27-.87h-.06A3.3,3.3,0,0,1,26.45,25l-.81-2.09h0l-1.86-4.59h0l-2-4.88a11.35,11.35,0,0,1,2.32.7.2.2,0,0,1,.12.06c3.2,1.39,7.2,4.3,8.77,8A3.57,3.57,0,0,1,31,26.86Z"/></g></svg>