<svg xmlns="http://www.w3.org/2000/svg" viewBox="0 0 40 40"><title>collapse</title><g id="Layer_3" data-name="Layer 3"><path d="M36.87,16.1a1.15,1.15,0,0,1-1,1.26L22.5,18.76h-.12a1.15,1.15,0,0,1-1.14-1.27l1.4-13.35a1.15,1.15,0,1,1,2.29.24l-1,10L34.21,4A1.25,1.25,0,1,1,36,5.79L25.65,16.12l10-1A1.15,1.15,0,0,1,36.87,16.1ZM17.31,21.4,4.22,23.05a1.15,1.15,0,0,0,.29,2.28l9.6-1.21L4,34.21A1.25,1.25,0,1,0,5.79,36L15.88,25.89l-1.21,9.6a1.15,1.15,0,0,0,1,1.28h.14a1.15,1.15,0,0,0,1.14-1L18.6,22.69a1.15,1.15,0,0,0-1.28-1.29Z"/></g></svg>