<svg xmlns="http://www.w3.org/2000/svg" viewBox="0 0 40 40"><title>comment</title><g id="Layer_2" data-name="Layer 2"><path d="M19.64,37.72h0a1.43,1.43,0,0,1-1.29-.87l-3.46-7.39H8.49a4.3,4.3,0,0,1-4.29-4.29V9.53A4.3,4.3,0,0,1,8.49,5.23h23a4.3,4.3,0,0,1,4.29,4.29V25.16a4.3,4.3,0,0,1-4.29,4.29H24.7l-3.76,7.43A1.43,1.43,0,0,1,19.64,37.72ZM8.49,7.73A1.79,1.79,0,0,0,6.69,9.53V25.16A1.79,1.79,0,0,0,8.49,27h8l3.22,6.88L23.16,27h8.35a1.79,1.79,0,0,0,1.79-1.79V9.53a1.79,1.79,0,0,0-1.79-1.79Z"/><path d="M28.05,14.89H11.95a1.25,1.25,0,0,1,0-2.5H28.05a1.25,1.25,0,0,1,0,2.5Z"/><path d="M28.05,21.63H11.95a1.25,1.25,0,0,1,0-2.5H28.05a1.25,1.25,0,0,1,0,2.5Z"/></g></svg>