<svg width="96" height="96" viewBox="0 0 96 96" fill="none" xmlns="http://www.w3.org/2000/svg">
<path fill-rule="evenodd" clip-rule="evenodd" d="M43.4062 39.8936C44.3876 39.8936 45.2451 40.2372 45.9375 40.917L46.0781 41.0508C46.7632 41.7326 47.1064 42.5958 47.1064 43.5938C47.1064 43.9431 47.0217 44.2987 46.8848 44.6523C46.8092 44.9402 46.7021 45.2237 46.5635 45.501L46.5117 45.6035L46.4297 45.6855L38.3984 53.627L42.2812 57.5098L51.4189 48.3721V48.9316C51.8566 48.7248 52.3123 48.6123 52.7812 48.6123C53.8331 48.6123 54.7347 48.9939 55.4326 49.7549L55.5596 49.8877C56.1723 50.5607 56.4814 51.381 56.4814 52.3125C56.4814 52.8538 56.3642 53.3683 56.126 53.8447C55.9721 54.2123 55.7561 54.5666 55.4844 54.9062L55.46 54.9365L47.4902 62.9062L50.7451 66.1611C51.1284 66.5445 51.3989 67.003 51.5586 67.5244C51.7842 67.9994 51.8877 68.5281 51.8877 69.0938C51.8877 69.6263 51.7739 70.1494 51.5586 70.6592C51.3939 71.1359 51.117 71.5607 50.7451 71.9326L47.9326 74.7451L47.9316 74.7441C46.3767 76.3615 44.5657 77.6873 42.501 78.7197L42.4922 78.7236C40.4795 79.6975 38.3083 80.312 35.9834 80.5703L35.9453 80.5752H34.2188C32.1524 80.5752 30.176 80.2845 28.293 79.7002L28.2783 79.6953L28.2646 79.6904C26.649 79.1134 25.1587 78.3539 23.7949 77.4131L12.5332 88.6748C12.2214 89.1185 11.8114 89.4808 11.3164 89.7637L11.2812 89.7842L11.2441 89.7998C10.7152 90.0264 10.1523 90.1377 9.5625 90.1377C8.57055 90.1377 7.68611 89.788 6.9375 89.1143L6.91016 89.0898L6.88574 89.0625C6.212 88.3139 5.8623 87.4295 5.8623 86.4375C5.8623 85.8477 5.97358 85.2848 6.2002 84.7559L6.21582 84.7188L6.23633 84.6836C6.51895 84.1891 6.88012 83.7785 7.32324 83.4668L18.5957 72.1045C17.6519 70.6886 16.8889 69.1699 16.3096 67.5479L16.3047 67.5342L16.2998 67.5195C15.7155 65.6365 15.4248 63.6601 15.4248 61.5938V60.8438C15.4248 60.4936 15.4587 60.1444 15.5264 59.7969C15.7868 57.4841 16.4007 55.3238 17.3701 53.3203L17.374 53.3115L17.3779 53.3037C18.4145 51.2954 19.7457 49.5414 21.3701 48.0469L24.2549 45.2549C24.6266 44.8831 25.0508 44.6052 25.5273 44.4404C26.0373 44.225 26.5611 44.1123 27.0938 44.1123C27.6586 44.1123 28.1867 44.2155 28.6611 44.4404C29.1834 44.6001 29.6425 44.8711 30.0264 45.2549L33.2812 48.5098L41.2588 40.5322L41.2988 40.5029C41.6079 40.2711 41.9413 40.0982 42.2988 40.0088L42.3154 40.0039L42.3311 40.001C42.6879 39.9296 43.0467 39.8936 43.4062 39.8936ZM26.541 53.29L26.542 53.291C25.5427 54.2316 24.7161 55.352 24.0635 56.6572L24.0576 56.6689C23.4134 57.8988 23.0012 59.2163 22.8223 60.626C22.8167 60.8398 22.7842 61.0637 22.7314 61.2939V61.7812C22.7314 64.9052 23.8431 67.5716 26.0889 69.8174C28.3319 72.0604 31.0284 73.1748 34.2188 73.1748H35.3896C36.7934 72.9948 38.1057 72.5842 39.3311 71.9424L39.3428 71.9365C40.648 71.2839 41.7684 70.4573 42.709 69.458L42.7275 69.4375L42.748 69.4199L43.2354 68.9756L27.0703 52.8105L26.541 53.29Z" fill="black"/>
<path fill-rule="evenodd" clip-rule="evenodd" d="M86.0625 6.2373C86.5717 6.2373 87.0501 6.34231 87.4736 6.57715C87.8463 6.70839 88.1933 6.89139 88.5127 7.125L88.6562 7.23438L88.7168 7.2832L88.7656 7.34375C89.0519 7.70162 89.2708 8.09665 89.4219 8.52539C89.6572 8.94922 89.7627 9.42787 89.7627 9.9375C89.7627 10.4174 89.644 10.8831 89.4277 11.3301C89.2721 11.7766 89.0381 12.1709 88.7139 12.4951L88.7119 12.4971L77.2295 23.8887C78.2256 25.3205 78.9869 26.8825 79.5117 28.5732C80.1592 30.3966 80.4814 32.3424 80.4814 34.4062V35.25C80.4814 35.5493 80.444 35.8691 80.3779 36.2061C80.1162 38.5245 79.4701 40.69 78.4346 42.6963C77.4026 44.6958 76.0786 46.4424 74.4639 47.9326L71.8389 50.5576C71.4587 50.9378 71.0071 51.2362 70.4941 51.4561C70.0144 51.6879 69.4793 51.7939 68.9062 51.7939C68.366 51.7939 67.8351 51.6775 67.3184 51.4561L67.2988 51.4482L67.2803 51.4385C66.8346 51.2156 66.4301 50.9203 66.0674 50.5576L45.3486 29.8389C44.9859 29.4762 44.6907 29.0717 44.4678 28.626L44.458 28.6074L44.4502 28.5879C44.2236 28.059 44.1123 27.496 44.1123 26.9062C44.1123 26.3649 44.2295 25.8505 44.4678 25.374C44.686 24.8768 44.9779 24.4381 45.3486 24.0674L47.9736 21.4424C49.4652 19.8265 51.2145 18.5321 53.2178 17.5615L53.6084 17.3711C55.558 16.4492 57.6208 15.8663 59.793 15.6211C60.1302 15.5549 60.4505 15.5186 60.75 15.5186H61.5938C63.6572 15.5186 65.6028 15.8401 67.4258 16.4873C69.1109 17.0103 70.669 17.7448 72.0986 18.6875L83.4092 7.28809L83.4375 7.25977L83.4688 7.23438C83.8324 6.94348 84.2342 6.72161 84.6709 6.57031C85.1174 6.35454 85.5831 6.2373 86.0625 6.2373ZM61.5938 22.9189C61.4856 22.9189 61.3728 22.9366 61.2529 22.9766L61.1445 23.0127H60.5166C59.0472 23.193 57.7042 23.6047 56.4814 24.2451C55.2369 24.897 54.143 25.7247 53.1973 26.7295L53.1758 26.7529L53.1523 26.7734L52.8643 27.0283L69.0918 43.167L69.4424 42.8174C70.39 41.8698 71.1924 40.7713 71.8486 39.5186C72.3989 38.4153 72.7766 37.2718 72.9873 36.0869V34.8555L73.0234 34.7471C73.0634 34.6272 73.0811 34.5144 73.0811 34.4062C73.0811 31.2159 71.9666 28.5194 69.7236 26.2764C67.4806 24.0334 64.7841 22.9189 61.5938 22.9189Z" fill="black"/>
</svg>
