<svg xmlns="http://www.w3.org/2000/svg" viewBox="0 0 40 40"><title>connection-on</title><g id="Layer_2" data-name="Layer 2"><path d="M36.75,3.25a1.25,1.25,0,0,0-1.77,0L26.2,12a7.56,7.56,0,0,0-5.07-1.38A7.88,7.88,0,0,0,16.31,13l-1.08,1.08a1.46,1.46,0,0,0-.17.21,1.32,1.32,0,0,0-.11.07l-1.16,1.16a7.89,7.89,0,0,0-2.35,4.82,7.56,7.56,0,0,0,1.38,5.07L3.25,35A1.25,1.25,0,1,0,5,36.75l9.57-9.57A7.56,7.56,0,0,0,19,28.59q.34,0,.69,0a7.88,7.88,0,0,0,4.82-2.35L25.64,25a1.35,1.35,0,0,0,.1-.16,1.4,1.4,0,0,0,.17-.11L27,23.68a7.88,7.88,0,0,0,2.35-4.82A7.56,7.56,0,0,0,28,13.8L36.75,5A1.25,1.25,0,0,0,36.75,3.25Zm-14,21.19a5.39,5.39,0,0,1-3.27,1.63,5.06,5.06,0,0,1-5.51-5.51,5.39,5.39,0,0,1,1.63-3.27l.42-.41L23.12,24Zm4.16-5.8a5.39,5.39,0,0,1-1.63,3.27l-.34.34-6.62-6.62-.53-.53.34-.34a5.38,5.38,0,0,1,3.27-1.63,5.06,5.06,0,0,1,5.51,5.51Z"/></g></svg>