<svg width="96" height="96" viewBox="0 0 96 96" fill="none" xmlns="http://www.w3.org/2000/svg">
<path fill-rule="evenodd" clip-rule="evenodd" d="M86.0625 6.2373C86.5717 6.2373 87.0501 6.34231 87.4736 6.57715C87.8463 6.70839 88.1933 6.89139 88.5127 7.125L88.6562 7.23438L88.7168 7.2832L88.7656 7.34375C89.0519 7.70162 89.2708 8.09665 89.4219 8.52539C89.6572 8.94922 89.7627 9.42787 89.7627 9.9375C89.7627 10.4174 89.644 10.8831 89.4277 11.3301C89.2721 11.7766 89.0381 12.1709 88.7139 12.4951L68.0371 33.1709C68.9732 34.5425 69.7009 36.0643 70.2217 37.7334L70.3408 38.0781C70.9153 39.8093 71.2002 41.6493 71.2002 43.5938V44.5312C71.2002 44.8306 71.1628 45.1504 71.0967 45.4873C70.835 47.8058 70.1888 49.9712 69.1533 51.9775C68.1805 53.9831 66.8836 55.7628 65.2666 57.3154L62.6426 59.8477L62.2588 60.2314H62.1895C62.1397 60.3269 62.0772 60.4054 62.0176 60.4688L62.0186 60.4697L59.2998 63.4697L59.293 63.4775L59.2871 63.4844C57.7919 65.0446 56.0083 66.3386 53.9453 67.3711C51.9262 68.4132 49.7176 69.0626 47.3252 69.3213L47.2881 69.3252H45.5625C43.4961 69.3252 41.5198 69.0345 39.6367 68.4502L39.626 68.4463L39.6152 68.4434C37.9428 67.8667 36.4194 67.1056 35.0459 66.1621L12.5332 88.6748C12.2214 89.1185 11.8114 89.4808 11.3164 89.7637L11.2812 89.7842L11.2441 89.7998C10.7152 90.0264 10.1523 90.1377 9.5625 90.1377C8.57055 90.1377 7.68611 89.788 6.9375 89.1143L6.91016 89.0898L6.88574 89.0625C6.212 88.3139 5.8623 87.4295 5.8623 86.4375C5.8623 85.8477 5.97358 85.2848 6.2002 84.7559L6.21582 84.7188L6.23633 84.6836C6.51919 84.1887 6.88059 83.7776 7.32422 83.4658L29.9268 60.9561C28.9309 59.5389 28.1403 58.0177 27.5596 56.3916L27.5547 56.3779L27.5498 56.3633C26.9655 54.4802 26.6748 52.5039 26.6748 50.4375V49.5244L26.6885 49.4561C26.7442 49.1773 26.7686 48.9433 26.7686 48.75V48.7109L26.7734 48.6729C27.0318 46.348 27.6462 44.1768 28.6201 42.1641L28.624 42.1553C29.6586 40.0862 30.9874 38.271 32.6094 36.7139L35.3057 34.1074C35.3379 34.0488 35.3793 33.9898 35.4346 33.9346C35.5112 33.858 35.594 33.8061 35.6748 33.7715C35.6841 33.7653 35.6934 33.7589 35.7031 33.7529C35.7546 33.6765 35.8132 33.6028 35.8799 33.5361C35.8711 33.5449 35.8744 33.5438 35.8867 33.5254C35.8986 33.5076 35.9155 33.4786 35.9365 33.4365L35.9902 33.3291L38.6924 30.7227C40.1825 29.1082 41.9295 27.7848 43.9287 26.7529L43.9365 26.749C46.0113 25.7116 48.2168 25.0637 50.5479 24.8047L50.5859 24.7998H51.4072C51.7256 24.7399 52.0283 24.7061 52.3125 24.7061C54.3759 24.7061 56.3216 25.0276 58.1445 25.6748C59.8305 26.198 61.389 26.9335 62.8193 27.877L83.4385 7.25879L83.4688 7.23438C83.8324 6.94348 84.2342 6.72161 84.6709 6.57031C85.1174 6.35454 85.5831 6.2373 86.0625 6.2373ZM37.8936 42.0342L37.8857 42.041C36.8829 42.9849 36.0566 44.076 35.4053 45.3174C34.82 46.5513 34.4362 47.909 34.2578 49.3955L34.249 49.4668L34.2266 49.5342C34.1866 49.6541 34.1689 49.7668 34.1689 49.875V50.4375C34.1689 53.6279 35.2834 56.3244 37.5264 58.5674C39.7694 60.8104 42.4659 61.9248 45.6562 61.9248H46.2188C46.3269 61.9248 46.4397 61.9071 46.5596 61.8672L46.627 61.8447L46.6982 61.8359C48.1845 61.6575 49.5416 61.2727 50.7754 60.6875C52.0105 60.0396 53.0965 59.2185 54.0371 58.2227L54.5518 57.6045L38.4375 41.4902L37.8936 42.0342ZM51.3281 32.2002C49.9256 32.38 48.5805 32.7904 47.29 33.4346C46.047 34.0862 44.9546 34.9132 44.0098 35.917L44.0029 35.9248L43.6465 36.2812L59.8125 52.4473L60.1689 52.0908L60.1768 52.084C61.1816 51.1383 62.0093 50.0443 62.6611 48.7998C63.3035 47.5116 63.7138 46.1356 63.8936 44.668V43.5938C63.8936 40.4039 62.7797 37.7425 60.543 35.5645L60.5293 35.5508C58.3513 33.314 55.6899 32.2002 52.5 32.2002H51.3281Z" fill="black"/>
</svg>
