<svg xmlns="http://www.w3.org/2000/svg" viewBox="0 0 40 40"><title>connection-off</title><g id="Layer_2" data-name="Layer 2"><path d="M36.75,3.25a1.25,1.25,0,0,0-1.77,0L30.06,8.17A7.54,7.54,0,0,0,25,6.79a7.88,7.88,0,0,0-4.82,2.35l-1.09,1.09a1.45,1.45,0,0,0,0,2l8.64,8.64a1.45,1.45,0,0,0,2,0l1.09-1.09A7.88,7.88,0,0,0,33.21,15a7.56,7.56,0,0,0-1.38-5.07L36.75,5A1.25,1.25,0,0,0,36.75,3.25Zm-6,11.54a5.38,5.38,0,0,1-1.63,3.27l-.34.34L21.6,11.26l.34-.34a5.38,5.38,0,0,1,3.27-1.63,5.06,5.06,0,0,1,5.5,5.51Z"/><path d="M21.13,20.84,17.6,24.36l-2-2,3.53-3.53A1.25,1.25,0,0,0,17.4,17.1l-3.53,3.53L12.3,19.06a1.48,1.48,0,0,0-2,0L9.1,20.22A7.89,7.89,0,0,0,6.74,25a7.56,7.56,0,0,0,1.38,5.07L3.25,35A1.25,1.25,0,1,0,5,36.75l4.87-4.87a7.55,7.55,0,0,0,4.39,1.41q.34,0,.69,0a7.88,7.88,0,0,0,4.82-2.35l1.16-1.16a1.45,1.45,0,0,0,0-2l-1.57-1.57,3.53-3.53a1.25,1.25,0,0,0-1.77-1.77ZM18,29.14a5.38,5.38,0,0,1-3.27,1.63,5.06,5.06,0,0,1-5.51-5.51A5.39,5.39,0,0,1,10.86,22l.42-.41,7.15,7.15Z"/></g></svg>