<svg xmlns="http://www.w3.org/2000/svg" viewBox="0 0 40 40"><title>copy</title><g id="Layer_2" data-name="Layer 2"><path d="M31.52,35.85h-16a4.3,4.3,0,0,1-4.29-4.29v-16a4.3,4.3,0,0,1,4.29-4.29h16a4.3,4.3,0,0,1,4.29,4.29v16A4.3,4.3,0,0,1,31.52,35.85Zm-16-22.08a1.79,1.79,0,0,0-1.79,1.79v16a1.79,1.79,0,0,0,1.79,1.79h16a1.79,1.79,0,0,0,1.79-1.79v-16a1.79,1.79,0,0,0-1.79-1.79Z"/><path d="M8.67,28.74a4.48,4.48,0,0,1-4.48-4.48V8.63A4.48,4.48,0,0,1,8.67,4.15H24.29a4.48,4.48,0,0,1,4.48,4.48,1.25,1.25,0,0,1-2.5,0,2,2,0,0,0-2-2H8.67a2,2,0,0,0-2,2V24.26a2,2,0,0,0,2,2,1.25,1.25,0,1,1,0,2.5Z"/></g></svg>