<svg id="import" xmlns="http://www.w3.org/2000/svg" viewBox="0 0 40 40"><title>data</title><path d="M38.12,11.28a4.13,4.13,0,0,0-8.17-.9,29,29,0,0,0-6.4,1.49A16.68,16.68,0,0,0,18,6.06c0-.09,0-.18,0-.27a4.46,4.46,0,0,0-8.92,0,4.41,4.41,0,0,0,.15,1.1A15.15,15.15,0,0,0,5.3,17,5.53,5.53,0,0,0,9,27.44a19.45,19.45,0,0,0,7.52,5.17,7.56,7.56,0,1,0,13.23-6.3,38.1,38.1,0,0,0,5-11A4.14,4.14,0,0,0,38.12,11.28ZM34,9.44a1.84,1.84,0,1,1-1.84,1.84A1.84,1.84,0,0,1,34,9.44Zm-3.88,3.24a4.15,4.15,0,0,0,2.27,2.42A35.76,35.76,0,0,1,28,24.77a7.52,7.52,0,0,0-1.78-.85,24.27,24.27,0,0,0-1.63-10A26.45,26.45,0,0,1,30.11,12.68Zm-8.74,0a59,59,0,0,0-10.07,5.5,5.51,5.51,0,0,0-3.69-1.6A13.25,13.25,0,0,1,10.43,9a4.45,4.45,0,0,0,6.8-.67A14.4,14.4,0,0,1,21.37,12.71ZM13.55,3.62a2.16,2.16,0,1,1-2.16,2.16A2.16,2.16,0,0,1,13.55,3.62ZM4.38,22.14a3,3,0,1,1,3,3A3,3,0,0,1,4.38,22.14Zm12.06,7.94A16.9,16.9,0,0,1,11,26.3a5.5,5.5,0,0,0,1.52-6.17,56.41,56.41,0,0,1,9.85-5.38,21.63,21.63,0,0,1,1.5,8.8h0A7.56,7.56,0,0,0,16.44,30.08Zm7.48,6.09A5.06,5.06,0,1,1,29,31.12,5.06,5.06,0,0,1,23.92,36.18Z"/></svg>