<svg xmlns="http://www.w3.org/2000/svg" viewBox="0 0 40 40"><title>download</title><g id="Layer_2" data-name="Layer 2"><circle cx="26.96" cy="28.84" r="1.37" transform="translate(-2.39 55.25) rotate(-88.92)"/><circle cx="31.6" cy="28.84" r="1.37" transform="matrix(0.02, -1, 1, 0.02, 2.16, 59.89)"/><path d="M19.11,26.54a1.25,1.25,0,0,0,1.77,0l7.45-7.45a1.25,1.25,0,0,0-1.77-1.77l-5.32,5.32V5.74a1.25,1.25,0,0,0-2.5,0v16.9l-5.32-5.32a1.25,1.25,0,0,0-1.77,1.77Z"/><path d="M33.86,22.19H29.51a1.25,1.25,0,0,0,0,2.5h4.36a.69.69,0,0,1,.69.69v5.95a.69.69,0,0,1-.69.69H6.14a.69.69,0,0,1-.69-.69V25.38a.69.69,0,0,1,.69-.69H10.4a1.25,1.25,0,0,0,0-2.5H6.14a3.19,3.19,0,0,0-3.19,3.19v5.95a3.19,3.19,0,0,0,3.19,3.19H33.86a3.19,3.19,0,0,0,3.19-3.19V25.38A3.19,3.19,0,0,0,33.86,22.19Z"/></g></svg>