<svg id="import" xmlns="http://www.w3.org/2000/svg" viewBox="0 0 40 40"><title>edit</title><path d="M35.78,9.41l-5-5a2,2,0,0,0-2.8,0L25.43,6.9a1.15,1.15,0,1,0,1.63,1.62l2.29-2.3,4.58,4.59-2.29,2.29a1.15,1.15,0,0,0,1.63,1.63l2.52-2.52,0,0a2,2,0,0,0,0-2.78Z"/><path d="M25.49,9.71a2.3,2.3,0,0,0-3.25,0L6.5,25.46a2.3,2.3,0,0,0-.56.92L3.75,33.21a2.3,2.3,0,0,0,2.82,2.91l7-2a2.3,2.3,0,0,0,1-.6L30.33,17.8a2.3,2.3,0,0,0,0-3.25ZM5.94,33.91l2.18-6.78,4.79,4.8Zm8.54-3.52L9.66,25.55,23.86,11.34l4.84,4.83Z"/></svg>