<svg xmlns="http://www.w3.org/2000/svg" viewBox="0 0 40 40"><title>expand</title><g id="Layer_3" data-name="Layer 3"><path d="M23.6,32l-2.35,2.35V28.47a1.25,1.25,0,0,0-2.5,0v5.86L16.4,32a1.15,1.15,0,0,0-1.63,1.63L19.19,38a1.15,1.15,0,0,0,1.63,0l4.41-4.41A1.15,1.15,0,0,0,23.6,32Z"/><path d="M20.81,2a1.15,1.15,0,0,0-1.63,0L14.77,6.39A1.15,1.15,0,0,0,16.4,8l2.35-2.35v6a1.25,1.25,0,0,0,2.5,0v-6L23.6,8a1.15,1.15,0,1,0,1.63-1.63Z"/><path d="M38,19.19l-4.41-4.41A1.15,1.15,0,0,0,32,16.4l2.35,2.35h-6a1.25,1.25,0,0,0,0,2.5h6L32,23.6a1.15,1.15,0,0,0,1.63,1.63L38,20.81A1.15,1.15,0,0,0,38,19.19Z"/><path d="M11.66,18.75h-6L8,16.4a1.15,1.15,0,0,0-1.63-1.63L2,19.19a1.15,1.15,0,0,0,0,1.63l4.41,4.41A1.15,1.15,0,1,0,8,23.6L5.67,21.25h6a1.25,1.25,0,1,0,0-2.5Z"/><path d="M20,25.42a5.42,5.42,0,1,0-3.84-1.59A5.41,5.41,0,0,0,20,25.42Zm-2.21-7.63a3.12,3.12,0,1,1,0,4.42A3.11,3.11,0,0,1,17.79,17.79Z"/></g></svg>