<svg id="import" xmlns="http://www.w3.org/2000/svg" viewBox="0 0 40 40"><title>export</title><path d="M34.65,25.23a1.25,1.25,0,0,0-1.25,1.25v5.16L18.27,16.5a1.25,1.25,0,0,0-1.77,1.77L31.64,33.41H26.48a1.25,1.25,0,1,0,0,2.5h8.17a1.25,1.25,0,0,0,1.25-1.25V26.48A1.25,1.25,0,0,0,34.65,25.23Z"/><path d="M23.2,29.3A11.46,11.46,0,0,1,10,26.82,11.87,11.87,0,0,1,26.79,10a11.53,11.53,0,0,1,2.38,13.27,1.25,1.25,0,0,0,2.25,1.08A14,14,0,0,0,28.56,8.27,14.37,14.37,0,0,0,8.24,28.59a13.93,13.93,0,0,0,16,3A1.25,1.25,0,0,0,23.2,29.3Z"/></svg>