<?xml version="1.0" encoding="utf-8"?>
<!-- Generator: Adobe Illustrator 25.4.1, SVG Export Plug-In . SVG Version: 6.00 Build 0)  -->
<svg version="1.1" id="Layer_1" xmlns="http://www.w3.org/2000/svg" xmlns:xlink="http://www.w3.org/1999/xlink" x="0px" y="0px"
	 viewBox="0 0 1024 1024" style="enable-background:new 0 0 1024 1024;" xml:space="preserve">
<path d="M357.3,706.1c-32.1-11.3-61.6-27.4-88.7-48.1c-27-20.8-50.3-45-69.8-72.7c-19.5-27.7-34.8-58-45.8-91.1
	c-11-33-16.5-67.8-16.5-104.3c0-1.3,0-2.7,0-4.2c0-1.6,0-3,0-4.2c0-47.8,9.1-92.8,27.4-134.9c18.3-42.2,43.1-79,74.5-110.4
	c31.5-31.5,68.3-56.3,110.4-74.5C391,43.4,436,34.3,483.8,34.3c47.8,0,92.8,9.1,134.9,27.4c42.2,18.2,79,43.1,110.4,74.5
	c31.5,31.4,56.3,68.2,74.5,110.4c18.3,42.1,27.4,87.1,27.4,134.9c0,1.3,0,2.4,0,3.3c0,0.9,0,2,0,3.3c0,36.5-5.5,71.4-16.5,104.7
	c-11,33.3-26.6,63.8-46.7,91.5c-20.1,27.7-44,52-71.7,73.1c-27.7,21.1-58.2,37.6-91.5,49.5c-1.3,0.6-2.8,1.1-4.7,1.4
	c-1.9,0.3-3.8,0.5-5.7,0.5c-8.2,0-15.2-3-21.2-9c-6-6-9-13.4-9-22.2c0-6.3,2-12.1,6.1-17.5c4.1-5.4,9.6-9.3,16.5-11.8
	c26.4-9.4,51-22.8,73.6-40.1c22.6-17.3,42.2-37.4,58.5-60.4c16.4-23,29.1-48.1,38.2-75.5c9.1-27.4,13.7-56.1,13.7-86.3
	c0-0.6,0-1.4,0-2.4c0-0.9,0-1.7,0-2.4c0-39.6-7.5-76.8-22.6-111.3c-15.1-34.6-35.5-65-61.3-91.1c-25.8-26.1-56.1-46.7-91.1-61.8
	c-34.9-15.1-72.2-22.6-111.8-22.6c-39.6,0-76.9,7.5-111.8,22.6s-65.3,35.5-91.1,61.3c-25.8,25.8-46.2,56.1-61.3,91.1
	c-15.1,34.9-22.6,72.2-22.6,111.8c0,1.3,0,2.7,0,4.2c0,1.6,0,3,0,4.2c0,29.6,4.6,58,13.7,85.4c9.1,27.4,21.7,52.4,37.7,75
	c16,22.6,35.2,42.5,57.6,59.4c22.3,17,47,30.5,74.1,40.6c6.3,1.9,11.5,5.5,15.6,10.9c4.1,5.3,6.1,11.2,6.1,17.5c0,8.8-3,16-9,21.7
	c-6,5.7-13,8.5-21.2,8.5c-2.5,0-4.6-0.2-6.1-0.5c-1.6-0.3-3.3-0.8-5.2-1.4L357.3,706.1z"/>
<path d="M510,751.6c0,20.1,7.1,37.3,21.2,51.4c14.2,14.2,31.3,21.2,51.4,21.2h250.8l-87.8-88.7c-2.5-2.5-4.6-5.7-6.1-9.4
	c-1.6-3.8-2.4-7.9-2.4-12.3c0-8.2,2.8-15.3,8.5-21.2c5.7-6,12.9-9,21.7-9c3.8,0,7.5,0.8,11.3,2.4c3.8,1.6,6.9,3.9,9.4,7.1
	l139.7,139.6c3.2,2.5,5.5,5.7,7.1,9.4c1.6,3.8,2.4,7.5,2.4,11.3c0,4.4-0.8,8.5-2.4,12.3c-1.6,3.8-3.9,6.9-7.1,9.4l-139.7,139.7
	c-2.5,2.5-5.5,4.4-9,5.7c-3.4,1.3-7.1,1.9-10.9,1.9c-8.2,0-15.2-3-21.2-9c-6-6-9-13.1-9-21.2c0-3.8,0.6-7.4,1.9-10.9
	c1.3-3.5,3.2-6.5,5.7-9l87.8-88.7H582.7c-36.5,0-67.6-12.9-93.4-38.7c-25.8-25.8-39-56.9-39.6-93.4V474.5c0-8.2,3-15.3,9-21.2
	c6-6,13.1-9,21.2-9c8.8,0,16,3,21.7,9c5.7,6,8.5,13,8.5,21.2V751.6z"/>
</svg>
