<svg id="import" xmlns="http://www.w3.org/2000/svg" viewBox="0 0 40 40"><title>external</title><path d="M35.13,5.37A1.25,1.25,0,0,0,34.25,5H23.07a1.25,1.25,0,0,0,0,2.5h8.16L16.09,22.64a1.25,1.25,0,0,0,1.77,1.77L33,9.27v8.16a1.25,1.25,0,1,0,2.5,0V6.25A1.25,1.25,0,0,0,35.13,5.37Z"/><path d="M32.42,22.39a1.25,1.25,0,0,0-1.25,1.25v6.11a2.47,2.47,0,0,1-2.46,2.46H10.6a2.46,2.46,0,0,1-2.46-2.46V11.64A2.46,2.46,0,0,1,10.6,9.18h6.11a1.25,1.25,0,0,0,0-2.5H10.6a5,5,0,0,0-5,5V29.75a5,5,0,0,0,5,5H28.71a5,5,0,0,0,5-5V23.64A1.25,1.25,0,0,0,32.42,22.39Z"/></svg>