<svg xmlns="http://www.w3.org/2000/svg" viewBox="0 0 40 40"><title>eye-off</title><g id="Layer_2" data-name="Layer 2"><path d="M20.86,16.59l-2.41-2.41a6,6,0,0,1,7.37,7.37l-2.41-2.41A3.52,3.52,0,0,0,20.86,16.59ZM34.52,36.67a1.25,1.25,0,0,1-1.77,0l-6.14-6.14A20.45,20.45,0,0,1,20,31.62a19.08,19.08,0,0,1-17.67-11,1.59,1.59,0,0,1,0-1.27,17.83,17.83,0,0,1,5.9-7.23L3.33,7.25A1.25,1.25,0,0,1,5.1,5.48L34.52,34.9A1.25,1.25,0,0,1,34.52,36.67Zm-18-16.24a3.51,3.51,0,0,0,3.05,3.05Zm8.08,8.08-2.78-2.78A5.91,5.91,0,0,1,20,26a6,6,0,0,1-6-6,5.91,5.91,0,0,1,.3-1.81L10,13.93A15.4,15.4,0,0,0,4.78,20,16.63,16.63,0,0,0,20,29.12,18,18,0,0,0,24.59,28.51Zm7.4-.79L30.2,25.93a15.39,15.39,0,0,0,5-5.93A16.62,16.62,0,0,0,20,10.88a18.19,18.19,0,0,0-4.32.53l-2-2a20.56,20.56,0,0,1,6.34-1,19.07,19.07,0,0,1,17.67,11,1.57,1.57,0,0,1,0,1.28A17.81,17.81,0,0,1,32,27.71Zm3.4-7.34h0Zm0-.74h0Z"/></g></svg>