<svg xmlns="http://www.w3.org/2000/svg" viewBox="0 0 40 40"><title>eye</title><g id="Layer_2" data-name="Layer 2"><path d="M20,31.62a19.08,19.08,0,0,1-17.67-11,1.59,1.59,0,0,1,0-1.27A19.08,19.08,0,0,1,20,8.38a19.07,19.07,0,0,1,17.67,11,1.57,1.57,0,0,1,0,1.28A19.07,19.07,0,0,1,20,31.62ZM4.78,20A16.63,16.63,0,0,0,20,29.12,16.62,16.62,0,0,0,35.22,20,16.62,16.62,0,0,0,20,10.88,16.63,16.63,0,0,0,4.78,20Zm30.6.37h0Zm0-.74h0Z"/><path d="M20,26a6,6,0,1,1,6-6A6,6,0,0,1,20,26Zm0-9.56A3.53,3.53,0,1,0,23.53,20,3.53,3.53,0,0,0,20,16.47Z"/></g></svg>