<svg xmlns="http://www.w3.org/2000/svg" viewBox="0 0 40 40"><title>f</title><g id="Layer_2" data-name="Layer 2"><path d="M23.87,13.9a1.13,1.13,0,0,0,.8-.32,1.08,1.08,0,0,0,.34-.8,1.14,1.14,0,0,0-1.14-1.14H17.43A1.41,1.41,0,0,0,16,13.08V27.22a1.1,1.1,0,0,0,.35.81A1.16,1.16,0,0,0,18,28a1.1,1.1,0,0,0,.35-.81V20.72h5.26a1.13,1.13,0,0,0,.8-.32,1.07,1.07,0,0,0,.34-.8,1.14,1.14,0,0,0-1.14-1.14H18.32V13.9Z"/><path d="M31.93,36.22H8.07a4.3,4.3,0,0,1-4.29-4.29V8.07A4.3,4.3,0,0,1,8.07,3.78H31.93a4.3,4.3,0,0,1,4.29,4.29V31.93A4.3,4.3,0,0,1,31.93,36.22ZM8.07,6.28A1.79,1.79,0,0,0,6.28,8.07V31.93a1.79,1.79,0,0,0,1.79,1.79H31.93a1.79,1.79,0,0,0,1.79-1.79V8.07a1.79,1.79,0,0,0-1.79-1.79Z"/></g></svg>