<svg xmlns="http://www.w3.org/2000/svg" viewBox="0 0 40 40"><title>folder</title><g id="Layer_2" data-name="Layer 2"><path d="M38.51,19.67a3.19,3.19,0,0,0-2.9-1.83H32.88V14.52a4,4,0,0,0-4-4H18.55L15.81,6.81H6.95a4,4,0,0,0-4,4V29.2a4,4,0,0,0,4,4H29.56A3.2,3.2,0,0,0,32.06,32l6.08-9A3.19,3.19,0,0,0,38.51,19.67ZM6.95,9.31h7.6L17.29,13h11.6a1.49,1.49,0,0,1,1.49,1.49v3.33H13.21A3.2,3.2,0,0,0,10.71,19L5.46,26.77v-16A1.49,1.49,0,0,1,6.95,9.31Zm29.22,12.2-6.07,9a.71.71,0,0,1-.53.24H7.15a.71.71,0,0,1-.55-1.16l6.07-8.95a.71.71,0,0,1,.53-.24H35.61a.72.72,0,0,1,.56,1.16Z"/></g></svg>