<!-- Generated by IcoMoon.io -->
<svg version="1.1" xmlns="http://www.w3.org/2000/svg" width="751" height="1024" viewBox="0 0 751 1024">
<title></title>
<g id="icomoon-ignore">
</g>
<path d="M649.21 128.997c-79.627-81.219-176.771-100.33-242.065-101.922v0c0 0 0 0 0 0-63.701 0-111.477 9.555-156.068 31.851-73.257 35.036-130.588 93.96-168.809 173.586-4.778 9.555-4.778 19.11-1.593 27.073s7.963 14.333 15.925 17.518c15.925 6.37 31.851 0 41.406-17.518 0-1.593 1.593-3.185 1.593-3.185l1.593-1.593c30.258-62.109 73.257-105.107 127.403-133.773 57.331-30.258 121.033-38.221 194.289-22.295 70.072 14.333 125.81 47.776 164.031 98.737 46.184 60.516 60.516 130.588 42.998 214.992-14.333 65.294-42.998 127.403-90.774 189.512-46.184 58.924-85.997 128.995-121.033 213.4-15.925 38.221-33.443 73.257-50.961 105.107-17.518 33.443-42.998 54.146-74.849 63.701-23.888 6.37-50.961 7.963-81.219 4.778-54.146-11.148-84.404-33.443-100.33-73.257-7.963-19.11-11.148-39.813-11.148-66.886 0-25.481-15.925-35.036-30.258-35.036-9.555 0-15.925 3.185-22.295 9.555-4.778 4.778-9.555 12.74-9.555 28.666 1.593 15.925 1.593 30.258 4.778 46.184 11.148 57.331 38.221 100.33 82.812 125.81 31.851 17.518 68.479 27.073 111.477 27.073 6.37 0 12.74 0 19.11 0 60.516-3.185 106.7-27.073 138.551-70.072 17.518-23.888 33.443-50.961 50.961-84.404 14.333-27.073 27.073-55.739 38.221-82.812 9.555-20.703 19.11-41.406 28.666-62.109 15.925-35.036 38.221-65.294 62.109-98.737 7.963-11.148 15.925-20.703 22.295-31.851 60.516-85.997 90.774-164.031 97.145-246.843 7.963-98.737-19.11-179.956-84.404-245.25z"></path>
<path d="M561.62 294.619c-35.036-79.627-128.995-125.81-219.77-106.7-60.516 12.74-106.7 46.184-141.736 103.515-55.739 90.774-23.888 194.289 39.813 238.88 4.778 3.185 7.963 7.963 6.37 14.333-1.593 7.963-1.593 15.925-4.778 22.295-9.555 15.925-20.703 31.851-31.851 46.184-14.333 15.925-30.258 39.813-33.443 71.664-4.778 41.406 19.11 78.034 55.739 87.589 7.963 1.593 15.925 3.185 22.295 3.185 19.11 0 36.628-6.37 54.146-19.11s30.258-31.851 39.813-54.146c4.778-11.148 11.148-23.888 22.295-38.221 9.555-11.148 20.703-27.073 27.073-42.998 35.036-81.219 30.258-162.439-15.925-238.88-20.703-33.443-49.369-57.331-87.589-71.664-7.963-3.185-17.518-4.778-25.481-6.37 35.036-44.591 84.404-65.294 140.143-54.146 55.739 9.555 90.774 39.813 103.515 90.774 7.963 28.666 6.37 57.331-6.37 93.96-11.148 36.628-30.258 71.664-60.516 111.477-6.37 7.963-9.555 17.518-7.963 27.073 1.593 7.963 6.37 15.925 12.74 20.703 14.333 11.148 31.851 6.37 44.591-7.963 35.036-46.184 58.924-89.182 71.664-133.773 15.925-62.109 14.333-113.070-4.778-157.661zM298.852 590.83c4.778-12.74 7.963-23.888 9.555-35.036 3.185-30.258-6.37-57.331-31.851-78.034-35.036-30.258-47.776-68.479-38.221-116.255 42.998 3.185 74.849 22.295 95.552 58.924 15.925 28.666 23.888 60.516 23.888 95.552 0 46.184-14.333 84.404-41.406 114.663-7.963 9.555-14.333 19.11-19.11 30.258-1.593 3.185-3.185 4.778-4.778 7.963s-4.778 7.963-6.37 11.148c-1.593 4.778-4.778 9.555-6.37 12.74v0c-4.778 6.37-9.555 11.148-14.333 14.333-11.148 6.37-17.518 3.185-19.11 1.593-3.185-3.185-7.963-6.37-6.37-19.11s6.37-22.295 17.518-35.036c11.148-14.333 30.258-36.628 41.406-63.701z"></path>
</svg>
