<?xml version="1.0" encoding="utf-8"?>
<!-- Generator: Adobe Illustrator 25.4.1, SVG Export Plug-In . SVG Version: 6.00 Build 0)  -->
<svg version="1.1" id="Layer_1" xmlns="http://www.w3.org/2000/svg" xmlns:xlink="http://www.w3.org/1999/xlink" x="0px" y="0px"
	 viewBox="0 0 1024 1024" style="enable-background:new 0 0 1024 1024;" xml:space="preserve">
<g id="icomoon-ignore">
</g>
<path d="M863,236L863,236c-1.3-25.8-13.9-48.3-32.8-63.1c-22.5-18.9-48.6-34.1-77-44.4c-73.8-26.4-157-41.4-243.6-41.4
	c-4.4,0-8.7,0-13.1,0.1c-3-0.1-7.4-0.1-11.8-0.1c-86.6,0-169.8,14.9-247,42.4c-25,9.3-51.1,24.5-73.8,43.5
	c-18.6,14.5-31.2,36.8-32.6,62.2v0.2V788c1.3,25.6,13.8,48.1,32.8,62.6c22.5,19,48.6,34.4,77,44.9c73.8,26.4,156.9,41.4,243.4,41.4
	c4.4,0,8.8,0,13.2-0.1c3.1,0.1,7.5,0.1,12,0.1c86.6,0,169.6-15,246.7-42.4c25.1-9.5,51.1-24.8,73.8-44
	c18.5-14.6,30.7-37.1,31.6-62.5V236.4L863,236z M206.4,220.4c17.1-14,37.2-25.3,59.1-32.6c66.5-23.2,141.6-36.3,219.9-36.3
	c4.2,0,8.3,0,12.5,0.1c2.9-0.1,7.1-0.1,11.3-0.1c78.2,0,153.3,13.2,223.3,37.4c18,6.4,37.7,17.6,54.9,31.8
	c4.9,3.5,8.8,8.9,10.6,15.2v0.2c0,3.6-4.1,9.2-11,15.4c-16.9,14-36.6,25.3-58.1,32.9c-66.7,23.3-142,36.6-220.5,36.6
	c-4,0-7.9,0-11.9-0.1c-2.8,0.1-6.7,0.1-10.7,0.1c-78.4,0-153.7-13.3-223.9-37.6c-18.4-6.3-38.5-17.5-56-31.8
	c-6.6-6.1-10.7-11.8-10.7-15.3S199.5,226.8,206.4,220.4L206.4,220.4z M788,803.3c-17.1,14-37.2,25.3-59.1,32.6
	c-66.7,23.3-142,36.6-220.4,36.6c-4,0-8,0-12-0.1c-2.8,0.1-6.8,0.1-10.8,0.1c-78.4,0-153.7-13.3-223.8-37.6
	c-18-6.4-37.8-17.6-54.9-31.8c-6.6-6.1-10.7-11.8-10.7-15.4V321.8c13.4,7.9,29.1,15.5,45.4,21.8c73.4,26,155.5,40.6,241,40.6
	c5.1,0,10.1-0.1,15.2-0.2c3.2,0.1,7.8,0.1,12.5,0.1c86.3,0,169.2-14.9,246.1-42.2c13.4-5.4,29.1-13,44-21.8L799,786.8
	C799,791.3,794.9,796.9,788,803.3L788,803.3z"/>
<path d="M618.9,618.2L618.9,618.2c-6.1-5.8-14-8.9-22.9-8.9h-79.4c-8.6,0-16.3,2.7-22.3,7.9c-6.6,5.7-10.2,13.7-10.2,22.6
	c0,8.8,3.4,16.6,9.9,22.5c6,5.5,13.9,8.4,22.6,8.4h47.6v56.5c-6.6,4-13.5,7.3-20.4,9.8c-11.5,4.2-24,6.4-37.1,6.4
	c-15.4,0-29.9-3-43.2-9c-13.5-6.1-25.5-14.6-35.8-25.3c-10.3-10.8-18.5-23.5-24.4-37.7c-5.8-14.1-8.8-29.5-8.8-45.9
	c0-15.8,3-31,8.8-45.1c5.9-14.2,14.1-26.9,24.4-37.7c10.3-10.8,22.3-19.4,35.9-25.6c13.2-6.1,27.7-9.2,43.1-9.2
	c14.7,0,27.7,2,38.4,5.8c10.6,3.8,20.6,9.8,29.7,17.7l0.5,0.4c5.3,4.2,11.1,6.7,17.2,7.3c6,0.6,11.6-0.4,16.5-2.9
	c4.1-2.1,7.4-5,9.8-8.7c2.8-2.5,5.2-5.6,6.8-9.1c2.5-5.3,3.3-11.2,2.4-17c-1.1-6.7-4.6-12.5-10.2-17c-16.5-13.7-33.9-23.9-51.7-30.3
	c-17.9-6.4-37.9-9.6-59.4-9.6c-24.7,0-48.1,4.8-69.4,14.4c-21.2,9.5-40,22.6-56.1,39.1c-16.1,16.5-28.7,36-37.6,57.7
	c-8.9,21.8-13.3,45.2-13.3,69.7c0,24.8,4.6,48.5,13.6,70.2c9,21.7,21.7,41.1,37.7,57.8c16.1,16.7,35,29.9,56.2,39.2
	c21.3,9.4,44.5,14.1,68.9,14.1c20.2,0,40-2.9,58.7-8.8c19.6-6.1,37.4-16.5,53.2-31l0.5-0.5c3.8-3.8,6.4-8,7.8-12.4
	c1-3.3,1.5-7,1.5-10.8v-102C628.5,632.3,625.2,624.3,618.9,618.2z"/>
</svg>
