<svg xmlns="http://www.w3.org/2000/svg" viewBox="0 0 40 40"><title>google-plus</title><g id="Layer_2" data-name="Layer 2"><path d="M3.33,19.47A10.58,10.58,0,0,1,13.91,9.4,10.75,10.75,0,0,1,21,12a37.76,37.76,0,0,1-2.69,2.79c-2.41-1.67-5.84-2.14-8.25-.22a6.79,6.79,0,0,0-.29,10.58c3.23,2.93,9.32,1.47,10.21-3-2,0-4,0-6.07-.07,0-1.21,0-2.41,0-3.62,3.38,0,6.76,0,10.14,0a12.16,12.16,0,0,1-1.91,8.2c-2.64,3.71-7.93,4.8-12.07,3.21A10.61,10.61,0,0,1,3.33,19.47Z"/><path d="M30.64,15.44h3c0,1,0,2,0,3l3,0v3l-3,0q0,1.52,0,3h-3c0-1,0-2,0-3l-3,0v-3l3,0Q30.62,16.95,30.64,15.44Z"/></g></svg>