<svg xmlns="http://www.w3.org/2000/svg" viewBox="0 0 40 40"><title>heartbeat</title><g id="Layer_2" data-name="Layer 2"><path d="M37.94,13.37A10.41,10.41,0,0,0,20,7.4a10.41,10.41,0,0,0-16.17,13c4.51,7.78,15,15.81,15.42,16.14a1.25,1.25,0,0,0,1.52,0c.44-.34,10.91-8.36,15.42-16.14A10.45,10.45,0,0,0,37.94,13.37ZM20,34A81.7,81.7,0,0,1,9.08,23.49H13a1.15,1.15,0,0,0,1.09-.79l1.78-5.47L18.54,27a1.15,1.15,0,0,0,1.05.84h.06a1.15,1.15,0,0,0,1.07-.74l2.61-6.78.73,2.23a1.15,1.15,0,0,0,1.09.79H31A81.42,81.42,0,0,1,20,34ZM34.09,19l-.06.09c-.37.64-.8,1.29-1.25,1.94H26l-1.48-4.49a1.15,1.15,0,0,0-1.06-.79,1.11,1.11,0,0,0-1.1.74L19.83,23,17.06,12.91A1.15,1.15,0,0,0,16,12.07a1.19,1.19,0,0,0-1.12.79l-2.71,8.33H7.31c-.49-.69-.95-1.39-1.34-2.07L5.91,19a7.84,7.84,0,0,1-1.36-5.4,7.93,7.93,0,0,1,6.88-7,8.18,8.18,0,0,1,1-.06A7.9,7.9,0,0,1,19,10.1a1.25,1.25,0,0,0,2.07,0,7.91,7.91,0,0,1,14.42,3.54A7.84,7.84,0,0,1,34.09,19Z"/></g></svg>