<svg id="import" xmlns="http://www.w3.org/2000/svg" viewBox="0 0 40 40"><title>help</title><path d="M21.79,28.84a1.88,1.88,0,1,1-1.85-1.92A1.88,1.88,0,0,1,21.79,28.84ZM36.51,20A16.51,16.51,0,1,0,20,36.51,16.53,16.53,0,0,0,36.51,20ZM34,20A14,14,0,1,1,20,6,14,14,0,0,1,34,20ZM19.93,25.38a1.3,1.3,0,0,0,1.14-1.44c-.29-2.48.65-3.3,2-4.44s2.83-2.47,2.83-5.37A5.32,5.32,0,0,0,20.38,9a7.43,7.43,0,0,0-5,2.11A1.3,1.3,0,1,0,17.09,13a4.82,4.82,0,0,1,3.28-1.43,2.76,2.76,0,0,1,2.88,2.53c0,1.72-.81,2.43-1.94,3.42-1.46,1.27-3.28,2.86-2.82,6.7a1.3,1.3,0,0,0,1.29,1.15Z"/></svg>