<svg xmlns="http://www.w3.org/2000/svg" viewBox="0 0 40 40"><title>home</title><g id="Layer_2" data-name="Layer 2"><path d="M30.05,19.44a1.25,1.25,0,0,0-1.25,1.25V32.61H23.58V24.43a4.84,4.84,0,1,0-9.69,0v8.18H11.2V20.69a1.25,1.25,0,1,0-2.5,0V33.86a1.25,1.25,0,0,0,1.25,1.25H30.05a1.25,1.25,0,0,0,1.25-1.25V20.69A1.25,1.25,0,0,0,30.05,19.44Zm-14,5a2.65,2.65,0,0,1,5.29,0v8.18H16.09Zm18.67-4.91a1.25,1.25,0,0,1-1.77.09L20,7.83,7,19.61a1.25,1.25,0,0,1-1.68-1.85L19.16,5.21a1.25,1.25,0,0,1,1.68,0L34.68,17.76A1.25,1.25,0,0,1,34.76,19.53Z"/></g></svg>