<svg id="import" xmlns="http://www.w3.org/2000/svg" viewBox="0 0 40 40"><title>import</title><path d="M10.17,5.25h5.57a3,3,0,0,1,3,3V23.65L15.08,20a1.25,1.25,0,0,0-1.77,1.77l5.78,5.78a1.25,1.25,0,0,0,1.77,0l5.78-5.78A1.25,1.25,0,0,0,24.88,20l-3.65,3.65V8.24a5.5,5.5,0,0,0-5.49-5.49H10.17a1.25,1.25,0,1,0,0,2.5Z"/><path d="M25.12,9.52a1.25,1.25,0,1,0-.82,2.36A11.46,11.46,0,0,1,31.87,23,11.87,11.87,0,0,1,8.13,23a11.53,11.53,0,0,1,7.7-11.07A1.25,1.25,0,0,0,15,9.54,14,14,0,0,0,5.63,23a14.37,14.37,0,0,0,28.74,0A13.93,13.93,0,0,0,25.12,9.52Z"/></svg>