<svg id="import" xmlns="http://www.w3.org/2000/svg" viewBox="0 0 40 40"><title>inferred-off</title><path d="M22.41,20a1.25,1.25,0,0,1-.37.88L9.67,33.26A1.25,1.25,0,0,1,7.9,31.49L19.39,20,7.9,8.51A1.25,1.25,0,0,1,9.67,6.74L22,19.12A1.25,1.25,0,0,1,22.41,20Z"/><circle cx="21.04" cy="8.07" r="1.49" transform="translate(0.29 16.85) rotate(-43.92)"/><circle cx="32.97" cy="20" r="1.49" transform="translate(-4.65 28.46) rotate(-43.92)"/><circle cx="24.02" cy="11.05" r="1.49" transform="translate(-0.95 19.75) rotate(-43.92)"/><circle cx="27.01" cy="14.03" r="1.49" transform="translate(-2.18 22.66) rotate(-43.92)"/><circle cx="29.99" cy="17.02" r="1.49" transform="translate(-3.42 25.56) rotate(-43.92)"/><circle cx="21.04" cy="31.93" r="1.49" transform="translate(-16.26 23.52) rotate(-43.92)"/><circle cx="24.03" cy="28.95" r="1.49" transform="translate(-13.36 24.76) rotate(-43.92)"/><circle cx="27.01" cy="25.97" r="1.49" transform="translate(-10.46 25.99) rotate(-43.92)"/><circle cx="29.99" cy="22.98" r="1.49" transform="translate(-7.55 27.23) rotate(-43.92)"/></svg>