<svg id="import" xmlns="http://www.w3.org/2000/svg" viewBox="0 0 40 40"><title>info</title><path d="M20,36.51A16.51,16.51,0,1,1,36.51,20,16.53,16.53,0,0,1,20,36.51ZM20,6A14,14,0,1,0,34,20,14,14,0,0,0,20,6Z"/><path d="M19.11,31.92a2.42,2.42,0,0,1-1.82-.77,2.58,2.58,0,0,1-.67-1.8c0-1.27,1.3-5.74,2.38-9.27.38-1.29.56-1.95.64-2.29a4.08,4.08,0,0,0-1,.42,5.81,5.81,0,0,0-1,.71A1.25,1.25,0,1,1,16,17.05a8.29,8.29,0,0,1,1.4-1,4.94,4.94,0,0,1,2.41-.74,2.44,2.44,0,0,1,1.59.53,2.15,2.15,0,0,1,.78,1.68,13.84,13.84,0,0,1-.81,3.3c-1.8,5.83-2.28,8.11-2.28,8.54a.38.38,0,0,0,0,.12s.23-.06.73-.35A13.65,13.65,0,0,0,22,27.34a1.25,1.25,0,0,1,1.71,1.82,15.81,15.81,0,0,1-2.61,2.13A4,4,0,0,1,19.11,31.92Z"/><ellipse cx="21.29" cy="10.82" rx="2.19" ry="2.01" transform="translate(6.07 29.23) rotate(-77.37)"/></svg>