<svg xmlns="http://www.w3.org/2000/svg" viewBox="0 0 40 40"><title>info-alt</title><g id="Layer_2" data-name="Layer 2"><path d="M18.91,36.85a3,3,0,0,1-2.28-1,3.26,3.26,0,0,1-.84-2.28c0-1.9,2.17-9.2,3.46-13.39a31.54,31.54,0,0,0,1.06-3.93c0-.05-.13-.1-.35-.1a4.38,4.38,0,0,0-2,.68A9,9,0,0,0,16.48,18a1.3,1.3,0,0,1-1.73-1.94,11.6,11.6,0,0,1,2-1.43,6.73,6.73,0,0,1,3.27-1,3,3,0,0,1,2,.66,2.62,2.62,0,0,1,1,2.05c0,.43-.09,1-1.17,4.67-2.47,8-3.35,11.81-3.35,12.63a.74.74,0,0,0,.14.5s.12.13.38.13a3,3,0,0,0,1.35-.5,21.56,21.56,0,0,0,3.23-2.67A1.3,1.3,0,1,1,25.28,33a22.73,22.73,0,0,1-3.72,3A5.41,5.41,0,0,1,18.91,36.85Z"/><ellipse cx="21.28" cy="7.1" rx="3.2" ry="2.93" transform="translate(9.7 26.31) rotate(-77.37)"/></g></svg>