<svg xmlns="http://www.w3.org/2000/svg" viewBox="0 0 40 40"><title>key</title><g id="Layer_2" data-name="Layer 2"><path d="M33.64,6.88A10.27,10.27,0,0,0,16.22,15.7L3.58,28.34l-.23,5.15a2.72,2.72,0,0,0,2.76,2.65h.17L11,35.57a1.37,1.37,0,0,0,1.3-1.37l.16-3.37,3.4,0a1.29,1.29,0,0,0,1-.3,1.31,1.31,0,0,0,.46-1.08l-.71-3.88L21.88,27l2.81-2.77A10.25,10.25,0,0,0,33.64,6.88ZM31.9,19.63a7.79,7.79,0,0,1-7.62,2h0l-3,2.93L15.7,23l-.11,0a1.23,1.23,0,0,0-1.45,1.24l.8,4.41-3.3,0a1.22,1.22,0,0,0-1.29,1.2l-.17,3.62-4.08.48a.49.49,0,0,1-.38-.14.51.51,0,0,1-.17-.29l.19-4.22,13-12.95a.43.43,0,0,0,.11-.4,7.78,7.78,0,1,1,15.35-1.79A7.67,7.67,0,0,1,31.9,19.63Z"/><path d="M24,11.14a1.15,1.15,0,0,0,1.6,1.66,1.49,1.49,0,1,1,2.07,2.15,1.15,1.15,0,0,0,1.6,1.66A3.79,3.79,0,1,0,24,11.14Z"/></g></svg>