<svg xmlns="http://www.w3.org/2000/svg" viewBox="0 0 40 40"><title>linkedin</title><g id="Layer_2" data-name="Layer 2"><path d="M32.78,5H7.21A2.19,2.19,0,0,0,5,7.16V32.84A2.19,2.19,0,0,0,7.21,35H32.78A2.19,2.19,0,0,0,35,32.84V7.16A2.19,2.19,0,0,0,32.78,5ZM13.9,30.56H9.45V16.25H13.9ZM11.67,14.29a2.58,2.58,0,1,1,2.58-2.58A2.58,2.58,0,0,1,11.67,14.29ZM30.56,30.56H26.12v-7c0-1.66,0-3.8-2.31-3.8s-2.67,1.81-2.67,3.68v7.08H16.69V16.25H21v2H21a4.67,4.67,0,0,1,4.21-2.31c4.51,0,5.34,3,5.34,6.82Z"/></g></svg>