<svg id="import" xmlns="http://www.w3.org/2000/svg" viewBox="0 0 40 40"><title>link</title><path d="M18.79,24.59a1.25,1.25,0,0,1-.88-.37l-2.8-2.8a4.91,4.91,0,0,1,0-6.95l9.21-9.21a4.91,4.91,0,0,1,6.95,0l2.8,2.8a4.92,4.92,0,0,1,0,6.94l-4.6,4.61a1.25,1.25,0,1,1-1.77-1.77l4.6-4.61a2.42,2.42,0,0,0,0-3.41L29.5,7a2.47,2.47,0,0,0-3.41,0l-9.21,9.21a2.41,2.41,0,0,0,0,3.41l2.8,2.8a1.25,1.25,0,0,1-.88,2.13Z"/><path d="M12.24,36.17a4.88,4.88,0,0,1-3.43-1.4L6,32a4.91,4.91,0,0,1-.08-6.94l4.55-4.66a1.25,1.25,0,0,1,1.79,1.75L7.68,26.8a2.41,2.41,0,0,0,0,3.41L10.55,33a2.51,2.51,0,0,0,1.71.69,2.4,2.4,0,0,0,1.7-.73l9.11-9.31a2.41,2.41,0,0,0,0-3.41L20.2,17.45a1.25,1.25,0,0,1,1.75-1.79l2.83,2.77a4.91,4.91,0,0,1,.07,6.95l-9.1,9.31a4.88,4.88,0,0,1-3.46,1.48Z"/></svg>