<svg id="import" xmlns="http://www.w3.org/2000/svg" viewBox="0 0 40 40"><title>lock</title><path d="M29.78,14.34H27.91v-3a7.91,7.91,0,0,0-15.83,0v3H10.22a3.31,3.31,0,0,0-3.31,3.31V33.26a3.31,3.31,0,0,0,3.31,3.31H29.78a3.31,3.31,0,0,0,3.31-3.31V17.64A3.31,3.31,0,0,0,29.78,14.34Zm-15.2-3a5.41,5.41,0,0,1,10.83,0v3H14.59Zm16,21.92a.81.81,0,0,1-.81.81H10.22a.81.81,0,0,1-.81-.81V17.64a.81.81,0,0,1,.81-.81H29.78a.81.81,0,0,1,.81.81Z"/><path d="M20,21.08a2.42,2.42,0,0,0-1.22,4.54v2.89a1.25,1.25,0,0,0,2.5,0v-3A2.43,2.43,0,0,0,20,21.08Z"/></svg>