<svg id="import" xmlns="http://www.w3.org/2000/svg" viewBox="0 0 40 40"><title>monitoring</title><path d="M21.64,28.09h-.06a1.15,1.15,0,0,1-1.05-.84L17.56,16l-2,6.62a1.15,1.15,0,0,1-1.09.79H8.4a1.15,1.15,0,0,1,0-2.3h5.23l2.93-9a1.19,1.19,0,0,1,1.12-.79,1.15,1.15,0,0,1,1.08.85l3.06,11.77L24.62,16a1.15,1.15,0,0,1,2.17.05l1.61,4.89h2.9a1.15,1.15,0,0,1,0,2.3H27.57a1.15,1.15,0,0,1-1.09-.79l-.86-3-2.9,7.94A1.15,1.15,0,0,1,21.64,28.09Z"/><path d="M32,33.59H8a4.78,4.78,0,0,1-4.77-4.77V11.18A4.78,4.78,0,0,1,8,6.41H32a4.78,4.78,0,0,1,4.77,4.77V28.82A4.78,4.78,0,0,1,32,33.59ZM8,8.91a2.28,2.28,0,0,0-2.27,2.27V28.82A2.28,2.28,0,0,0,8,31.09H32a2.28,2.28,0,0,0,2.27-2.27V11.18A2.28,2.28,0,0,0,32,8.91Z"/></svg>