<svg xmlns="http://www.w3.org/2000/svg" viewBox="0 0 40 40"><title>phone</title><g id="Layer_3" data-name="Layer 3"><path d="M26.83,1.79H13.17A3.82,3.82,0,0,0,9.35,5.61V34.39a3.82,3.82,0,0,0,3.81,3.81H26.83a3.82,3.82,0,0,0,3.81-3.81V5.61A3.82,3.82,0,0,0,26.83,1.79Zm-15,7.79H28.15V27.72H11.85Zm1.31-5.29H26.83a1.32,1.32,0,0,1,1.31,1.31V7.18H11.85V5.61A1.32,1.32,0,0,1,13.17,4.29ZM26.83,35.71H13.17a1.32,1.32,0,0,1-1.31-1.31V30.12H28.15v4.28A1.32,1.32,0,0,1,26.83,35.71Zm-4.95-2.78A1.88,1.88,0,1,1,20,31,1.88,1.88,0,0,1,21.88,32.93Z"/></g></svg>