<svg xmlns="http://www.w3.org/2000/svg" viewBox="0 0 40 40"><title>pin</title><g id="Layer_2" data-name="Layer 2"><path d="M31.81,25.46l-1.36-2.91a4.36,4.36,0,0,0-3.3-2.45V11h0a2.61,2.61,0,0,0,2.61-2.61v-2A2.61,2.61,0,0,0,27.2,3.77H12.8a2.61,2.61,0,0,0-2.61,2.61v2A2.61,2.61,0,0,0,12.8,11h0v9.14a4.36,4.36,0,0,0-3.3,2.45L8.19,25.46A2.46,2.46,0,0,0,10.42,29h8.09l.39,6.86a1.11,1.11,0,1,0,2.21,0L21.49,29h8.09a2.46,2.46,0,0,0,2.23-3.5ZM12.59,8.34v-2a.21.21,0,0,1,.21-.21H27.2a.21.21,0,0,1,.21.21v2a.21.21,0,0,1-.21.21H12.8A.21.21,0,0,1,12.59,8.34ZM24.65,11V20H15.35V11ZM10.45,26.52l1.36-2.91a1.85,1.85,0,0,1,1.67-1.06h13a1.85,1.85,0,0,1,1.67,1.06l1.36,2.85Z"/></g></svg>