<?xml version="1.0" encoding="utf-8"?>
<!-- Generator: Adobe Illustrator 25.4.1, SVG Export Plug-In . SVG Version: 6.00 Build 0)  -->
<svg version="1.1" id="Layer_1" xmlns="http://www.w3.org/2000/svg" xmlns:xlink="http://www.w3.org/1999/xlink" x="0px" y="0px"
	 viewBox="0 0 1024 1024" style="enable-background:new 0 0 1024 1024;" xml:space="preserve">
<g id="icomoon-ignore">
</g>
<path d="M908,868.5c-0.8-9.7-5.4-18.5-12.8-24.7l-58.1-48.9l57.3-48.2c15.4-13,17.4-36,4.4-51.4c-6.3-7.5-15.1-12-24.8-12.9
	c-9.7-0.8-19.2,2.2-26.6,8.5l-66.9,56.4l-67-56.4c-15.3-12.9-38.4-11-51.4,4.4c-12.9,15.3-11,38.4,4.4,51.4l57.4,48.2l-58.1,48.9
	c-15.4,13-17.4,36-4.4,51.4c7,8.3,17.1,13,27.9,13c8.6,0,17-3.1,23.5-8.6l67.7-57l67.7,57c6.5,5.5,14.9,8.5,23.5,8.5
	c10.8,0,21-4.7,27.9-13C905.8,887.7,908.8,878.3,908,868.5z"/>
<g>
	<path d="M758.1,359.2c5.2,5.2,9.3,11.3,12.6,18.4c3.2,7.1,4.8,14.5,4.8,22.3c0,7.7-1.6,15.2-4.8,22.3c-3.2,7.1-7.4,13.2-12.6,18.4
		L368,829.6c-3.2,3.2-6.9,6.1-11.1,8.7c-4.2,2.6-8.9,4.5-14,5.8l-172.3,50.3c-2.6,0.6-5.3,1.1-8.2,1.5c-2.9,0.3-5.7,0.5-8.2,0.5
		c-15.5,0-28.9-5.6-40.2-16.9C102.6,868.2,97,854.8,97,839.3c0-3.2,0.3-6.3,1-9.2c0.6-2.9,1.3-5.6,1.9-8.2l54.2-169.4
		c1.3-4.5,3.2-8.5,5.8-12.1c2.6-3.5,5.2-6.9,7.7-10.2l390.1-390.1c5.2-5.2,11.3-9.3,18.4-12.6c7.1-3.2,14.5-4.8,22.3-4.8
		c7.7,0,15.2,1.6,22.3,4.8c7.1,3.2,13.2,7.4,18.4,12.6L758.1,359.2z M326.4,790L208.3,671.9l-54.2,167.5L326.4,790z M718.4,399.9
		l-120-120L246.1,632.2l120,120L718.4,399.9z M893.6,232.4c4.5,4.5,8.1,9.8,10.6,16c2.6,6.1,3.9,12.4,3.9,18.9
		c0,6.5-1.3,12.7-3.9,18.9c-2.6,6.1-6.1,11.5-10.6,16l-62,61.9c-2.6,2.6-5.7,4.7-9.2,6.3c-3.6,1.6-7.3,2.4-11.1,2.4
		c-7.7,0-14.5-2.9-20.3-8.7c-5.8-5.8-8.7-12.6-8.7-20.3c0-3.9,0.8-7.6,2.4-11.1c1.6-3.5,3.7-6.6,6.3-9.2l57.1-56.1L733.9,153
		l-56.1,57.1c-2.6,3.2-5.8,5.7-9.7,7.3c-3.9,1.6-7.7,2.4-11.6,2.4c-7.7,0-14.4-2.9-19.8-8.7c-5.5-5.8-8.2-12.6-8.2-20.3
		c0-3.9,0.8-7.6,2.4-11.1c1.6-3.5,3.7-6.6,6.3-9.2l62.9-61.9c4.5-4.5,9.8-8.1,16-10.6c6.1-2.6,12.4-3.9,18.9-3.9
		c7.1,0,13.6,1.3,19.4,3.9c5.8,2.6,11,6.1,15.5,10.6L893.6,232.4z"/>
</g>
</svg>
