<svg id="import" xmlns="http://www.w3.org/2000/svg" viewBox="0 0 40 40"><title>reload</title><path d="M20,6.08H16.09l3.75-3.53A1.25,1.25,0,1,0,18.07.78L12.41,6.44a1.25,1.25,0,0,0,0,1.77l5.66,5.66a1.25,1.25,0,1,0,1.77-1.77L16.1,8.58H20A11.43,11.43,0,0,1,30.4,24.74a1.25,1.25,0,1,0,2.27,1A13.93,13.93,0,0,0,20,6.08Z"/><path d="M21.79,26.13A1.25,1.25,0,0,0,20,27.9l3.77,3.53H20A11.43,11.43,0,0,1,9.62,15.22a1.25,1.25,0,0,0-2.27-1A13.93,13.93,0,0,0,20,33.93h3.79L20,37.45a1.25,1.25,0,1,0,1.77,1.77l5.66-5.66a1.25,1.25,0,0,0,0-1.77Z"/></svg>