<!-- Generated by IcoMoon.io -->
<svg version="1.1" xmlns="http://www.w3.org/2000/svg" width="32" height="32" viewBox="0 0 32 32">
<title>repo-FedX</title>
<path d="M27.431 7.375v0c-0.041-0.806-0.434-1.509-1.025-1.972-0.703-0.591-1.519-1.066-2.406-1.388-2.306-0.825-4.906-1.294-7.613-1.294-0.137 0-0.272 0-0.409 0.003-0.094-0.003-0.231-0.003-0.369-0.003-2.706 0-5.306 0.466-7.719 1.325-0.781 0.291-1.597 0.766-2.306 1.359-0.581 0.453-0.975 1.15-1.019 1.944v17.275c0.041 0.8 0.431 1.503 1.025 1.956 0.703 0.594 1.519 1.075 2.406 1.403 2.306 0.825 4.903 1.294 7.606 1.294 0.137 0 0.275 0 0.413-0.003 0.097 0.003 0.234 0.003 0.375 0.003 2.706 0 5.3-0.469 7.709-1.325 0.784-0.297 1.597-0.775 2.306-1.375 0.578-0.456 0.959-1.159 0.988-1.953v-17.238l0.038-0.013zM6.912 6.888c0.534-0.438 1.162-0.791 1.847-1.019 2.078-0.725 4.425-1.134 6.872-1.134 0.131 0 0.259 0 0.391 0.003 0.091-0.003 0.222-0.003 0.353-0.003 2.444 0 4.791 0.412 6.978 1.169 0.563 0.2 1.178 0.55 1.716 0.994 0.153 0.109 0.275 0.278 0.331 0.475v0.006c0 0.112-0.128 0.287-0.344 0.481-0.528 0.438-1.144 0.791-1.816 1.028-2.084 0.728-4.438 1.144-6.891 1.144-0.125 0-0.247 0-0.372-0.003-0.088 0.003-0.209 0.003-0.334 0.003-2.45 0-4.803-0.416-6.997-1.175-0.575-0.197-1.203-0.547-1.75-0.994-0.206-0.191-0.334-0.369-0.334-0.478s0.134-0.297 0.35-0.497v0zM25.087 25.103c-0.534 0.438-1.163 0.791-1.847 1.019-2.084 0.728-4.438 1.144-6.887 1.144-0.125 0-0.25 0-0.375-0.003-0.088 0.003-0.213 0.003-0.338 0.003-2.45 0-4.803-0.416-6.994-1.175-0.563-0.2-1.181-0.55-1.716-0.994-0.206-0.191-0.334-0.369-0.334-0.481v-14.559c0.419 0.247 0.909 0.484 1.419 0.681 2.294 0.813 4.859 1.269 7.531 1.269 0.159 0 0.316-0.003 0.475-0.006 0.1 0.003 0.244 0.003 0.391 0.003 2.697 0 5.287-0.466 7.691-1.319 0.419-0.169 0.909-0.406 1.375-0.681l-0.047 14.584c0 0.141-0.128 0.316-0.344 0.516v0z"></path>
<path d="M20.353 23.309l-3.297-4.084 3.219-4.003c0.125-0.144 0.191-0.328 0.191-0.534 0-0.272-0.119-0.516-0.331-0.684-0.191-0.15-0.422-0.228-0.684-0.228-0.337 0-0.628 0.131-0.841 0.375l-0.006 0.006-2.794 3.5-2.787-3.491-0.012-0.012c-0.213-0.247-0.503-0.375-0.841-0.375-0.266 0-0.509 0.088-0.703 0.25-0.275 0.231-0.331 0.488-0.331 0.666 0 0.122 0.031 0.241 0.091 0.347 0.028 0.053 0.056 0.1 0.084 0.141l0.012 0.022 3.241 4.022-3.297 4.081c-0.119 0.15-0.181 0.328-0.181 0.509 0 0.275 0.128 0.525 0.359 0.7 0.2 0.153 0.428 0.228 0.678 0.228 0.344 0 0.634-0.134 0.834-0.391l2.856-3.563 2.837 3.563c0.2 0.256 0.491 0.391 0.834 0.391 0.281 0 0.522-0.084 0.722-0.25 0.275-0.231 0.331-0.497 0.331-0.678-0.003-0.178-0.066-0.356-0.184-0.506z"></path>
</svg>
