<svg xmlns="http://www.w3.org/2000/svg" viewBox="0 0 40 40"><title>repo-system</title><g id="Layer_2" data-name="Layer 2"><path d="M34.29,9.22h0A3.33,3.33,0,0,0,33,6.75,10,10,0,0,0,29.93,5,28.78,28.78,0,0,0,20,3.41,28.78,28.78,0,0,0,10.07,5,10,10,0,0,0,7,6.75,3.33,3.33,0,0,0,5.71,9.2h0V30.78A3.27,3.27,0,0,0,7,33.23,10.06,10.06,0,0,0,10.07,35,28.74,28.74,0,0,0,20,36.59,28.73,28.73,0,0,0,29.93,35,10.05,10.05,0,0,0,33,33.23a3.27,3.27,0,0,0,1.25-2.46V9.23ZM8.64,8.61A7.4,7.4,0,0,1,11,7.32a26.65,26.65,0,0,1,9-1.4,26.65,26.65,0,0,1,9,1.4,7.4,7.4,0,0,1,2.32,1.29,1.12,1.12,0,0,1,.43.61h0c0,.14-.16.36-.43.6A7.41,7.41,0,0,1,29,11.12a26.62,26.62,0,0,1-9,1.41,26.61,26.61,0,0,1-9-1.41A7.41,7.41,0,0,1,8.64,9.83c-.27-.25-.43-.47-.43-.61S8.37,8.86,8.64,8.61ZM31.36,31.38A7.4,7.4,0,0,1,29,32.67a26.6,26.6,0,0,1-9,1.41,26.6,26.6,0,0,1-9-1.41,7.41,7.41,0,0,1-2.32-1.29c-.27-.25-.43-.47-.43-.61V12.57a12.59,12.59,0,0,0,1.86.88A28.74,28.74,0,0,0,20,15a28.75,28.75,0,0,0,9.93-1.58,12.61,12.61,0,0,0,1.86-.88v18.2C31.79,30.91,31.63,31.13,31.36,31.38Z"/><path d="M24.32,16.17A5.5,5.5,0,0,0,20,17.51,5.5,5.5,0,0,0,10.89,21a5.43,5.43,0,0,0,.9,3.67c2.21,3.83,7.33,7.75,7.54,7.92a1.1,1.1,0,0,0,1.33,0c.22-.17,5.33-4.09,7.49-7.84a5.49,5.49,0,0,0-3.84-8.59ZM13.08,21.25a3.3,3.3,0,0,1,2.87-2.9l.4,0a3.3,3.3,0,0,1,2.74,1.45,1.14,1.14,0,0,0,1.82,0,3.3,3.3,0,0,1,6,1.47,3.35,3.35,0,0,1-.62,2.33c-.18.32-.4.64-.63,1H24l-1-2.3a.8.8,0,0,0-.72-.47.84.84,0,0,0-.73.45l-1.63,3.33-1.79-5a.8.8,0,0,0-.75-.53h0a.8.8,0,0,0-.75.53l-1.42,4h-.76a13.05,13.05,0,0,1-.73-1.11A3.26,3.26,0,0,1,13.08,21.25ZM20,30.32a40,40,0,0,1-4.32-4.1h0a.8.8,0,0,0,.75-.53l.87-2.45L19,27.87a.8.8,0,0,0,.71.53h0a.8.8,0,0,0,.72-.45l1.71-3.49.55,1.22a.8.8,0,0,0,.73.47h.93A39.91,39.91,0,0,1,20,30.32Z"/></g></svg>