<?xml version="1.0" encoding="utf-8"?>
<!-- Generator: Adobe Illustrator 25.4.1, SVG Export Plug-In . SVG Version: 6.00 Build 0)  -->
<svg version="1.1" id="Layer_1" xmlns="http://www.w3.org/2000/svg" xmlns:xlink="http://www.w3.org/1999/xlink" x="0px" y="0px"
	 viewBox="0 0 1024 1024" style="enable-background:new 0 0 1024 1024;" xml:space="preserve">
<g id="icomoon-ignore">
</g>
<g>
	<path d="M814.6,412.8l-0.8,375.4c0,2-1,4.5-3,7.5s-4.7,5.8-8,8.5c-8.7,7.3-18,13.6-27.9,19c-10,5.3-20.3,10-30.9,14
		c-33.3,11.3-68.5,20.3-105.7,26.9c-55.2,9.7-134.7,10-136.7,10c-39.3,0-77.7-3.3-115.2-10c-37.6-6.6-73.7-16-108.2-27.9
		c-9.3-3.3-18.6-7.6-27.9-13c-9.3-5.3-18.3-11.6-26.9-19c-3.3-3.3-6-6.3-8-9s-3-4.6-3-6v-465c6.6,4,13.8,7.8,21.4,11.5
		c7.6,3.7,15.8,7.2,24.4,10.5c36.6,12.6,75,22.4,115.2,29.4c27.4,4.8,55.5,7.9,84.3,9.4v-63.1c-24.1-1.5-47.9-4.2-71.3-8.1
		c-37.6-6.3-73.7-15.8-108.2-28.4c-9.3-3.3-18.8-7.6-28.4-13c-9.6-5.3-18.8-11.6-27.4-19c-3.3-2.6-6-5.3-8-8s-3-5-3-7s1-4.3,3-7
		c2-2.6,4.6-5.6,8-9c8.6-6.6,18-12.8,27.9-18.5c10-5.6,20.3-10.1,30.9-13.5c33.2-12,68.3-21.1,105.3-27.4c36.9-6.3,75-9.5,114.2-9.5
		c2,0,21.9,0,23.9,0c31,0,61.3,2.1,91,6.2V95.4c-29.8-3.7-60.2-5.6-91-5.6c-2,0-4,0-6,0s-4.3,0-7,0c-1.3,0-3,0-5,0s-4,0-6,0
		c-43.2,0-85.5,3.7-126.7,11s-81.2,18-119.7,31.9c-12.6,4.7-25.3,10.6-37.9,18c-12.6,7.3-24.6,15.6-35.9,24.9
		c-9.3,7.3-17,16.3-22.9,26.9c-6,10.6-9.3,22.3-10,34.9v1v550.7c0.7,12.6,4,24.4,10,35.4s13.6,20.1,22.9,27.4
		c11.3,9.3,23.4,17.8,36.4,25.4c13,7.7,26.4,13.8,40.4,18.5c36.6,13.3,75.5,23.6,116.7,30.9c41.2,7.3,83.1,11,125.7,11
		c2.7,0,5,0,7,0s4.3,0,7,0c1.3,0,3,0,5,0s4.3,0,7,0c43.2,0,85.5-3.6,126.7-11c41.2-7.3,80.8-18,118.7-31.9
		c12.6-4.6,25.3-10.6,37.9-18c12.6-7.3,24.6-16,35.9-25.9c9.3-7.3,16.8-16.3,22.4-26.9c5.6-10.6,8.8-22.3,9.5-34.9V412.8H814.6z"/>
</g>
<g>
	<path d="M516.9,309.1c0-15.2,4.9-30.6,14.7-46.3c9.7-15.6,24-28.6,42.8-38.8c18.8-10.2,40.6-15.4,65.6-15.4
		c23.2,0,43.7,4.3,61.5,12.9c17.8,8.6,31.5,20.3,41.2,34.9c9.7,14.8,14.6,30.8,14.6,48c0,13.5-2.7,25.5-8.3,35.7
		c-5.5,10.3-12.1,19.2-19.8,26.6c-7.6,7.5-21.3,20-41,37.6c-5.5,5-9.8,9.3-13.1,13.1c-3.3,3.8-5.8,7.2-7.3,10.4
		c-1.6,3.1-2.8,6.3-3.8,9.4c-0.9,3.1-2.2,8.6-3.9,16.5c-3,16.7-12.6,25-28.6,25c-8.3,0-15.3-2.7-21.1-8.2
		c-5.7-5.5-8.5-13.5-8.5-24.3c0-13.5,2.1-25.2,6.3-34.9c4.1-9.8,9.7-18.6,16.6-25.9c6.9-7.5,16.2-16.3,27.8-26.6
		c10.2-9,17.6-15.7,22.2-20.3s8.4-9.6,11.5-15.3c3.1-5.5,4.7-11.6,4.7-18.2c0-12.9-4.7-23.6-14.3-32.4c-9.5-8.8-21.9-13.2-36.8-13.2
		c-17.6,0-30.6,4.4-38.9,13.4c-8.3,8.9-15.4,22-21.2,39.3c-5.5,18.1-15.8,27.2-31,27.2c-9,0-16.5-3.1-22.7-9.5
		C520,323.4,516.9,316.5,516.9,309.1z M634.3,572.6c-9.7,0-18.4-3.1-25.6-9.5c-7.3-6.3-11-15.2-11-26.6c0-10.1,3.6-18.6,10.5-25.5
		c7.1-6.9,15.7-10.4,25.9-10.4c10.1,0,18.6,3.5,25.5,10.4s10.4,15.4,10.4,25.5c0,11.2-3.6,20.1-10.8,26.4
		C651.9,569.3,643.7,572.6,634.3,572.6z"/>
</g>
</svg>
