<?xml version="1.0" encoding="utf-8"?>
<!-- Generator: Adobe Illustrator 25.4.1, SVG Export Plug-In . SVG Version: 6.00 Build 0)  -->
<svg version="1.1" id="Layer_1" xmlns="http://www.w3.org/2000/svg" xmlns:xlink="http://www.w3.org/1999/xlink" x="0px" y="0px"
	 viewBox="0 0 1024 1024" style="enable-background:new 0 0 1024 1024;" xml:space="preserve">
<g id="icomoon-ignore">
</g>
<path d="M761.4,289.8L761.4,289.8c-6.6-16.7-15.9-31.3-27.7-43.3c-11.8-12.1-26.3-21.5-43.1-28.1c-16.7-6.6-35.3-9.9-55.3-9.9
	c-20.1,0-38.7,3.3-55.3,9.9c-16.8,6.6-31.3,16.1-43.1,28.1c-11.8,12-21.1,26.6-27.7,43.3c-6.6,16.6-9.9,35.3-9.9,55.3V436
	c0,20.1,3.3,38.7,9.9,55.3c6.6,16.7,15.9,31.3,27.7,43.3c11.8,12.1,26.3,21.6,43.1,28.1c16.7,6.6,35.3,9.9,55.3,9.9
	s38.7-3.3,55.3-9.9c16.7-6.6,31.2-16.1,43.1-28.1c11.8-12,21.1-26.6,27.7-43.3c6.6-16.7,9.9-35.3,9.9-55.3v-90.9
	C771.3,325.1,768,306.5,761.4,289.8z M712,341.8v97.6c0,24.5-6.7,43.7-19.9,57.2c-13.2,13.4-32.3,20.2-56.8,20.2
	s-43.6-6.8-56.8-20.2c-13.2-13.4-19.9-32.7-19.9-57.2v-97.6c0-24.5,6.7-43.7,19.9-57.2c13.2-13.4,32.3-20.2,56.8-20.2
	s43.6,6.8,56.8,20.2C705.3,298.1,712,317.3,712,341.8z"/>
<g>
	<path d="M814.5,411l-0.8,375.4c0,2-1,4.5-3,7.5s-4.7,5.8-8,8.5c-8.7,7.3-18,13.6-27.9,19c-10,5.3-20.3,10-30.9,14
		c-33.3,11.3-68.5,20.3-105.7,26.9c-55.2,9.7-134.7,10-136.7,10c-39.3,0-77.7-3.3-115.2-10c-37.6-6.6-73.7-16-108.2-27.9
		c-9.3-3.3-18.6-7.6-27.9-13c-9.3-5.3-18.3-11.6-26.9-19c-3.3-3.3-6-6.3-8-9c-2-2.7-3-4.6-3-6v-465c6.6,4,13.8,7.8,21.4,11.5
		c7.6,3.7,15.8,7.2,24.4,10.5c36.6,12.6,75,22.4,115.2,29.4c27.4,4.8,55.5,7.9,84.3,9.4v-63.1c-24.1-1.5-47.9-4.2-71.3-8.1
		c-37.6-6.3-73.7-15.8-108.2-28.4c-9.3-3.3-18.8-7.6-28.4-13c-9.6-5.3-18.8-11.6-27.4-19c-3.3-2.6-6-5.3-8-8s-3-5-3-7s1-4.3,3-7
		c2-2.6,4.6-5.6,8-9c8.6-6.6,18-12.8,27.9-18.5c10-5.6,20.3-10.1,30.9-13.5c33.2-12,68.3-21.1,105.3-27.4c36.9-6.3,75-9.5,114.2-9.5
		c2,0,21.9,0,23.9,0c31,0,61.3,2.1,91,6.2V93.6c-29.8-3.7-60.2-5.6-91-5.6c-2,0-4,0-6,0s-4.3,0-7,0c-1.3,0-3,0-5,0s-4,0-6,0
		c-43.2,0-85.5,3.7-126.7,11s-81.2,18-119.7,31.9c-12.6,4.7-25.3,10.6-37.9,18c-12.6,7.3-24.6,15.6-35.9,24.9
		c-9.3,7.3-17,16.3-22.9,26.9c-6,10.6-9.3,22.3-10,34.9v1v550.7c0.7,12.6,4,24.4,10,35.4s13.6,20.1,22.9,27.4
		c11.3,9.3,23.4,17.8,36.4,25.4c13,7.7,26.4,13.8,40.4,18.5c36.6,13.3,75.5,23.6,116.7,30.9c41.2,7.3,83.1,11,125.7,11
		c2.7,0,5,0,7,0s4.3,0,7,0c1.3,0,3,0,5,0s4.3,0,7,0c43.2,0,85.5-3.6,126.7-11c41.2-7.3,80.8-18,118.7-31.9
		c12.6-4.6,25.3-10.6,37.9-18c12.6-7.3,24.6-16,35.9-25.9c9.3-7.3,16.8-16.3,22.4-26.9c5.6-10.6,8.8-22.3,9.5-34.9V411H814.5z"/>
</g>
</svg>
