<?xml version="1.0" encoding="utf-8"?>
<!-- Generator: Adobe Illustrator 24.3.0, SVG Export Plug-In . SVG Version: 6.00 Build 0)  -->
<svg version="1.1" id="Layer_1" xmlns="http://www.w3.org/2000/svg" xmlns:xlink="http://www.w3.org/1999/xlink" x="0px" y="0px"
	 viewBox="0 0 1024 1024" style="enable-background:new 0 0 1024 1024;" xml:space="preserve">
<g id="icomoon-ignore">
</g>
<path d="M877.8,236L877.8,236c-1.3-25.8-13.9-48.3-32.8-63.1c-22.5-18.9-48.6-34.1-77-44.4c-73.8-26.4-157-41.4-243.6-41.4
	c-4.4,0-8.7,0-13.1,0.1c-3-0.1-7.4-0.1-11.8-0.1c-86.6,0-169.8,14.9-247,42.4c-25,9.3-51.1,24.5-73.8,43.5
	c-18.6,14.5-31.2,36.8-32.6,62.2l0,0.2V788c1.3,25.6,13.8,48.1,32.8,62.6c22.5,19,48.6,34.4,77,44.9
	c73.8,26.4,156.9,41.4,243.4,41.4c4.4,0,8.8,0,13.2-0.1c3.1,0.1,7.5,0.1,12,0.1c86.6,0,169.6-15,246.7-42.4
	c25.1-9.5,51.1-24.8,73.8-44c18.5-14.6,30.7-37.1,31.6-62.5l0-551.6L877.8,236z M221.2,220.4c17.1-14,37.2-25.3,59.1-32.6
	c66.5-23.2,141.6-36.3,219.9-36.3c4.2,0,8.3,0,12.5,0.1c2.9-0.1,7.1-0.1,11.3-0.1c78.2,0,153.3,13.2,223.3,37.4
	c18,6.4,37.7,17.6,54.9,31.8c4.9,3.5,8.8,8.9,10.6,15.2l0,0.2c0,3.6-4.1,9.2-11,15.4c-16.9,14-36.6,25.3-58.1,32.9
	c-66.7,23.3-142,36.6-220.5,36.6c-4,0-7.9,0-11.9-0.1c-2.8,0.1-6.7,0.1-10.7,0.1c-78.4,0-153.7-13.3-223.9-37.6
	c-18.4-6.3-38.5-17.5-56-31.8c-6.6-6.1-10.7-11.8-10.7-15.3S214.3,226.8,221.2,220.4L221.2,220.4z M802.8,803.3
	c-17.1,14-37.2,25.3-59.1,32.6c-66.7,23.3-142,36.6-220.4,36.6c-4,0-8,0-12-0.1c-2.8,0.1-6.8,0.1-10.8,0.1
	c-78.4,0-153.7-13.3-223.8-37.6c-18-6.4-37.8-17.6-54.9-31.8c-6.6-6.1-10.7-11.8-10.7-15.4V321.8c13.4,7.9,29.1,15.5,45.4,21.8
	c73.4,26,155.5,40.6,241,40.6c5.1,0,10.1-0.1,15.2-0.2c3.2,0.1,7.8,0.1,12.5,0.1c86.3,0,169.2-14.9,246.1-42.2
	c13.4-5.4,29.1-13,44-21.8l-1.5,466.7C813.8,791.3,809.7,796.9,802.8,803.3L802.8,803.3z"/>
<path d="M649.5,446.6l-0.5-0.1c-2.9-0.5-5.9-1-9.1-1c-11.9,0-20.5,5.7-24.2,16l-90.1,245.9c-4.4,12.4-8.6,26.7-12.4,40.4
	c-3.7-13.7-7.6-27.9-12-40l-90.5-246.7c-3.6-10-12.7-16-24.2-16c-3.2,0-6.4,0.5-9.6,1.5c-12.1,2.9-20.5,12.4-20.5,23.2
	c0,3,0.6,6.2,1.7,8.8l119.3,307.9c6.1,15.9,17.8,23.6,35.8,23.6c17.6,0,29.2-7.5,35.3-23.1l119.7-309.1c1.2-2.8,1.7-5.6,1.7-8.5
	C670,459,662,450,649.5,446.6z"/>
</svg>
