<svg xmlns="http://www.w3.org/2000/svg" viewBox="0 0 40 40"><title>repo-worker</title><g id="Layer_2" data-name="Layer 2"><path d="M34.29,9.22h0A3.33,3.33,0,0,0,33,6.75,10,10,0,0,0,29.93,5,28.78,28.78,0,0,0,20,3.41,28.78,28.78,0,0,0,10.07,5,10,10,0,0,0,7,6.75,3.33,3.33,0,0,0,5.71,9.2h0V30.78A3.27,3.27,0,0,0,7,33.23,10.06,10.06,0,0,0,10.07,35,28.74,28.74,0,0,0,20,36.59,28.73,28.73,0,0,0,29.93,35,10.05,10.05,0,0,0,33,33.23a3.27,3.27,0,0,0,1.25-2.46V9.23ZM8.64,8.61A7.4,7.4,0,0,1,11,7.32a26.65,26.65,0,0,1,9-1.4,26.65,26.65,0,0,1,9,1.4,7.4,7.4,0,0,1,2.32,1.29,1.12,1.12,0,0,1,.43.61h0c0,.14-.16.36-.43.6A7.41,7.41,0,0,1,29,11.12a26.62,26.62,0,0,1-9,1.41,26.61,26.61,0,0,1-9-1.41A7.41,7.41,0,0,1,8.64,9.83c-.27-.25-.43-.47-.43-.61S8.37,8.86,8.64,8.61ZM31.36,31.38A7.4,7.4,0,0,1,29,32.67a26.6,26.6,0,0,1-9,1.41,26.6,26.6,0,0,1-9-1.41,7.41,7.41,0,0,1-2.32-1.29c-.27-.25-.43-.47-.43-.61V12.57a12.59,12.59,0,0,0,1.86.88A28.74,28.74,0,0,0,20,15a28.75,28.75,0,0,0,9.93-1.58,12.61,12.61,0,0,0,1.86-.88v18.2C31.79,30.91,31.63,31.13,31.36,31.38Z"/><path d="M25.47,17.21a1,1,0,0,0-.38.56L23,26.15l-2-8.29a1,1,0,0,0-.4-.62,1.15,1.15,0,0,0-1.34,0,1,1,0,0,0-.4.61l-2,8.3-2.06-8.37a1,1,0,0,0-.38-.56,1,1,0,0,0-1.29.1A.94.94,0,0,0,13,18a1.07,1.07,0,0,0,0,.27l2.92,11.69a1.1,1.1,0,0,0,.39.59,1.12,1.12,0,0,0,1.35,0,1,1,0,0,0,.39-.6l2-8.25,2,8.25a1,1,0,0,0,.39.6,1.12,1.12,0,0,0,1.35,0,1.12,1.12,0,0,0,.4-.6L27,18.24A1.06,1.06,0,0,0,27,18a.93.93,0,0,0-.3-.69A1,1,0,0,0,25.47,17.21Z"/></g></svg>