<svg xmlns="http://www.w3.org/2000/svg" viewBox="0 0 40 40"><title>repo-master-mute</title><g id="Layer_2" data-name="Layer 2"><path d="M34.29,22.52V9.23h0A3.33,3.33,0,0,0,33,6.75,10,10,0,0,0,29.93,5,28.78,28.78,0,0,0,20,3.41,28.78,28.78,0,0,0,10.07,5,10,10,0,0,0,7,6.75,3.33,3.33,0,0,0,5.71,9.2h0V30.78A3.27,3.27,0,0,0,7,33.23,10.06,10.06,0,0,0,10.07,35,28.74,28.74,0,0,0,20,36.59a35,35,0,0,0,3.92-.24A8.82,8.82,0,1,0,34.29,22.52ZM8.64,8.61A7.4,7.4,0,0,1,11,7.32a26.65,26.65,0,0,1,9-1.4,26.65,26.65,0,0,1,9,1.4,7.4,7.4,0,0,1,2.32,1.29,1.12,1.12,0,0,1,.43.61h0c0,.14-.16.36-.43.6A7.41,7.41,0,0,1,29,11.12a26.62,26.62,0,0,1-9,1.41,26.61,26.61,0,0,1-9-1.41A7.41,7.41,0,0,1,8.64,9.83c-.27-.25-.43-.47-.43-.61S8.37,8.86,8.64,8.61ZM20,34.09a26.6,26.6,0,0,1-9-1.41,7.41,7.41,0,0,1-2.32-1.29c-.27-.25-.43-.47-.43-.61V12.57a12.59,12.59,0,0,0,1.86.88A28.74,28.74,0,0,0,20,15a28.75,28.75,0,0,0,9.93-1.58,12.61,12.61,0,0,0,1.86-.88v9.19a8.64,8.64,0,0,0-6.21,1.41v-5a1.11,1.11,0,0,0-.31-.78,1.06,1.06,0,0,0-.78-.33,1.09,1.09,0,0,0-1,.63L20,24.37l-3.49-6.73a1.09,1.09,0,0,0-1-.63,1.06,1.06,0,0,0-.79.33,1.11,1.11,0,0,0-.31.78V29.74a1,1,0,0,0,.3.71,1,1,0,0,0,1.41,0,1,1,0,0,0,.3-.71v-8l2.58,5a1.1,1.1,0,0,0,2,0l2.59-5v3.31A8.78,8.78,0,0,0,22.41,34C21.61,34,20.81,34.09,20,34.09ZM30.51,37A6.53,6.53,0,1,1,37,30.49,6.54,6.54,0,0,1,30.51,37Z"/><path d="M29.62,27.49,28,29.07a.13.13,0,0,1-.09,0H26.3a.31.31,0,0,0-.31.31V31.8a.31.31,0,0,0,.31.31h1.64a.13.13,0,0,1,.09,0l1.58,1.58a.52.52,0,0,0,.88-.37V27.85A.52.52,0,0,0,29.62,27.49Z"/><path d="M34.75,28.9a.5.5,0,0,0-.71,0L33,30,31.86,28.9a.5.5,0,0,0-.71.71l1.09,1.09-1.09,1.09a.5.5,0,1,0,.71.71L33,31.4,34,32.49a.5.5,0,0,0,.71-.71l-1.09-1.09,1.09-1.09A.5.5,0,0,0,34.75,28.9Z"/></g></svg>