<svg xmlns="http://www.w3.org/2000/svg" viewBox="0 0 40 40"><title>repo-standart</title><g id="Layer_2" data-name="Layer 2"><path d="M34.29,9.22h0A3.33,3.33,0,0,0,33,6.75,10,10,0,0,0,29.93,5,28.78,28.78,0,0,0,20,3.41,28.78,28.78,0,0,0,10.07,5,10,10,0,0,0,7,6.75,3.33,3.33,0,0,0,5.71,9.2h0V30.78A3.27,3.27,0,0,0,7,33.23,10.06,10.06,0,0,0,10.07,35,28.74,28.74,0,0,0,20,36.59,28.73,28.73,0,0,0,29.93,35,10.05,10.05,0,0,0,33,33.23a3.27,3.27,0,0,0,1.25-2.46V9.23ZM8.64,8.61A7.4,7.4,0,0,1,11,7.32a26.65,26.65,0,0,1,9-1.4,26.65,26.65,0,0,1,9,1.4,7.4,7.4,0,0,1,2.32,1.29,1.12,1.12,0,0,1,.43.61h0c0,.14-.16.36-.43.6A7.41,7.41,0,0,1,29,11.12a26.62,26.62,0,0,1-9,1.41,26.61,26.61,0,0,1-9-1.41A7.41,7.41,0,0,1,8.64,9.83c-.27-.25-.43-.47-.43-.61S8.37,8.86,8.64,8.61ZM31.36,31.38A7.4,7.4,0,0,1,29,32.67a26.6,26.6,0,0,1-9,1.41,26.6,26.6,0,0,1-9-1.41,7.41,7.41,0,0,1-2.32-1.29c-.27-.25-.43-.47-.43-.61V12.57a12.59,12.59,0,0,0,1.86.88A28.74,28.74,0,0,0,20,15a28.75,28.75,0,0,0,9.93-1.58,12.61,12.61,0,0,0,1.86-.88v18.2C31.79,30.91,31.63,31.13,31.36,31.38Z"/><path d="M23.12,24.49a4.34,4.34,0,0,0-.92-.76c-.33-.2-.67-.39-1-.57l-2-1a2.77,2.77,0,0,1-1-.72,1.42,1.42,0,0,1-.28-.91,1.41,1.41,0,0,1,.65-1.26,2,2,0,0,1,.69-.29,4.37,4.37,0,0,1,2,.05,7.4,7.4,0,0,1,1.05.36,1,1,0,0,0,1.12-.2,1,1,0,0,0,.29-.68,1,1,0,0,0-.16-.56.94.94,0,0,0-.47-.37,10.67,10.67,0,0,0-1.36-.44,6.39,6.39,0,0,0-3.25.05,4.1,4.1,0,0,0-1.32.68A3.42,3.42,0,0,0,16.34,19a3.19,3.19,0,0,0-.35,1.5,4.07,4.07,0,0,0,.17,1.24,3.08,3.08,0,0,0,.49,1,3.51,3.51,0,0,0,.75.72,6.21,6.21,0,0,0,1,.54l2,1c.23.11.45.24.67.38a2.56,2.56,0,0,1,.52.44,2.17,2.17,0,0,1,.36.54,1.49,1.49,0,0,1,.13.63,1.8,1.8,0,0,1-.52,1.4,2.45,2.45,0,0,1-1.7.49,4.89,4.89,0,0,1-1.22-.15,6.59,6.59,0,0,1-1.17-.42,1,1,0,0,0-1.11.18.94.94,0,0,0-.3.69,1,1,0,0,0,.59.9,10.18,10.18,0,0,0,1.54.51,7,7,0,0,0,1.66.2,5.2,5.2,0,0,0,1.59-.24,4,4,0,0,0,1.35-.73,3.6,3.6,0,0,0,.93-1.19A3.7,3.7,0,0,0,24,26.93a3.78,3.78,0,0,0-.24-1.4A3.48,3.48,0,0,0,23.12,24.49Z"/></g></svg>