<svg xmlns="http://www.w3.org/2000/svg" viewBox="0 0 40 40"><title>repo-master-ro-mute</title><g id="Layer_2" data-name="Layer 2"><path d="M34.29,22.23V17.69a8.82,8.82,0,1,0-10.2-14A35.1,35.1,0,0,0,20,3.41,28.78,28.78,0,0,0,10.07,5,10,10,0,0,0,7,6.75,3.33,3.33,0,0,0,5.71,9.2h0V30.78A3.27,3.27,0,0,0,7,33.23,10.06,10.06,0,0,0,10.07,35,28.74,28.74,0,0,0,20,36.59a35,35,0,0,0,4.18-.25A8.82,8.82,0,1,0,34.29,22.23Zm-3.78-19A6.53,6.53,0,1,1,24,9.71,6.54,6.54,0,0,1,30.51,3.18ZM8.64,8.61A7.4,7.4,0,0,1,11,7.32a26.65,26.65,0,0,1,9-1.4c.85,0,1.68,0,2.5.1a8.73,8.73,0,0,0-.38,6.44c-.7,0-1.4.08-2.12.08a26.61,26.61,0,0,1-9-1.41A7.41,7.41,0,0,1,8.64,9.83c-.27-.25-.43-.47-.43-.61S8.37,8.86,8.64,8.61ZM20,34.09a26.6,26.6,0,0,1-9-1.41,7.41,7.41,0,0,1-2.32-1.29c-.27-.25-.43-.47-.43-.61V12.57a12.59,12.59,0,0,0,1.86.88A28.74,28.74,0,0,0,20,15c1.15,0,2.26-.07,3.35-.18a8.69,8.69,0,0,0,8.44,3.58v3a8.64,8.64,0,0,0-6.21,1.41V18.13a1.11,1.11,0,0,0-.31-.78,1.06,1.06,0,0,0-.78-.33,1.09,1.09,0,0,0-1,.63L20,24.37l-3.49-6.73a1.09,1.09,0,0,0-1-.63,1.06,1.06,0,0,0-.79.33,1.11,1.11,0,0,0-.31.78V29.74a1,1,0,0,0,.3.71,1,1,0,0,0,1.41,0,1,1,0,0,0,.3-.71v-8l2.58,5a1.1,1.1,0,0,0,2,0l2.59-5v3a8.75,8.75,0,0,0-1,9.21C21.71,34,20.86,34.09,20,34.09Zm10.51,2.65A6.53,6.53,0,1,1,37,30.2,6.54,6.54,0,0,1,30.51,36.73Z"/><path d="M29.62,27.2,28,28.78a.13.13,0,0,1-.09,0H26.3a.31.31,0,0,0-.31.31v2.38a.31.31,0,0,0,.31.31h1.64a.13.13,0,0,1,.09,0l1.58,1.58a.52.52,0,0,0,.88-.37V27.56A.52.52,0,0,0,29.62,27.2Z"/><path d="M34.75,28.61a.5.5,0,0,0-.71,0L33,29.69l-1.09-1.09a.5.5,0,0,0-.71.71l1.09,1.09-1.09,1.09a.5.5,0,1,0,.71.71L33,31.11,34,32.2a.5.5,0,0,0,.71-.71L33.66,30.4l1.09-1.09A.5.5,0,0,0,34.75,28.61Z"/><path d="M30.87,11.71a.5.5,0,0,0,.71,0l1.09-1.09,1.09,1.09a.5.5,0,0,0,.71-.71L33.37,9.91l1.09-1.09a.5.5,0,0,0-.71-.71L32.66,9.21,31.57,8.12a.5.5,0,0,0-.71.71L32,9.91,30.87,11A.5.5,0,0,0,30.87,11.71Z"/><rect x="27.56" y="7.93" width="2.14" height="4.21"/><path d="M28.53,14a.13.13,0,0,0,.18,0l1-1.4H27.56Z"/><path d="M29.69,6.6a.53.53,0,0,0-.53-.53H28.08a.53.53,0,0,0-.53.53v.74h2.13Z"/></g></svg>