<svg xmlns="http://www.w3.org/2000/svg" viewBox="0 0 40 40"><title>sameas-off</title><g id="Layer_2" data-name="Layer 2"><path d="M29.66,20.57a7.76,7.76,0,0,0-3.09.64l-2.11-3.65a7.81,7.81,0,1,0-8.91,0l-2.11,3.65a7.8,7.8,0,1,0,4.71,7.22h3.71a7.8,7.8,0,1,0,7.8-7.86ZM20,5.65a5.51,5.51,0,1,1-5.5,5.51A5.51,5.51,0,0,1,20,5.65ZM10.34,33.88a5.5,5.5,0,1,1,5.5-5.5A5.51,5.51,0,0,1,10.34,33.88Zm11.84-7.75H17.82a7.82,7.82,0,0,0-2.43-3.7l2.22-3.84a7.75,7.75,0,0,0,4.78,0l2.22,3.84A7.82,7.82,0,0,0,22.18,26.13Zm7.47,7.75a5.5,5.5,0,1,1,5.5-5.5A5.51,5.51,0,0,1,29.66,33.88Z"/></g></svg>