<svg xmlns="http://www.w3.org/2000/svg" viewBox="0 0 40 40"><title>sameas-on</title><g id="Layer_2" data-name="Layer 2"><circle cx="33.52" cy="33.84" r="1.49" transform="translate(-7.21 58.54) rotate(-76.52)"/><circle cx="30.94" cy="21.9" r="1.49" transform="translate(2.43 46.88) rotate(-76.51)"/><circle cx="36.22" cy="29.65" r="1.49" transform="translate(-1.06 57.96) rotate(-76.52)"/><circle cx="27.97" cy="34.84" r="1.49" transform="translate(-12.43 53.92) rotate(-76.51)"/><circle cx="35.2" cy="24.85" r="1.49" transform="translate(2.83 53.28) rotate(-76.52)"/><circle cx="24.04" cy="31.98" r="1.49" transform="translate(-12.67 47.9) rotate(-76.52)"/><path d="M27.14,22.42,23.51,16.1a1.25,1.25,0,0,0-2.17,1.25L25,23.66a1.25,1.25,0,0,0,2.17-1.25Z"/><path d="M23.24,28.44a1.25,1.25,0,0,0,0-2.5h-5.7a7.82,7.82,0,0,0-2.33-3.54l3-5.22a1.25,1.25,0,0,0-2.16-1.26l-3,5.15a7.8,7.8,0,1,0,4.8,7.36ZM10.1,33.79a5.5,5.5,0,1,1,5.5-5.5A5.51,5.51,0,0,1,10.1,33.79Z"/><circle cx="17.6" cy="4.68" r="1.49" transform="translate(5.6 18.39) rotate(-63.7)"/><circle cx="13.79" cy="8.28" r="1.49" transform="translate(0.26 16.97) rotate(-63.7)"/><circle cx="22.63" cy="4.88" r="1.49" transform="translate(8.23 23.01) rotate(-63.7)"/><circle cx="26.06" cy="13.61" r="1.49" transform="translate(2.31 30.94) rotate(-63.7)"/><circle cx="26.13" cy="8.7" r="1.49" transform="translate(6.75 28.27) rotate(-63.7)"/><circle cx="13.67" cy="13.18" r="1.49" transform="translate(-4.21 19.59) rotate(-63.7)"/></g></svg>