<svg xmlns="http://www.w3.org/2000/svg" viewBox="0 0 40 40"><title>save</title><g id="Layer_2" data-name="Layer 2"><path d="M27.5,4.38H8.82A4.45,4.45,0,0,0,4.38,8.82V31.18a4.45,4.45,0,0,0,4.44,4.44H31.18a4.45,4.45,0,0,0,4.44-4.44V12.5ZM11.89,6.88h6v4.78a1.2,1.2,0,0,0,2.4,0V6.88h3.37v5.68a1.29,1.29,0,0,1-1.31,1.27H13.2a1.29,1.29,0,0,1-1.31-1.27ZM28.34,33.12H11.94V26.25A1.94,1.94,0,0,1,14,24.54h12.2a1.94,1.94,0,0,1,2.1,1.71Zm4.78-1.94a2,2,0,0,1-1.94,1.94h-.34V26.25A4.42,4.42,0,0,0,26.24,22H14a4.42,4.42,0,0,0-4.6,4.21v6.86H8.82a2,2,0,0,1-1.94-1.94V8.82A2,2,0,0,1,8.82,6.88h.67v5.68a3.7,3.7,0,0,0,3.71,3.68h9.15a3.7,3.7,0,0,0,3.71-3.68V6.88h.4l6.65,6.65Z"/></g></svg>