<svg xmlns="http://www.w3.org/2000/svg" viewBox="0 0 40 40"><title>se</title><g id="Layer_2" data-name="Layer 2"><path d="M31.93,36.22H8.07a4.3,4.3,0,0,1-4.29-4.29V8.07A4.3,4.3,0,0,1,8.07,3.78H31.93a4.3,4.3,0,0,1,4.29,4.29V31.93A4.3,4.3,0,0,1,31.93,36.22ZM8.07,6.28A1.79,1.79,0,0,0,6.28,8.07V31.93a1.79,1.79,0,0,0,1.79,1.79H31.93a1.79,1.79,0,0,0,1.79-1.79V8.07a1.79,1.79,0,0,0-1.79-1.79Z"/><path d="M18.42,20.77a5.13,5.13,0,0,0-1.08-.89c-.39-.24-.79-.47-1.21-.67l-2.34-1.14a3.36,3.36,0,0,1-1.16-.87,1.77,1.77,0,0,1-.35-1.13,1.75,1.75,0,0,1,.81-1.57,2.54,2.54,0,0,1,.84-.36,5.26,5.26,0,0,1,2.45.06,8.9,8.9,0,0,1,1.27.43,1.12,1.12,0,0,0,1.25-.22,1.06,1.06,0,0,0,.33-.76A1.13,1.13,0,0,0,19,13a1,1,0,0,0-.53-.41,12.49,12.49,0,0,0-1.62-.52,7.53,7.53,0,0,0-3.84.06,4.82,4.82,0,0,0-1.55.8,4.05,4.05,0,0,0-1.08,1.3A3.74,3.74,0,0,0,10,16a4.69,4.69,0,0,0,.2,1.46,3.58,3.58,0,0,0,.58,1.12,4,4,0,0,0,.89.84,7.16,7.16,0,0,0,1.13.65l2.34,1.14c.28.14.54.29.81.45a3.1,3.1,0,0,1,.64.54,2.63,2.63,0,0,1,.44.67,1.84,1.84,0,0,1,.16.78,2.22,2.22,0,0,1-.65,1.73,3,3,0,0,1-2.08.61A5.91,5.91,0,0,1,13,25.8a8,8,0,0,1-1.41-.51,1.14,1.14,0,0,0-1.24.2,1,1,0,0,0-.33.78,1.09,1.09,0,0,0,.18.6,1.08,1.08,0,0,0,.48.41,12.17,12.17,0,0,0,1.83.61,8.23,8.23,0,0,0,2,.24,6.18,6.18,0,0,0,1.88-.29A4.73,4.73,0,0,0,17.95,27a4.26,4.26,0,0,0,1.1-1.4A4.8,4.8,0,0,0,19.17,22,4,4,0,0,0,18.42,20.77Z"/><path d="M29.65,26a1.1,1.1,0,0,0-.77-.31H23.35V20.84h5.11a1.08,1.08,0,0,0,.8-.33,1.09,1.09,0,0,0,.31-.77,1,1,0,0,0-.33-.78,1.11,1.11,0,0,0-.77-.31H23.35V14.28h5.39a1.1,1.1,0,0,0,.77-.31,1,1,0,0,0,.33-.78,1.11,1.11,0,0,0-1.11-1.11H22.48a1.37,1.37,0,0,0-1.38,1.39V26.53a1.37,1.37,0,0,0,1.38,1.39h6.39A1.11,1.11,0,0,0,30,26.81,1.05,1.05,0,0,0,29.65,26Z"/></g></svg>