<svg id="import" xmlns="http://www.w3.org/2000/svg" viewBox="0 0 40 40"><title>settings</title><path d="M20,36.86a16.89,16.89,0,0,1-2.4-.19,1.25,1.25,0,0,1-1-1.56A2.65,2.65,0,0,0,15,32a2.58,2.58,0,0,0-1.15-.18,2.64,2.64,0,0,0-2.15,1.32,1.25,1.25,0,0,1-1.84.38,17,17,0,0,1-1.83-1.56,16.81,16.81,0,0,1-1.56-1.83,1.25,1.25,0,0,1,.37-1.83,2.79,2.79,0,0,0,.4-.28,2.65,2.65,0,0,0,.92-2.18A2.59,2.59,0,0,0,8,25a2.62,2.62,0,0,0-.28-.49,2.65,2.65,0,0,0-2.86-1,1.25,1.25,0,0,1-1.56-1A16.38,16.38,0,0,1,3.14,20a16.58,16.58,0,0,1,.19-2.4,1.25,1.25,0,0,1,1.56-1,2.63,2.63,0,0,0,2-4.83,1.25,1.25,0,0,1-.38-1.83A16.53,16.53,0,0,1,8.08,8.08,16.62,16.62,0,0,1,9.91,6.52a1.25,1.25,0,0,1,1.83.38,2.63,2.63,0,0,0,4.83-2,1.25,1.25,0,0,1,1-1.56,14.93,14.93,0,0,1,4.8,0,1.25,1.25,0,0,1,1,1.56,2.64,2.64,0,0,0,.76,2.64,2.59,2.59,0,0,0,1.71.7h.15l.29,0a2.32,2.32,0,0,0,.48-.11A2.67,2.67,0,0,0,28.26,6.9a1.25,1.25,0,0,1,1.83-.38,16.76,16.76,0,0,1,1.83,1.56,16.82,16.82,0,0,1,1.56,1.83,1.25,1.25,0,0,1-.38,1.83,2.67,2.67,0,0,0-1.26,1.72A2.59,2.59,0,0,0,32,15a2.65,2.65,0,0,0,3.14,1.53,1.25,1.25,0,0,1,1.56,1,16.69,16.69,0,0,1,.19,2.4,16.69,16.69,0,0,1-.19,2.4,1.25,1.25,0,0,1-1.56,1,2.64,2.64,0,0,0-2,.27l-.11.06-.14.08a2.62,2.62,0,0,0-.26.23l-.13.12a2.72,2.72,0,0,0-.38.58l-.08.15a2.59,2.59,0,0,0-.19,1.46,2.67,2.67,0,0,0,.81,1.5l.12.12a2.65,2.65,0,0,0,.37.26,1.25,1.25,0,0,1,.38,1.83,16.73,16.73,0,0,1-1.56,1.83,16.63,16.63,0,0,1-1.83,1.56,1.25,1.25,0,0,1-1.83-.38,2.82,2.82,0,0,0-1.88-1.3A2.61,2.61,0,0,0,25,32a2.65,2.65,0,0,0-1.53,3.14,1.25,1.25,0,0,1-1,1.56A16.75,16.75,0,0,1,20,36.86Zm-.84-2.53a11.19,11.19,0,0,0,1.68,0,5.11,5.11,0,0,1,8.69-3.6c.22-.19.43-.39.62-.58s.38-.4.58-.62a5.19,5.19,0,0,1-1.4-2.76A5.11,5.11,0,0,1,29.66,24a3,3,0,0,1,.16-.32,5.28,5.28,0,0,1,.87-1.26l.19-.17a5,5,0,0,1,.5-.43,3.81,3.81,0,0,1,.39-.24,5.37,5.37,0,0,1,2.55-.73c0-.29,0-.57,0-.84s0-.55,0-.84A5.15,5.15,0,0,1,29.66,16a5.07,5.07,0,0,1-.25-3.09,5.21,5.21,0,0,1,1.32-2.44c-.19-.22-.38-.43-.57-.62s-.39-.38-.61-.57a5.18,5.18,0,0,1-1.89,1.17,5.13,5.13,0,0,1-.88.22l-.33,0H26.3a3.52,3.52,0,0,1-.46,0,5.14,5.14,0,0,1-5-5.06,11.15,11.15,0,0,0-1.67,0q0,.21,0,.42a5.12,5.12,0,0,1-8.68,3.18c-.22.19-.42.38-.61.57s-.38.39-.57.62l.28.31a5.12,5.12,0,0,1-3.88,8.39c0,.29,0,.57,0,.84s0,.55,0,.84A5.16,5.16,0,0,1,9.81,23a5.07,5.07,0,0,1,.53,1,5.11,5.11,0,0,1,.37,1.63,5.17,5.17,0,0,1-1.43,3.9c.19.22.38.42.57.61s.39.38.62.57a5.12,5.12,0,0,1,8.7,3.6Z"/><path d="M20,26.48A6.48,6.48,0,1,1,26.48,20,6.49,6.49,0,0,1,20,26.48ZM20,16a4,4,0,1,0,4,4A4,4,0,0,0,20,16Z"/></svg>