<svg id="import" xmlns="http://www.w3.org/2000/svg" viewBox="0 0 40 40"><title>sparql</title><path d="M11.93,36.25a5.53,5.53,0,0,1-5.68-5.62,13.91,13.91,0,0,1,.36-3.15,11.44,11.44,0,0,0,.31-2.65c0-2.28-3-3.5-4.22-3.91a1.25,1.25,0,0,1,0-2.37c2.16-.72,4.23-1.6,4.23-3.91a8.87,8.87,0,0,0-.3-2.35,11.36,11.36,0,0,1-.37-2.92,5.53,5.53,0,0,1,5.68-5.62,1.25,1.25,0,0,1,0,2.5A3,3,0,0,0,8.75,9.37a8.87,8.87,0,0,0,.3,2.35,11.36,11.36,0,0,1,.37,2.92c0,2.67-1.87,4.22-3.5,5.15,2.08,1.29,3.5,3,3.5,5.05A13.91,13.91,0,0,1,9.06,28a11.44,11.44,0,0,0-.31,2.65,3,3,0,0,0,3.18,3.12,1.25,1.25,0,0,1,0,2.5Z"/><path d="M28.09,36.25a1.25,1.25,0,0,1,0-2.5,3,3,0,0,0,3.18-3.12A11.46,11.46,0,0,0,31,28a13.89,13.89,0,0,1-.36-3.16c0-2,1.45-3.77,3.53-5.05-1.64-.93-3.53-2.48-3.53-5.15A11.36,11.36,0,0,1,31,11.71a8.85,8.85,0,0,0,.3-2.35,3,3,0,0,0-3.18-3.12,1.25,1.25,0,1,1,0-2.5,5.53,5.53,0,0,1,5.68,5.62,11.36,11.36,0,0,1-.37,2.92,8.85,8.85,0,0,0-.3,2.35c0,2.31,2.07,3.19,4.19,3.9a1.28,1.28,0,0,1,.88,1.2,1.24,1.24,0,0,1-.84,1.19c-1.27.42-4.22,1.63-4.22,3.91a11.46,11.46,0,0,0,.31,2.65,13.89,13.89,0,0,1,.36,3.16A5.53,5.53,0,0,1,28.09,36.25Z"/><circle cx="13.41" cy="20" r="1.9"/><circle cx="26.59" cy="20" r="1.9"/><circle cx="20" cy="20" r="1.9"/></svg>