<svg xmlns="http://www.w3.org/2000/svg" viewBox="0 0 40 40"><title>tag</title><g id="Layer_2" data-name="Layer 2"><path d="M33.94,21.44,21.31,8.81a6.61,6.61,0,0,0-4.56-1.94l-2.24,0a14,14,0,0,1,1.56-4,1.15,1.15,0,1,0-2-1.15,16.29,16.29,0,0,0-1.92,5.1l-2,0A3.83,3.83,0,0,0,7.3,7.88a3.89,3.89,0,0,0-1.15,2.86l.14,6.6a6.61,6.61,0,0,0,1.94,4.56L20.86,34.52a3.32,3.32,0,0,0,4.69,0l8.39-8.39A3.32,3.32,0,0,0,33.94,21.44Zm-1.77,2.92-8.39,8.39a.84.84,0,0,1-1.16,0L10,20.13a4.12,4.12,0,0,1-1.21-2.84l-.14-6.6a1.42,1.42,0,0,1,1.42-1.45h0l1.79,0a13.94,13.94,0,0,0,.26,3.25l-.14.11a2.36,2.36,0,1,0,2.41-.51,11.56,11.56,0,0,1-.23-2.8l2.51.05a4.13,4.13,0,0,1,2.84,1.21L32.18,23.21A.82.82,0,0,1,32.18,24.36Z"/></g></svg>