<?xml version="1.0" encoding="utf-8"?>
<!-- Generator: Adobe Illustrator 25.4.1, SVG Export Plug-In . SVG Version: 6.00 Build 0)  -->
<svg version="1.1" id="Layer_1" xmlns="http://www.w3.org/2000/svg" xmlns:xlink="http://www.w3.org/1999/xlink" x="0px" y="0px"
	 viewBox="0 0 1024 1024" style="enable-background:new 0 0 1024 1024;" xml:space="preserve">
<g id="icomoon-ignore">
</g>
<g>
	<path d="M872,332.9c-8.7-2.7-17.5-5.5-26-8.2c-10.7-3.4-21.8-6.9-32.7-10.2c0.1-52.3,0.1-105.4,0.1-156.8V129c0-0.4,0-0.8,0-1.1
		c0-2,0-4.4-0.4-6.9c-1.7-9-8.3-14.5-17.2-14.5c-0.1,0-0.1,0-0.2,0c-3.7,0-7,1.1-9.6,2l-0.3,0.1c-8.6,2.9-17.2,5.8-25.8,8.6
		c-29.3,9.8-59.6,19.9-89.4,30.1c-25.2,8.6-50.8,17.4-75.5,25.8c-31.8,10.9-64.6,22.1-96.9,33.1c-2.5,0.9-5.2,1-6.2,0.6
		c-56.2-19.6-113.2-39.7-168.4-59.2l-37.6-13.3c-11.7-4.1-23.3-8.2-35.3-12.4l-17.4-6.1c-2.6-0.9-5.5-0.5-7.7,1.1
		c-2.3,1.6-3.6,4.2-3.6,6.9v40.7c0,43.7,0,88.9,0.1,133.3c-13.8,4.5-27.8,9.2-41.3,13.8c-7.8,2.6-15.5,5.2-23.3,7.8
		c-13.7,4.6-17.3,9.5-17.3,23.8v494c0,0.4,0,0.8,0,1.2c0,1.1,0,2.3,0,3.5c0.3,5.5,2.8,10.4,7,13.5c3,2.2,6.6,3.4,10.4,3.4
		c1.5,0,3.1-0.2,4.7-0.6c1.7-0.4,3.3-1,4.7-1.4l45.3-15.1c97.2-32.4,197.7-65.9,296.5-98.7c0.9-0.3,2.4-0.3,3.4,0
		c102.2,32.5,206.2,65.6,306.6,97.6l46.9,14.9c1.3,0.4,2.5,0.8,3.9,1.2l2,0.6c2.5,0.8,5.2,0.3,7.3-1.2s3.5-3.9,3.6-6.5
		c0-0.6,0.1-1.2,0.1-1.7c0.1-1.1,0.1-2.1,0.1-3.1v-78.5c0-137.2,0-279.1,0.1-418.7C882.7,340,879.1,335.1,872,332.9z M486.7,713
		c0,0.1,0,0.2,0,0.3c-0.1,0-0.2,0.1-0.4,0.1c-87.4,29-176.1,58.5-262,87.1L175.1,817v-88.3c0-123.9,0-252.1-0.1-378.1
		c84.4-28,170.1-56.6,253-84.2l58.5-19.5v58C486.6,438.7,486.6,577,486.7,713z M796,685.4c0.2,0.8-45.2-13.1-45.5-13.3
		c0-0.3-18.5-65.9-18.5-65.7c-0.2,0.1-100.6-31.1-100.6-30.9L610,627.4l-35.8-10.7l97.5-235.9c-1.4-1.2,48.4,13.6,48.5,13.6
		C720.1,394.3,789.2,660.6,796,685.4z M778,148v155.3l-236.1-75.2L778,148z"/>
	<path d="M737.9,846.4l-75.1-5.7c-3.2-0.2-6.2,1.3-7.9,4s-1.7,6.1,0,8.9l16.1,26.6c-30,17.9-61,31.1-92.2,39.1
		c-34.3,8.8-70,11.7-106,8.7c-54.5-4.7-106.6-21.5-154.6-50.1c-2.7-1.6-5.9-3.4-9.6-4.5c-6.1-1.9-12.4-0.6-16.9,3.4
		c-4.3,3.8-6.2,9.7-5.1,15.6c1.1,5.9,5.7,10.8,9.3,13.2c17.4,11.6,37.2,21.4,64,31.9c46,18,93,27.1,139.8,27.1
		c7.6,0,15.3-0.2,22.9-0.7c49.6-3.1,98.1-16.9,144.2-40.8c6.8-3.5,13.3-7.1,20.2-11c0.8-0.4,1.6-0.9,2.4-1.3l14.6,23.8
		c1.7,2.8,4.9,4.4,8.2,4s6-2.6,7.1-5.7l25.9-75.2c0.9-2.5,0.5-5.2-0.9-7.4C742.9,848,740.5,846.6,737.9,846.4z"/>
	<path d="M687.4,434.2c0,0-44.5,107.9-45,107.3c-0.1,0.8,83.2,26,83.4,25.6C725.7,567.4,687.7,434.7,687.4,434.2z"/>
</g>
<path d="M445.9,595.2c-32.9-4.7-61.9-15.5-86.1-32c15.3-38.9,25.5-83.5,30.5-132.4l31.9-13v-43.1l-86.6,32.5
	c-8.5-16.8-17.5-31.4-26.7-43.4l-3.1-4l-28.2,27.9l4.6,4.9c7.9,8.5,14.7,17.4,20.7,27.2l-82.3,32.3v43.1l36.9-13.4
	c14.2,40.5,34.4,73.8,60.1,99c-19.1,35.2-43.9,64.6-75.7,90l-5,4l20.4,32.7l4.1-3.5c33-28.2,60.4-62.6,81.3-102.3
	c25.8,18.5,57,30.6,92.8,36.2l4.3,0.7l12.3-42.6L445.9,595.2z M358.2,443.1c-4.1,36.1-12,69.6-23.5,99.7
	c-19.3-18.8-35.1-43.2-47.1-72.6L358.2,443.1z"/>
</svg>
