<svg id="import" xmlns="http://www.w3.org/2000/svg" viewBox="0 0 40 40"><title>trash</title><path d="M14.77,29.78A1.25,1.25,0,0,0,16,28.53V17.45a1.25,1.25,0,0,0-2.5,0V28.53A1.25,1.25,0,0,0,14.77,29.78Z"/><path d="M20,29.78a1.25,1.25,0,0,0,1.25-1.25V17.45a1.25,1.25,0,0,0-2.5,0V28.53A1.25,1.25,0,0,0,20,29.78Z"/><path d="M25.23,29.78a1.25,1.25,0,0,0,1.25-1.25V17.45a1.25,1.25,0,0,0-2.5,0V28.53A1.25,1.25,0,0,0,25.23,29.78Z"/><path d="M33.38,10.37h-4.8L26.75,6.19a3.8,3.8,0,0,0-3.43-2.34H16.68a3.8,3.8,0,0,0-3.43,2.34l-1.83,4.17H6.62a1.25,1.25,0,1,0,0,2.5H8.25V31.44a4.68,4.68,0,0,0,4.64,4.71H27.11a4.68,4.68,0,0,0,4.64-4.71V12.87h1.63a1.25,1.25,0,0,0,0-2.5ZM15.54,7.2a1.29,1.29,0,0,1,1.14-.85h6.63a1.29,1.29,0,0,1,1.14.85l1.39,3.17H14.15ZM29.25,31.44a2.18,2.18,0,0,1-2.14,2.21H12.89a2.18,2.18,0,0,1-2.14-2.21V12.87H29.25Z"/></svg>