<svg xmlns="http://www.w3.org/2000/svg" viewBox="0 0 40 40"><title>twitter</title><g id="Layer_2" data-name="Layer 2"><path d="M14.44,33.75c12.38,0,19.14-10.25,19.14-19.14,0-.29,0-.58,0-.87a13.69,13.69,0,0,0,3.36-3.48,13.43,13.43,0,0,1-3.86,1.06,6.75,6.75,0,0,0,3-3.72,13.48,13.48,0,0,1-4.27,1.63,6.73,6.73,0,0,0-11.47,6.14,19.1,19.1,0,0,1-13.87-7,6.73,6.73,0,0,0,2.08,9,6.68,6.68,0,0,1-3-.84s0,.06,0,.09a6.73,6.73,0,0,0,5.4,6.6,6.72,6.72,0,0,1-3,.12,6.74,6.74,0,0,0,6.29,4.67,13.5,13.5,0,0,1-8.36,2.88,13.7,13.7,0,0,1-1.61-.09,19,19,0,0,0,10.31,3"/></g></svg>