<svg xmlns="http://www.w3.org/2000/svg" viewBox="0 0 40 40"><title>upload</title><g id="Layer_2" data-name="Layer 2"><circle cx="26.96" cy="28.84" r="1.37" transform="translate(-2.39 55.25) rotate(-88.92)"/><circle cx="31.6" cy="28.84" r="1.37" transform="matrix(0.02, -1, 1, 0.02, 2.16, 59.89)"/><path d="M13.43,15.08l5.32-5.32v16.9a1.25,1.25,0,0,0,2.5,0V9.76l5.32,5.32a1.25,1.25,0,0,0,1.77-1.77L20.88,5.86a1.25,1.25,0,0,0-1.77,0l-7.45,7.45a1.25,1.25,0,0,0,1.77,1.77Z"/><path d="M33.86,22.19H25.51a1.25,1.25,0,0,0,0,2.5h8.36a.69.69,0,0,1,.69.69v5.95a.69.69,0,0,1-.69.69H6.14a.69.69,0,0,1-.69-.69V25.38a.69.69,0,0,1,.69-.69H14.4a1.25,1.25,0,0,0,0-2.5H6.14a3.19,3.19,0,0,0-3.19,3.19v5.95a3.19,3.19,0,0,0,3.19,3.19H33.86a3.19,3.19,0,0,0,3.19-3.19V25.38A3.19,3.19,0,0,0,33.86,22.19Z"/></g></svg>