<?xml version="1.0" encoding="utf-8"?>
<!-- Generator: Adobe Illustrator 25.4.1, SVG Export Plug-In . SVG Version: 6.00 Build 0)  -->
<svg version="1.1" id="Layer_1" xmlns="http://www.w3.org/2000/svg" xmlns:xlink="http://www.w3.org/1999/xlink" x="0px" y="0px"
	 viewBox="0 0 1024 1024" style="enable-background:new 0 0 1024 1024;" xml:space="preserve">
<g>
	<path d="M514.1,579.1c58.3,0,108.1-20.7,149.5-62.1c41.4-41.4,62.1-91.2,62.1-149.5c0-58.3-20.7-108.1-62.1-149.5
		S572.3,156,514.1,156c-58.3,0-108.1,20.7-149.5,62.1s-62.1,91.2-62.1,149.5c0,58.3,20.7,108.1,62.1,149.5
		C406,558.4,455.8,579.1,514.1,579.1z"/>
</g>
<g>
	<path d="M713.4,551.2c-9,13.6-19.6,26.5-31.9,38.7c-46.4,46.4-102.2,69.6-167.5,69.6c-65.3,0-121.1-23.2-167.5-69.6
		c-12.2-12.2-22.8-25.1-31.9-38.7C132.3,628.8,4.3,809.7,4.3,1020.5h1019.4C1023.8,809.7,895.8,628.8,713.4,551.2z"/>
</g>
</svg>
