<svg xmlns="http://www.w3.org/2000/svg" viewBox="0 0 40 40"><title>user</title><g id="import"><path d="M20,3.49A16.51,16.51,0,1,0,36.51,20,16.53,16.53,0,0,0,20,3.49ZM20,6A14,14,0,0,1,30.9,28.78c-2.19-3.05-8.13-4.33-10.9-4.33s-8.71,1.28-10.9,4.33A14,14,0,0,1,20,6ZM10.91,30.64c.89-2.06,5.86-3.7,9.09-3.7s8.2,1.64,9.09,3.7a13.95,13.95,0,0,1-18.18,0Z"/><path d="M20,21.13a5.38,5.38,0,1,0-5.38-5.38A5.39,5.39,0,0,0,20,21.13Zm0-8.46a3.08,3.08,0,1,1-3.08,3.08A3.08,3.08,0,0,1,20,12.67Z"/></g><g id="Layer_2" data-name="Layer 2"><path d="M-.79,3H35.85V40.66H-.79Z" fill="none"/></g></svg>