<svg id="import" xmlns="http://www.w3.org/2000/svg" viewBox="0 0 40 40"><title>warning</title><path d="M32.25,35.94H7.75a4.83,4.83,0,0,1-4.23-7.16L15.77,6.56h0A4.77,4.77,0,0,1,20,4.06h0a4.77,4.77,0,0,1,4.23,2.5L36.48,28.78a4.83,4.83,0,0,1-4.23,7.16ZM18,7.77,5.71,30a2.33,2.33,0,0,0,2,3.45h24.5a2.33,2.33,0,0,0,2-3.45L22,7.77a2.3,2.3,0,0,0-2-1.2h0a2.3,2.3,0,0,0-2,1.2Z"/><path d="M20,25.18a1.19,1.19,0,0,1-1.11-1.25L18.3,12A1.67,1.67,0,0,1,20,10.4,1.64,1.64,0,0,1,21.7,12l-.6,11.91A1.19,1.19,0,0,1,20,25.18Z"/><circle cx="20" cy="29.15" r="1.88" transform="translate(-9.52 48.59) rotate(-88.92)"/></svg>