<svg xmlns="http://www.w3.org/2000/svg" viewBox="0 0 40 40"><title>youtube</title><g id="Layer_2" data-name="Layer 2"><g id="Lozenge"><path d="M36.71,13.18a7.38,7.38,0,0,0-1.36-3.39,4.88,4.88,0,0,0-3.42-1.44C27.17,8,20,8,20,8h0s-7.16,0-11.93.35A4.88,4.88,0,0,0,4.64,9.79a7.38,7.38,0,0,0-1.36,3.39,51.55,51.55,0,0,0-.34,5.52v2.59a51.55,51.55,0,0,0,.34,5.52,7.38,7.38,0,0,0,1.36,3.39A5.78,5.78,0,0,0,8.4,31.65C11.13,31.91,20,32,20,32s7.17,0,11.94-.36a4.88,4.88,0,0,0,3.42-1.44,7.38,7.38,0,0,0,1.36-3.39,51.63,51.63,0,0,0,.34-5.52V18.7A51.63,51.63,0,0,0,36.71,13.18ZM16.48,24.42V14.84l9.22,4.81Z"/></g></g></svg>