<svg width="96" height="96" viewBox="0 0 96 96" fill="none" xmlns="http://www.w3.org/2000/svg">
<path fill-rule="evenodd" clip-rule="evenodd" d="M32.5312 2.4873C35.6529 2.4873 38.3281 3.62337 40.5186 5.87305L40.9297 6.29004C42.9166 8.403 43.9189 10.9422 43.9189 13.875V14.126C46.5403 15.8878 48.9449 17.9567 51.1328 20.3311C53.2276 22.5456 54.9852 25.0401 56.4053 27.8105C58.6892 26.9607 61.0521 26.2445 63.4941 25.6631C65.999 25.0667 68.6144 24.5841 71.3398 24.2139C71.9218 22.0278 73.0896 20.2068 74.8369 18.7715C76.7758 17.1676 79.0271 16.3623 81.5625 16.3623C84.4974 16.3623 87.0196 17.4043 89.0889 19.4736C91.1582 21.5429 92.2002 24.0651 92.2002 27V27.0938C92.2002 29.6373 91.3585 31.92 89.6943 33.917L89.6865 33.9258C88.1163 35.7472 86.157 37.0852 83.8242 37.9434C82.5161 42.543 80.8485 46.9932 78.8213 51.2939L78.8223 51.2949C76.8835 55.4753 74.6798 59.3948 72.2139 63.0547C73.4211 64.5798 74.3808 66.2929 75.0928 68.1914C75.873 70.2719 76.2627 72.4494 76.2627 74.7188C76.2627 77.3087 75.7767 79.7758 74.8027 82.1133L74.7998 82.1191C73.8278 84.3871 72.4643 86.3677 70.7129 88.0566C69.0262 89.7434 67.0508 91.1037 64.791 92.1367L64.7832 92.1396L64.7754 92.1436C62.4965 93.1202 60.0585 93.6064 57.4688 93.6064C52.9335 93.6064 48.9019 92.1765 45.4014 89.3242L45.3965 89.3193L45.3906 89.3145C42.0559 86.483 39.8485 82.9393 38.7793 78.7012C35.4205 77.3304 32.2676 75.6333 29.3223 73.6084L29.3164 73.6045C26.4586 71.5979 23.8357 69.2706 21.4463 66.626C20.873 66.8199 20.2812 66.9946 19.6699 67.1475L19.6426 67.1543L19.6152 67.1592C18.8247 67.2909 18.0047 67.3564 17.1562 67.3564C13.2871 67.3564 9.95476 66.0044 7.19824 63.3135L7.18652 63.3018C4.49564 60.5452 3.14355 57.2129 3.14355 53.3438C3.14355 50.3272 3.99947 47.6199 5.71387 45.2461L5.71582 45.2432C7.38453 42.9565 9.50069 41.3025 12.0547 40.2949C12.1112 35.702 12.9688 31.3679 14.6338 27.2979C16.3076 23.2064 18.559 19.5635 21.3867 16.3721L21.3857 16.3701V16.3672L21.3848 16.3643V16.3594L21.3838 16.3564V16.3516L21.3828 16.3496V16.3467L21.3818 16.3438V16.3389L21.3809 16.3359V16.3311L21.3799 16.3291V16.3262L21.3789 16.3232V16.3184L21.3779 16.3154V16.3105L21.377 16.3086V16.3057L21.376 16.3027V16.2979L21.375 16.2949V16.29L21.374 16.2881V16.2852L21.373 16.2822V16.2773L21.3721 16.2744V16.2695L21.3711 16.2676V16.2646L21.3701 16.2617V16.2568L21.3691 16.2539V16.249L21.3682 16.2471V16.2441L21.3672 16.2412V16.2363L21.3662 16.2334V16.2285L21.3652 16.2266V16.2236L21.3643 16.2207V16.2158L21.3633 16.2129V16.208L21.3623 16.2061V16.2031L21.3613 16.2002V16.1953L21.3604 16.1924V16.1875L21.3594 16.1855V16.1826L21.3584 16.1797V16.1748L21.3574 16.1719V16.167L21.3564 16.165V16.1621L21.3555 16.1592V16.1543L21.3545 16.1514V16.1465L21.3535 16.1445V16.1416L21.3525 16.1387V16.1338L21.3516 16.1309V16.126L21.3506 16.124V16.1211L21.3496 16.1182V16.1133L21.3486 16.1104V16.1055L21.3477 16.1035V16.1006L21.3467 16.0977V16.0928L21.3457 16.0898V16.085L21.3447 16.083V16.0801L21.3438 16.0771V16.0723L21.3428 16.0693V16.0645L21.3418 16.0625V16.0596L21.3408 16.0566V16.0518L21.3398 16.0488V16.0439L21.3389 16.042V16.0391L21.3379 16.0361V16.0312L21.3369 16.0283V16.0234L21.3359 16.0215V16.0186L21.335 16.0156V16.0107L21.334 16.0078V16.0029L21.333 16.001V15.998L21.332 15.9951V15.9902L21.3311 15.9873V15.9824L21.3301 15.9805V15.9775L21.3291 15.9746V15.9697L21.3281 15.9668V15.9619L21.3271 15.96V15.957L21.3262 15.9541V15.9492L21.3252 15.9463V15.9414L21.3242 15.9395V15.9365L21.3232 15.9336V15.9287L21.3223 15.9258V15.9209L21.3213 15.9189V15.916L21.3203 15.9131V15.9082L21.3193 15.9053V15.9004L21.3184 15.8984V15.8955L21.3174 15.8926V15.8877L21.3164 15.8848V15.8799L21.3154 15.8779V15.875L21.3145 15.8721V15.8672L21.3135 15.8643V15.8594L21.3125 15.8574V15.8545L21.3115 15.8516V15.8467L21.3105 15.8438V15.8389L21.3096 15.8369V15.834L21.3086 15.8311V15.8262L21.3076 15.8232V15.8184L21.3066 15.8164V15.8135L21.3057 15.8105V15.8057L21.3047 15.8027V15.7979L21.3037 15.7959V15.793L21.3027 15.79V15.7852L21.3018 15.7822V15.7773L21.3008 15.7754V15.7725L21.2998 15.7695V15.7646L21.2988 15.7617V15.7568L21.2979 15.7549V15.752L21.2969 15.749V15.7441L21.2959 15.7412V15.7363L21.2949 15.7344V15.7314L21.2939 15.7285V15.7236L21.293 15.7207V15.7158L21.292 15.7139V15.7109L21.291 15.708V15.7031L21.29 15.7002V15.6953L21.2891 15.6934V15.6904L21.2881 15.6875V15.6826L21.2871 15.6797V15.6748L21.2861 15.6729V15.6699L21.2852 15.667V15.6621L21.2842 15.6592V15.6543L21.2832 15.6523V15.6494L21.2822 15.6465V15.6416L21.2812 15.6387V15.6338L21.2803 15.6318V15.6289L21.2793 15.626V15.6211L21.2783 15.6182V15.6133L21.2773 15.6113V15.6084L21.2764 15.6055V15.6006L21.2754 15.5977V15.5928L21.2744 15.5908V15.5879L21.2734 15.585V15.5801L21.2725 15.5771V15.5723L21.2715 15.5703V15.5674L21.2705 15.5645V15.5596L21.2695 15.5566V15.5518L21.2686 15.5498V15.5469L21.2676 15.5439V15.5391L21.2666 15.5361V15.5312L21.2656 15.5293V15.5264L21.2646 15.5234V15.5186L21.2637 15.5156V15.5107L21.2627 15.5088V15.5059L21.2617 15.5029V15.498L21.2607 15.4951V15.4902L21.2598 15.4883V15.4854L21.2588 15.4824V15.4775L21.2578 15.4746V15.4697L21.2568 15.4678V15.4648L21.2559 15.4619V15.457L21.2549 15.4541V15.4492L21.2539 15.4473V15.4443L21.2529 15.4414V15.4365L21.252 15.4336V15.4287L21.251 15.4268V15.4238L21.25 15.4209V15.416L21.249 15.4131V15.4082L21.248 15.4062V15.4033L21.2471 15.4004V15.3955L21.2461 15.3926V15.3877L21.2451 15.3857V15.3828L21.2441 15.3799C21.181 14.938 21.1186 14.4652 21.0557 13.9619L21.0498 13.9189V13.875C21.0498 10.7533 22.1538 8.0747 24.3486 5.87988C26.6047 3.62386 29.3452 2.4873 32.5312 2.4873ZM57.4688 63.2314C54.2784 63.2314 51.5819 64.3459 49.3389 66.5889C47.0931 68.8347 45.9814 71.501 45.9814 74.625C45.9814 77.8154 47.0959 80.5119 49.3389 82.7549C51.5847 85.0007 54.251 86.1123 57.375 86.1123H57.4688C60.6586 86.1123 63.32 84.9985 65.498 82.7617L65.5049 82.7549C67.6104 80.6494 68.7193 78.1742 68.8496 75.2988L68.8623 74.7188V74.625C68.8623 71.501 67.7507 68.8347 65.5049 66.5889L65.498 66.582C63.32 64.3453 60.6586 63.2314 57.4688 63.2314ZM52.4922 36.6084C48.6487 38.2842 44.8888 40.127 41.2148 42.1416L41.2158 42.1426C37.5863 44.1656 34.1297 46.2747 30.8438 48.4668C31.0707 49.14 31.2369 49.8159 31.3428 50.4941C31.5387 51.3526 31.6377 52.2402 31.6377 53.1562C31.6377 55.2542 31.2105 57.2304 30.3535 59.0762L30.3496 59.085C29.6081 60.6251 28.6394 61.9707 27.4463 63.1191C29.0884 64.765 30.8556 66.2864 32.751 67.6807C34.6569 68.9866 36.7106 70.1472 38.9111 71.166C39.6811 66.9875 41.6841 63.43 44.9053 60.5127L44.9102 60.5078C48.2407 57.5474 52.1405 55.9911 56.5811 55.8438V54.4688C56.5811 51.0782 56.2419 47.8152 55.5654 44.6787C54.9384 41.7718 53.9133 39.083 52.4922 36.6084ZM17.7188 46.6377C15.9078 46.6377 14.3663 47.2802 13.0576 48.5889C11.818 49.8285 11.2002 51.336 11.2002 53.1562C11.2002 54.9716 11.8155 56.5125 13.0576 57.8164C14.3618 59.0592 15.9029 59.6748 17.7188 59.6748C19.539 59.6748 21.0465 59.057 22.2861 57.8174C23.5948 56.5087 24.2373 54.9672 24.2373 53.1562C24.2373 51.3462 23.5963 49.8417 22.2979 48.5996L22.2861 48.5889L22.2754 48.5771C21.0333 47.2787 19.5288 46.6377 17.7188 46.6377ZM71.8213 31.1934C69.6213 31.4403 67.4497 31.8013 65.3076 32.2773L65.3008 32.2783L65.2939 32.2803C63.3959 32.6599 61.5698 33.0648 59.8154 33.4912C61.0014 36.6157 61.9167 39.8735 62.5605 43.2646L62.6982 43.9541C63.3661 47.4085 63.7002 50.9449 63.7002 54.5625V56.0625C63.7002 56.3761 63.7136 56.6738 63.7393 56.9561C64.3612 57.1891 64.9447 57.4651 65.4873 57.7881C65.9933 58.0229 66.4637 58.3312 66.9004 58.707C68.9503 55.4506 70.8163 52.0339 72.4912 48.4531C74.2072 44.7247 75.6681 40.7669 76.877 36.5801C75.7703 36.0528 74.7851 35.3316 73.9268 34.416C73.0408 33.471 72.3396 32.3952 71.8213 31.1934ZM41.4873 21.0205C40.4945 22.2348 39.2774 23.2439 37.8418 24.0479L37.833 24.0527C36.2243 24.9241 34.4526 25.3564 32.5312 25.3564C30.9997 25.3564 29.531 25.0561 28.1309 24.4561L28.1191 24.4512C27.0419 23.9664 26.0718 23.3462 25.209 22.5947C23.4717 24.8847 22.0674 27.4351 20.998 30.249L20.9961 30.2529C19.9164 33.0373 19.2592 35.9837 19.0254 39.0947C20.5914 39.2348 22.0449 39.6488 23.3779 40.3428C24.7571 40.979 25.8992 41.869 26.7939 43.0098C30.3876 40.58 34.0936 38.3188 37.9141 36.2295C41.7693 34.0944 45.8751 32.0741 50.2295 30.165C49.0885 28.3752 47.7756 26.7346 46.2861 25.2451L46.2773 25.2354L46.2686 25.2266C44.8268 23.6739 43.2325 22.2726 41.4873 21.0205ZM81.5625 23.3877C80.5692 23.3877 79.7137 23.7452 78.9639 24.4951L78.9541 24.5039L78.9453 24.5127C78.2203 25.1859 77.8564 26.0281 77.8564 27.0938C77.8564 28.0871 78.214 28.9425 78.9639 29.6924C79.7137 30.4423 80.5692 30.7998 81.5625 30.7998C82.629 30.7998 83.5126 30.4346 84.2549 29.6924C85.0048 28.9425 85.3623 28.0871 85.3623 27.0938C85.3623 26.0281 84.9984 25.1859 84.2734 24.5127L84.2646 24.5039L84.2549 24.4951C83.5126 23.7529 82.629 23.3877 81.5625 23.3877ZM32.5312 9.41895C31.276 9.41895 30.2364 9.84755 29.3701 10.7139C28.5038 11.5802 28.0752 12.6197 28.0752 13.875C28.0752 15.1303 28.5038 16.1698 29.3701 17.0361C30.2364 17.9025 31.276 18.3311 32.5312 18.3311C33.7865 18.3311 34.8261 17.9025 35.6924 17.0361C36.5587 16.1698 36.9873 15.1303 36.9873 13.875C36.9873 12.6197 36.5587 11.5802 35.6924 10.7139C34.8261 9.84755 33.7865 9.41895 32.5312 9.41895Z" fill="black"/>
</svg>
