<svg width="96" height="97" viewBox="0 0 96 97" fill="none" xmlns="http://www.w3.org/2000/svg">
<path d="M45 40.9248C45.4707 40.9248 45.9145 41.0392 46.3203 41.2666C46.6918 41.3978 47.038 41.5796 47.3564 41.8125L47.5 41.9219L47.5605 41.9707L47.6094 42.0312C47.8945 42.3876 48.1206 42.7594 48.2754 43.1465C48.4369 43.5505 48.5127 43.9837 48.5127 44.4375V70.5C48.5127 71.3453 48.6508 72.1236 48.9219 72.8408C49.2605 73.5109 49.7119 74.1617 50.2822 74.792C50.9068 75.4152 51.5736 75.8553 52.2822 76.1279C53.0086 76.4073 53.798 76.5498 54.6562 76.5498H76.417L69.4395 69.4922L68.9502 69.0029L68.8984 68.8467L68.8975 68.8438L68.8965 68.8418V68.8398L68.8955 68.8389V68.8369L68.8936 68.833V68.8311L68.8926 68.8301V68.8281L68.8906 68.8242V68.8223L68.8896 68.8213V68.8193L68.8877 68.8154V68.8135L68.8867 68.8125V68.8105L68.8848 68.8066V68.8047L68.8838 68.8037V68.8018L68.8818 68.7979V68.7959L68.8809 68.7949V68.793L68.8789 68.7891V68.7871L68.8779 68.7861V68.7842L68.876 68.7803V68.7783L68.875 68.7773V68.7754L68.873 68.7715V68.7695L68.8721 68.7686V68.7666L68.8701 68.7627V68.7607L68.8691 68.7598V68.7578L68.8672 68.7539V68.752L68.8662 68.751V68.749L68.8643 68.7451V68.7432L68.8633 68.7422V68.7402L68.8613 68.7363V68.7344L68.8604 68.7334V68.7314L68.8584 68.7275V68.7256L68.8574 68.7246V68.7227L68.8555 68.7188V68.7168L68.8545 68.7158V68.7139L68.8525 68.71V68.708L68.8516 68.707V68.7051L68.8496 68.7012V68.6992L68.8486 68.6982V68.6963L68.8467 68.6924V68.6904L68.8457 68.6895V68.6875L68.8438 68.6836V68.6816L68.8428 68.6807V68.6787L68.8408 68.6748V68.6729L68.8398 68.6719V68.6699L68.8379 68.666V68.6641L68.8369 68.6631V68.6611L68.835 68.6572V68.6553L68.834 68.6543V68.6523L68.832 68.6484V68.6465L68.8311 68.6455V68.6436L68.8291 68.6396V68.6377L68.8281 68.6367V68.6348L68.8262 68.6309V68.6289L68.8252 68.6279V68.626L68.8232 68.6221V68.6201L68.8223 68.6191V68.6172L68.8203 68.6133V68.6113L68.8193 68.6104V68.6084L68.8174 68.6045V68.6025L68.8164 68.6016V68.5996L68.8145 68.5957V68.5938L68.8135 68.5928V68.5908L68.8115 68.5869V68.585L68.8105 68.584V68.582L68.8086 68.5781V68.5762L68.8076 68.5752V68.5732L68.8057 68.5693V68.5674L68.8047 68.5664V68.5645L68.8027 68.5605V68.5586L68.8018 68.5576V68.5557L68.7998 68.5518V68.5498L68.7988 68.5488V68.5469L68.7969 68.543V68.541L68.7959 68.54V68.5381L68.7939 68.5342V68.5322L68.793 68.5312V68.5293L68.791 68.5254V68.5234L68.79 68.5225V68.5205L68.7881 68.5166V68.5146L68.7871 68.5137V68.5117L68.7852 68.5078V68.5059L68.7842 68.5049V68.5029L68.7822 68.499V68.4971L68.7812 68.4961V68.4941L68.7793 68.4902V68.4883L68.7783 68.4873V68.4854L68.7764 68.4814V68.4795L68.7754 68.4785V68.4766L68.7734 68.4727V68.4707L68.7725 68.4697V68.4678L68.7705 68.4639V68.4619L68.7695 68.4609V68.459L68.7676 68.4551V68.4531L68.7666 68.4521V68.4502L68.7646 68.4463V68.4443L68.7637 68.4434V68.4414L68.7617 68.4375V68.4355L68.7607 68.4346V68.4326L68.7588 68.4287V68.4268L68.7578 68.4258V68.4238L68.7559 68.4199V68.418L68.7549 68.417V68.415L68.7529 68.4111V68.4092L68.752 68.4082V68.4062L68.75 68.4023V68.4004L68.749 68.3994V68.3975L68.7471 68.3936V68.3916L68.7461 68.3906V68.3887L68.7441 68.3848V68.3828L68.7432 68.3818V68.3799L68.7412 68.376V68.374L68.7402 68.373V68.3711L68.7383 68.3672V68.3652L68.7373 68.3643V68.3623L68.7363 68.3604C68.6085 68.1555 68.5036 67.9432 68.4297 67.7217L68.3936 67.6133V66.9375C68.3936 66.5403 68.4514 66.1587 68.5742 65.7988L68.6309 65.6465C68.7923 65.1844 69.0643 64.7908 69.4375 64.4746C69.7394 64.113 70.0991 63.8311 70.5215 63.6621L70.54 63.6553L70.5596 63.6484C71.0021 63.5009 71.452 63.4248 71.9062 63.4248C72.1356 63.4248 72.3611 63.4601 72.582 63.5234C72.7436 63.5311 72.9033 63.5534 73.0605 63.5928L73.2529 63.6484L73.2998 63.6641L73.3447 63.6865C73.5296 63.779 73.6959 63.9042 73.8467 64.0469C74.0418 64.1806 74.2185 64.322 74.3701 64.4736L87.8701 77.9736C88.0806 78.1841 88.2275 78.4376 88.3203 78.7158C88.3924 78.9321 88.4329 79.1539 88.4443 79.3789C88.5021 79.5716 88.5439 79.7721 88.5439 79.9688C88.5439 80.2341 88.5125 80.4914 88.4453 80.7344C88.4348 80.9634 88.3937 81.1892 88.3203 81.4092C88.2275 81.6874 88.0806 81.9409 87.8701 82.1514L74.3701 95.6514C74.2319 95.7896 74.078 95.9104 73.9102 96.0078C73.6889 96.1955 73.4261 96.2979 73.1445 96.3193C72.9716 96.3689 72.7964 96.4009 72.6182 96.4121C72.4158 96.484 72.2049 96.5127 72 96.5127C71.5458 96.5127 71.0958 96.4366 70.6533 96.2891L70.6338 96.2822L70.6152 96.2754C70.1926 96.1063 69.8332 95.8238 69.5312 95.4619C69.158 95.1456 68.8859 94.7523 68.7246 94.29C68.5631 93.886 68.4873 93.4538 68.4873 93V92.2725L68.5615 92.124C68.6045 92.038 68.6551 91.9146 68.7109 91.7471L68.7266 91.7002L68.749 91.6553C68.792 91.5692 68.8426 91.4459 68.8984 91.2783L68.9502 91.1221L69.0674 91.0049C69.1526 90.9197 69.1965 90.8541 69.2178 90.8115L69.2686 90.71L76.4033 83.5752H54.6562C52.8214 83.5752 51.131 83.2466 49.5957 82.5791C48.0762 81.9184 46.6646 80.9647 45.3613 79.7266L45.3555 79.7197L45.3486 79.7139C44.1036 78.4688 43.1458 77.0841 42.4834 75.5605L42.4785 75.5508C41.8153 73.9591 41.4873 72.2415 41.4873 70.4062V44.4375C41.4873 43.9837 41.5631 43.5505 41.7246 43.1465C41.894 42.7231 42.1766 42.3332 42.5361 41.9736C42.8453 41.6645 43.1997 41.4246 43.5977 41.2627C44.0474 41.0436 44.5168 40.9248 45 40.9248Z" fill="black"/>
<path d="M45.375 2.4873C47.6689 2.4873 49.8724 2.71057 51.9844 3.1582C54.1573 3.6056 56.2673 4.27656 58.3115 5.1709C60.2889 6.0008 62.1696 7.02182 63.9551 8.2334C65.7402 9.44471 67.3689 10.7849 68.8389 12.2549C70.3664 13.7824 71.7045 15.4384 72.8535 17.2217C73.9176 18.7337 74.8574 20.3667 75.6738 22.1182L76.0166 22.876L76.0205 22.8857C76.851 24.8662 77.4892 26.9407 77.9355 29.1084C78.3827 31.2802 78.6064 33.4842 78.6064 35.7188V36.375C78.6064 38.0972 78.4786 39.819 78.2236 41.54L78.2227 41.5439C77.9671 43.2049 77.5844 44.8343 77.0732 46.4316L77.0693 46.4443L77.0645 46.4561C76.4915 48.0474 75.8235 49.5769 75.0586 51.043C74.3562 52.508 73.5252 53.8787 72.5684 55.1562L72.5693 55.1572C71.6129 56.4962 70.5608 57.771 69.4141 58.9814L69.4082 58.9883L69.4014 58.9951C68.2488 60.1476 67.0005 61.2036 65.6572 62.1631C64.3245 63.1773 62.9288 64.0972 61.4697 64.9219L61.46 64.9268C60.0517 65.6949 58.5502 66.3656 56.9561 66.9395L56.8408 66.9814H56.792C56.7808 66.9865 56.7671 66.9929 56.751 67.001L56.6025 67.0752H56.3965C56.2983 67.1145 56.182 67.1517 56.0576 67.1641L55.9688 67.1689H55.6875C55.2333 67.1689 54.7833 67.0928 54.3408 66.9453L54.2686 66.9209L54.2021 66.8818C53.8421 66.6658 53.5153 66.4118 53.2236 66.1201C52.8641 65.7606 52.5815 65.3707 52.4121 64.9473L52.4053 64.9287L52.3984 64.9092C52.2509 64.4667 52.1748 64.0167 52.1748 63.5625C52.1748 63.2044 52.2111 62.8646 52.29 62.5488L52.3008 62.5029L52.3184 62.459C52.4644 62.0938 52.6508 61.7579 52.8779 61.4551C53.1052 61.1521 53.3709 60.8864 53.6738 60.6592C53.9923 60.4203 54.3691 60.2347 54.7891 60.0928C55.9422 59.6679 57.0661 59.1518 58.1602 58.5439L58.167 58.54L58.1738 58.5371C59.3267 57.9304 60.419 57.2329 61.4502 56.4443C62.483 55.6545 63.4223 54.8052 64.2695 53.8975L64.2773 53.8887L64.2861 53.8799C65.1957 52.9703 66.0454 52.0004 66.835 50.9697C67.5611 49.9408 68.197 48.8512 68.7422 47.7002L68.749 47.6875L68.7559 47.6738C69.3626 46.521 69.8789 45.3058 70.3047 44.0283L70.3076 44.0186C70.73 42.8117 71.0318 41.575 71.2129 40.3076L71.2148 40.2939L71.2178 40.2812C71.4298 39.1154 71.5486 37.9249 71.5752 36.71L71.5811 36.1875V35.7188C71.5811 33.9549 71.3987 32.2227 71.0342 30.5215C70.6683 28.8141 70.1505 27.1686 69.4805 25.585C68.8117 24.0043 67.9916 22.5155 67.0195 21.1182L67.0127 21.1104L67.0078 21.1016C66.0962 19.7038 65.0636 18.4289 63.9111 17.2764C62.6944 16.0596 61.3879 14.9962 59.9922 14.0859L59.9629 14.0664C58.6352 13.1009 57.1855 12.284 55.6113 11.6172L54.9902 11.3721C53.5401 10.8174 52.0676 10.38 50.5723 10.0596C48.8711 9.69503 47.1388 9.5127 45.375 9.5127C43.547 9.5127 41.7835 9.69538 40.084 10.0596C38.3766 10.4254 36.7311 10.9433 35.1475 11.6133C33.5668 12.282 32.078 13.1022 30.6807 14.0742L30.6729 14.0811L30.6641 14.0859C29.2714 14.9942 28.0007 16.0225 26.8516 17.1699L26.4199 17.6328C25.4239 18.7224 24.4962 19.8815 23.6396 21.1123L23.6406 21.1133C22.7308 22.4477 21.94 23.9065 21.2695 25.4912L21.2646 25.5029C20.5364 27.1416 19.9905 28.8082 19.626 30.5029L19.5186 31.123C19.2856 32.5806 19.1689 34.1123 19.1689 35.7188V36.5625C19.1689 37.9026 19.2596 39.2105 19.4414 40.4863C19.685 41.7593 20.02 43.0335 20.4453 44.3096C20.8739 45.5953 21.363 46.818 21.9121 47.9775C22.4573 49.0667 23.094 50.1275 23.8223 51.1592C24.5494 52.1892 25.336 53.1587 26.1826 54.0674L26.5264 54.4043C27.3355 55.1802 28.1903 55.8858 29.0908 56.5215L29.1025 56.5293L29.1123 56.5381C30.1488 57.3307 31.2146 58.0299 32.3086 58.6377C33.4561 59.241 34.6337 59.784 35.8408 60.2686C36.2232 60.356 36.5748 60.5175 36.8887 60.7529C37.1916 60.9802 37.4573 61.2459 37.6846 61.5488C37.92 61.8627 38.0805 62.2144 38.168 62.5967C38.3071 62.9041 38.3877 63.2266 38.3877 63.5625C38.3877 64.0894 38.2754 64.5899 38.0498 65.0557C37.8879 65.4546 37.6487 65.8103 37.3389 66.1201L37.3115 66.1475L37.2812 66.1719C36.9466 66.4396 36.6085 66.6767 36.2666 66.8818L36.2188 66.9102L36.166 66.9316C35.762 67.0932 35.3288 67.1689 34.875 67.1689H34.21L34.1162 67.0752H33.7412L33.6475 66.9814H33.6367L33.2471 66.8516C31.7082 66.3386 30.2329 65.6967 28.8213 64.9268C27.4096 64.1567 26.0625 63.2594 24.7812 62.2344C23.4499 61.2191 22.2114 60.1392 21.0674 58.9951L21.0605 58.9883L21.0537 58.9805C19.9656 57.8284 18.9742 56.5811 18.0791 55.2393C17.1252 53.9646 16.266 52.5974 15.5039 51.1367L15.499 51.126L15.4932 51.1143C14.7916 49.6473 14.1861 48.1172 13.6768 46.5254C13.1656 44.9281 12.7829 43.2987 12.5273 41.6377C12.3037 40.1842 12.1773 38.7073 12.1494 37.207L12.1436 36.5625V35.8125C12.1436 33.5235 12.3344 31.2948 12.7168 29.1279L12.7207 29.1084C13.1678 26.9369 13.8385 24.859 14.7334 22.876L15.0732 22.1201C15.8805 20.3734 16.7872 18.745 17.793 17.2363L17.7959 17.2324C19.005 15.4506 20.3416 13.7944 21.8066 12.2656L21.8281 12.2441C23.3532 10.7826 24.9742 9.44802 26.6904 8.24023L26.7002 8.2334C28.4915 7.01787 30.4107 5.99461 32.4551 5.16406C34.4332 4.2729 36.5054 3.60408 38.6709 3.1582C40.844 2.71079 43.0793 2.4873 45.375 2.4873Z" fill="black"/>
</svg>
