<svg width="96" height="96" viewBox="0 0 96 96" fill="none" xmlns="http://www.w3.org/2000/svg">
<path d="M48.0015 3.14014C52.6883 3.14016 56.4877 6.93968 56.4878 11.6265C56.4878 12.1238 56.4425 12.6098 56.3599 13.0815L74.061 23.3013C75.5335 22.0696 77.4311 21.3268 79.5015 21.3267C84.1879 21.3268 87.9873 25.1256 87.9878 29.812C87.9878 33.4734 85.6689 36.5904 82.4214 37.7808V58.2163C85.6691 59.4066 87.9877 62.5247 87.9878 66.186C87.9877 70.8727 84.1881 74.6722 79.5015 74.6724C77.4307 74.6722 75.5335 73.9279 74.061 72.6958L56.3599 82.9165C56.4425 83.3883 56.4878 83.8751 56.4878 84.3726C56.4876 89.0592 52.6882 92.8589 48.0015 92.8589C43.3148 92.8588 39.5154 89.0592 39.5151 84.3726C39.5152 83.8759 39.5588 83.389 39.6411 82.9165L21.937 72.6948C20.4644 73.9271 18.5677 74.6724 16.4966 74.6724C11.81 74.6721 8.01136 70.8726 8.01123 66.186C8.01137 62.5231 10.3317 59.4044 13.5815 58.2153V37.7817C10.332 36.5925 8.01123 33.475 8.01123 29.812C8.01174 25.1257 11.8102 21.327 16.4966 21.3267C18.5669 21.3267 20.4635 22.0707 21.936 23.3022L39.6421 13.0815C39.5597 12.6096 39.5152 12.1234 39.5151 11.6265C39.5153 6.93975 43.3148 3.14027 48.0015 3.14014ZM42.561 77.8599C44.0337 76.6284 45.9314 75.8863 48.0015 75.8862C50.071 75.8862 51.9676 76.6291 53.4399 77.8599L68.6079 69.105H27.395L42.561 77.8599ZM49.4556 19.9849C48.9836 20.0671 48.4979 20.1118 48.0015 20.1118C47.504 20.1118 47.0172 20.0674 46.5444 19.9849L23.0103 60.7485C23.6306 61.4905 24.1266 62.3406 24.4663 63.2671H71.5317C71.8715 62.3397 72.3676 61.4884 72.9888 60.7456L49.4556 19.9849ZM24.855 28.3589C24.9373 28.8302 24.9829 29.3155 24.9829 29.812C24.9829 33.472 22.6659 36.5874 19.4204 37.7788V55.2896L40.0259 19.6001L24.855 28.3589ZM76.5815 55.2886V37.7808C73.3343 36.5903 71.0151 33.4733 71.0151 29.812C71.0152 29.3152 71.0588 28.8286 71.1411 28.356L55.9751 19.6001L76.5815 55.2886Z" fill="black"/>
</svg>
