<svg width="96" height="96" viewBox="0 0 96 96" fill="none" xmlns="http://www.w3.org/2000/svg">
<path d="M59.1562 21.9873C59.3853 21.9873 59.6352 22.0089 59.8652 22.0869C60.0815 22.1002 60.2948 22.1416 60.5029 22.2109L60.7959 22.3086L61.4033 22.5303C64.4268 23.6641 67.2267 25.219 69.8008 27.1943C72.5439 29.2996 74.9063 31.7573 76.8848 34.5654C78.7374 37.1949 80.2247 40.0479 81.3477 43.1221L81.5674 43.7402L81.5703 43.7471L81.5732 43.7549C82.6588 47.1393 83.2002 50.6805 83.2002 54.375V55.2188C83.2002 60.0604 82.2759 64.6244 80.4238 68.9033C78.5775 73.169 76.0595 76.8995 72.8701 80.0889C69.6808 83.2782 65.9503 85.7962 61.6846 87.6426C57.4057 89.4946 52.8416 90.4189 48 90.4189C43.1584 90.4189 38.5943 89.4946 34.3154 87.6426C30.0497 85.7962 26.3192 83.2782 23.1299 80.0889C19.9405 76.8995 17.4225 73.169 15.5762 68.9033C13.7241 64.6244 12.7998 60.0604 12.7998 55.2188V54.5625C12.7998 50.8637 13.3739 47.3183 14.5244 43.9307C15.609 40.5535 17.1724 37.4588 19.2148 34.6504C21.2563 31.8434 23.6812 29.388 26.4863 27.2842C29.293 25.1167 32.3862 23.4266 35.7637 22.2158C35.9547 22.1339 36.1552 22.096 36.3535 22.0859C36.5751 22.0223 36.8012 21.9873 37.0312 21.9873C38.0378 21.9873 38.9028 22.3809 39.5889 23.1299C40.3499 23.8278 40.7314 24.7294 40.7314 25.7812C40.7314 26.5833 40.4467 27.3249 39.9277 27.9922L39.9268 27.9912C39.4576 28.6125 38.8095 29.0588 38.0205 29.3457L38.0166 29.3467C35.4632 30.2586 33.0911 31.5661 30.8984 33.2715L30.8887 33.2793L30.8877 33.2783C28.6971 34.9214 26.8113 36.8687 25.2285 39.1211L25.2236 39.1289C23.642 41.3188 22.4252 43.7222 21.5723 46.3418L21.5693 46.3506C20.6574 49.0255 20.2002 51.8243 20.2002 54.75V55.2188C20.2002 59.0647 20.9321 62.6562 22.3916 66.001C23.8574 69.36 25.8396 72.3182 28.3389 74.8799L28.8125 75.3418C31.2066 77.6218 34.0046 79.4502 37.2129 80.8252L37.2178 80.8271C40.5625 82.2866 44.154 83.0186 48 83.0186C51.846 83.0186 55.4375 82.2866 58.7822 80.8271L58.7871 80.8252C62.2093 79.3585 65.1649 77.3762 67.6611 74.8799C70.1574 72.3836 72.1397 69.4281 73.6064 66.0059L73.6084 66.001C75.0679 62.6562 75.7998 59.0647 75.7998 55.2188V54.375C75.7998 51.5082 75.3728 48.7691 74.5215 46.1543C73.6057 43.471 72.3568 41.036 70.7764 38.8477L70.7686 38.8369C69.2499 36.6501 67.3968 34.7346 65.2051 33.0908L65.1973 33.0859C63.0676 31.443 60.6924 30.1327 58.0684 29.1562C57.334 28.9273 56.7046 28.515 56.1924 27.9297L56.1621 27.8955L56.1367 27.8574C55.6916 27.1898 55.4561 26.4621 55.4561 25.6875C55.4561 24.6472 55.7974 23.7437 56.5049 23.0361L56.5176 23.0234L56.5312 23.0107C57.2799 22.337 58.1643 21.9873 59.1562 21.9873Z" fill="black"/>
<path d="M37.793 5.8623C41.5993 5.92793 44.8667 7.314 47.5576 10.0049C50.2514 12.6987 51.6064 15.9707 51.6064 19.7812V55.04L59.2266 47.502C59.5395 47.1898 59.8991 46.9486 60.3027 46.7871L60.3213 46.7803L60.3408 46.7734C60.7833 46.6259 61.2333 46.5498 61.6875 46.5498C62.6938 46.5498 63.5591 46.9428 64.2451 47.6914C64.9944 48.3776 65.3877 49.2432 65.3877 50.25C65.3877 50.7042 65.3116 51.1542 65.1641 51.5967L65.1572 51.6162L65.1504 51.6348C64.9884 52.0397 64.7462 52.4003 64.4326 52.7139L50.5771 66.5684C50.2664 66.9456 49.8846 67.2466 49.4385 67.4697L49.3936 67.4922L49.3467 67.5078C48.8931 67.659 48.411 67.7314 47.9062 67.7314C47.452 67.7314 47.0021 67.6553 46.5596 67.5078L46.5127 67.4922L46.4678 67.4697C46.0215 67.2465 45.639 66.9459 45.3281 66.5684L31.4932 52.7334C31.1162 52.4227 30.8158 52.0406 30.5928 51.5947L30.5703 51.5498L30.5547 51.5029C30.4072 51.0604 30.3311 50.6105 30.3311 50.1562C30.3311 49.116 30.6724 48.2124 31.3799 47.5049L31.3926 47.4922L31.4062 47.4795C32.1549 46.8057 33.0393 46.4561 34.0312 46.4561C34.5551 46.4561 35.0532 46.5661 35.5166 46.7891C35.9623 46.9442 36.3557 47.1789 36.6797 47.502L44.2998 55.04V19.7812C44.2998 17.9712 43.6588 16.4667 42.3604 15.2246L42.3486 15.2139L42.3379 15.2021C41.0958 13.9037 39.5913 13.2627 37.7812 13.2627H24.375C23.383 13.2627 22.4986 12.913 21.75 12.2393L21.7363 12.2266L21.7236 12.2139C21.0161 11.5063 20.6748 10.6028 20.6748 9.5625C20.6748 8.5688 21.0267 7.70177 21.7236 7.00488C22.4672 6.26132 23.3596 5.8623 24.375 5.8623H37.793Z" fill="black"/>
</svg>
