<svg width="96" height="96" viewBox="0 0 96 96" fill="none" xmlns="http://www.w3.org/2000/svg">
<path d="M55.8169 48.1445L11.7603 92.2012L5.396 85.8379L43.0884 48.1436L5.10791 10.1631L11.4722 3.79883L55.8169 48.1445Z" fill="black"/>
<path d="M51.3433 85.6934L44.8354 92.2012L38.4712 85.8379L44.979 79.3301L51.3433 85.6934ZM63.9077 73.1289L57.2554 79.7812L50.8921 73.417L57.5435 66.7656L63.9077 73.1289ZM76.4722 60.5645L69.8198 67.2168L63.4565 60.8525L70.1079 54.2012L76.4722 60.5645ZM88.8921 48.1445L82.3843 54.6523L76.021 48.2881L76.1646 48.1436L75.9956 47.9746L82.3589 41.6113L88.8921 48.1445ZM76.4009 35.6533L70.0376 42.0166L63.3345 35.3145L69.6987 28.9502L76.4009 35.6533ZM63.7407 22.9932L57.3774 29.3564L50.6743 22.6543L57.0386 16.29L63.7407 22.9932ZM51.0806 10.332L44.7163 16.6963L38.1831 10.1631L44.5474 3.79883L51.0806 10.332Z" fill="black"/>
</svg>
