<svg width="96" height="96" viewBox="0 0 96 96" fill="none" xmlns="http://www.w3.org/2000/svg">
<path d="M82.3125 22.125H82.2188V73.875C82.1562 75.0625 81.8438 76.1562 81.2812 77.1562C80.7812 78.1562 80.0938 79 79.2188 79.6875C78.1562 80.625 77.0312 81.4375 75.8438 82.125C74.6562 82.8125 73.4688 83.375 72.2812 83.8125C68.6562 85.125 64.9062 86.125 61.0312 86.8125C57.1562 87.5 53.2188 87.8438 49.2188 87.8438C48.9688 87.8438 48.75 87.8438 48.5625 87.8438C48.375 87.8438 48.2188 87.8438 48.0938 87.8438C47.8438 87.8438 47.625 87.8438 47.4375 87.8438C47.25 87.8438 47.0312 87.8438 46.7812 87.8438C42.7812 87.8438 38.8438 87.5 34.9688 86.8125C31.0938 86.125 27.4375 85.1562 24 83.9062C22.6875 83.4688 21.4062 82.9062 20.1562 82.2188C18.9688 81.4688 17.8438 80.6562 16.7812 79.7812C15.9062 79.0938 15.1875 78.25 14.625 77.25C14.0625 76.1875 13.75 75.0625 13.6875 73.875V22.0312C13.75 20.8438 14.0625 19.75 14.625 18.75C15.1875 17.75 15.9062 16.9062 16.7812 16.2188C17.8438 15.3438 18.9688 14.5625 20.1562 13.875C21.3438 13.1875 22.5312 12.625 23.7188 12.1875C27.3438 10.875 31.0938 9.875 34.9688 9.1875C38.8438 8.5 42.8125 8.15625 46.875 8.15625C47.0625 8.15625 47.25 8.15625 47.4375 8.15625C47.625 8.15625 47.7812 8.15625 47.9062 8.15625C48.1562 8.15625 48.375 8.15625 48.5625 8.15625C48.75 8.15625 48.9375 8.15625 49.125 8.15625C53.1875 8.15625 57.1562 8.5 61.0312 9.1875C64.9062 9.875 68.5625 10.8438 72 12.0938C73.3125 12.5312 74.5625 13.125 75.75 13.875C77 14.5625 78.1562 15.3438 79.2188 16.2188C80.0938 16.9062 80.8125 17.7812 81.375 18.8438C81.9375 19.8438 82.25 20.9375 82.3125 22.125ZM19.6875 47.1562V57.2812C19.8125 57.4688 19.9375 57.6562 20.0625 57.8438C20.25 57.9688 20.4062 58.0938 20.5312 58.2188C21.3438 58.9062 22.1875 59.5 23.0625 60C24 60.5 24.9062 60.9062 25.7812 61.2188C29.0938 62.4062 32.5 63.3125 36 63.9375C39.5625 64.5 43.1875 64.7812 46.875 64.7812C47.0625 64.7812 47.25 64.7812 47.4375 64.7812C47.625 64.7812 47.7812 64.7812 47.9062 64.7812C48.1562 64.7812 48.375 64.7812 48.5625 64.7812C48.75 64.7812 48.9688 64.7812 49.2188 64.7812C52.9062 64.7812 56.4688 64.5 59.9062 63.9375C63.4062 63.3125 66.75 62.4688 69.9375 61.4062C70.9375 61.0312 71.9062 60.5938 72.8438 60.0938C73.7812 59.5312 74.6562 58.9375 75.4688 58.3125C75.5938 58.125 75.7188 57.9688 75.8438 57.8438C76.0312 57.6562 76.1875 57.4688 76.3125 57.2812L76.4062 47.0625C75.7188 47.5 75 47.9062 74.25 48.2812C73.5625 48.5938 72.875 48.875 72.1875 49.125C68.625 50.4375 64.9062 51.4375 61.0312 52.125C57.2188 52.75 53.2812 53.0625 49.2188 53.0625C49.0312 53.0625 48.8125 53.0625 48.5625 53.0625C48.375 53.0625 48.2188 53.0625 48.0938 53.0625C47.8438 53.0625 47.5938 53.0625 47.3438 53.0625C47.1562 53.0625 46.9688 53.0625 46.7812 53.0625C42.7188 53.0625 38.7812 52.75 34.9688 52.125C31.1562 51.4375 27.5312 50.4688 24.0938 49.2188C23.2812 48.9688 22.5 48.6562 21.75 48.2812C21 47.9062 20.3125 47.5312 19.6875 47.1562ZM76.3125 39.9375L76.4062 30C75.7188 30.4375 75 30.8438 74.25 31.2188C73.5625 31.5312 72.9062 31.8125 72.2812 32.0625C68.7188 33.3125 65 34.2812 61.125 34.9688C57.25 35.6562 53.2812 36 49.2188 36C49.0312 36 48.8125 36 48.5625 36C48.375 36 48.2188 36 48.0938 36C47.8438 36 47.5938 36 47.3438 36C47.0938 36 46.8438 36 46.5938 36C42.5312 36 38.5938 35.6875 34.7812 35.0625C31.0312 34.375 27.4375 33.4375 24 32.25C23.1875 31.9375 22.4062 31.625 21.6562 31.3125C20.9688 30.9375 20.3125 30.5625 19.6875 30.1875V40.0312C19.8125 40.2188 19.9375 40.4062 20.0625 40.5938C20.25 40.7188 20.4062 40.8438 20.5312 40.9688C21.3438 41.6562 22.1875 42.2812 23.0625 42.8438C24 43.3438 24.9062 43.75 25.7812 44.0625C29.0938 45.1875 32.5 46.0625 36 46.6875C39.5625 47.25 43.1875 47.5312 46.875 47.5312C47.0625 47.5312 47.25 47.5312 47.4375 47.5312C47.625 47.5312 47.7812 47.5312 47.9062 47.5312C48.0938 47.5312 48.25 47.5312 48.375 47.5312C48.5625 47.5312 48.75 47.5312 48.9375 47.5312C52.6875 47.5312 56.3125 47.25 59.8125 46.6875C63.375 46.0625 66.75 45.1875 69.9375 44.0625C70.9375 43.6875 71.9062 43.25 72.8438 42.75C73.7812 42.1875 74.6562 41.5938 75.4688 40.9688C75.5938 40.7812 75.7188 40.625 75.8438 40.5C76.0312 40.3125 76.1875 40.125 76.3125 39.9375ZM20.7188 20.625C20.4062 20.9375 20.1562 21.2188 19.9688 21.4688C19.7812 21.7188 19.6875 21.9375 19.6875 22.125C19.6875 22.3125 19.7812 22.5312 19.9688 22.7812C20.1562 23.0312 20.4062 23.2812 20.7188 23.5312C21.5312 24.2188 22.375 24.8125 23.25 25.3125C24.1875 25.8125 25.0938 26.2188 25.9688 26.5312C29.2188 27.7188 32.5938 28.625 36.0938 29.25C39.6562 29.8125 43.2812 30.0938 46.9688 30.0938C47.1562 30.0938 47.3125 30.0938 47.4375 30.0938C47.625 30.0938 47.7812 30.0938 47.9062 30.0938C48.0938 30.0938 48.2812 30.0938 48.4688 30.0938C48.6562 30.0938 48.8438 30.0938 49.0312 30.0938C52.7188 30.0938 56.3125 29.8125 59.8125 29.25C63.3125 28.625 66.625 27.75 69.75 26.625C70.75 26.3125 71.6875 25.9062 72.5625 25.4062C73.5 24.8438 74.375 24.2188 75.1875 23.5312C75.5 23.2812 75.75 23.0312 75.9375 22.7812C76.125 22.5312 76.2188 22.3125 76.2188 22.125C76.0938 21.8125 75.9375 21.5312 75.75 21.2812C75.625 21.0312 75.4375 20.8438 75.1875 20.7188C74.375 20.0312 73.5312 19.4375 72.6562 18.9375C71.7812 18.4375 70.9062 18.0312 70.0312 17.7188C66.7812 16.5938 63.4062 15.7188 59.9062 15.0938C56.4062 14.4688 52.8125 14.1562 49.125 14.1562C48.9375 14.1562 48.75 14.1875 48.5625 14.25C48.375 14.25 48.2188 14.25 48.0938 14.25C47.9062 14.25 47.6875 14.25 47.4375 14.25C47.25 14.1875 47.0625 14.1562 46.875 14.1562C43.1875 14.1562 39.5938 14.4688 36.0938 15.0938C32.6562 15.6562 29.375 16.5 26.25 17.625C25.25 17.9375 24.2812 18.375 23.3438 18.9375C22.4062 19.4375 21.5312 20 20.7188 20.625ZM75.2812 75.2812C75.5938 75.0312 75.8438 74.7812 76.0312 74.5312C76.2188 74.2812 76.3125 74.0938 76.3125 73.9688L76.4062 64.3125C75.7188 64.75 75 65.1562 74.25 65.5312C73.5625 65.8438 72.875 66.1562 72.1875 66.4688C68.625 67.7188 64.9062 68.6875 61.0312 69.375C57.2188 70 53.2812 70.3125 49.2188 70.3125C49.0312 70.3125 48.8125 70.3125 48.5625 70.3125C48.375 70.3125 48.1875 70.3125 48 70.3125C47.875 70.3125 47.75 70.3125 47.625 70.3125C47.5 70.3125 47.375 70.3125 47.25 70.3125C43.125 70.3125 39.125 69.9688 35.25 69.2812C31.375 68.5938 27.6875 67.625 24.1875 66.375C23.375 66.0625 22.5938 65.75 21.8438 65.4375C21.1562 65.0625 20.4688 64.6562 19.7812 64.2188V73.875C19.7812 74 19.875 74.1875 20.0625 74.4375C20.25 74.6875 20.5 74.9688 20.8125 75.2812C21.625 75.9688 22.4688 76.5625 23.3438 77.0625C24.2188 77.5625 25.0938 77.9688 25.9688 78.2812C29.2188 79.4062 32.5938 80.2812 36.0938 80.9062C39.6562 81.5312 43.2812 81.8438 46.9688 81.8438C47.1562 81.8438 47.3125 81.8438 47.4375 81.8438C47.625 81.7812 47.7812 81.75 47.9062 81.75C48.0938 81.75 48.2812 81.7812 48.4688 81.8438C48.6562 81.8438 48.8438 81.8438 49.0312 81.8438C52.7188 81.8438 56.3125 81.5312 59.8125 80.9062C63.3125 80.2812 66.625 79.4375 69.75 78.375C70.75 78 71.7188 77.5625 72.6562 77.0625C73.5938 76.5625 74.4688 75.9688 75.2812 75.2812Z" fill="black"/>
<path d="M49.125 7.45605C53.2271 7.45605 57.2368 7.80319 61.1533 8.49805C65.0651 9.19208 68.761 10.1707 72.2393 11.4355C73.5953 11.8891 74.8857 12.5026 76.1113 13.2754C77.3837 13.977 78.5636 14.7744 79.6504 15.668C80.604 16.4172 81.381 17.366 81.9844 18.501C82.6015 19.5982 82.9437 20.7971 83.0117 22.0879L83.0508 22.8252H82.9189V73.8936L82.918 73.9121C82.8506 75.1914 82.513 76.3795 81.9062 77.4688L81.9072 77.4697C81.3612 78.5616 80.6079 79.4867 79.6514 80.2383C78.5641 81.1943 77.4119 82.0255 76.1943 82.7305C74.975 83.4364 73.7516 84.0173 72.5234 84.4697L72.5195 84.4707C68.856 85.7971 65.067 86.8076 61.1533 87.502C57.2374 88.1967 53.259 88.5439 49.2188 88.5439H46.7812C42.741 88.5439 38.7626 88.1967 34.8467 87.502C30.9349 86.8079 27.239 85.8293 23.7607 84.5645C22.4134 84.1141 21.0994 83.536 19.8193 82.832L19.8008 82.8223L19.7822 82.8105C18.575 82.0481 17.4306 81.2213 16.3486 80.3311C15.3993 79.5851 14.6207 78.6702 14.0146 77.5928L14.0068 77.5771C13.3974 76.4259 13.0562 75.2022 12.9883 73.9121L12.9873 73.8936V22.0127L12.9883 21.9941C13.0563 20.7034 13.3976 19.5044 14.0146 18.4072C14.6208 17.3297 15.3991 16.414 16.3486 15.668C17.4369 14.7729 18.5896 13.9736 19.8057 13.2695C21.025 12.5636 22.2484 11.9827 23.4766 11.5303L23.4805 11.5293C27.144 10.2029 30.933 9.19241 34.8467 8.49805C38.7632 7.80319 42.7729 7.45605 46.875 7.45605V8.15625C42.8125 8.15625 38.8438 8.5 34.9688 9.1875C31.0938 9.875 27.3438 10.875 23.7188 12.1875C22.5312 12.625 21.3438 13.1875 20.1562 13.875C18.9688 14.5625 17.8438 15.3438 16.7812 16.2188C15.9062 16.9062 15.1875 17.75 14.625 18.75C14.0625 19.75 13.75 20.8438 13.6875 22.0312V73.875C13.75 75.0625 14.0625 76.1875 14.625 77.25C15.1875 78.25 15.9062 79.0938 16.7812 79.7812C17.8438 80.6562 18.9688 81.4688 20.1562 82.2188C21.4062 82.9062 22.6875 83.4688 24 83.9062C27.4375 85.1562 31.0938 86.125 34.9688 86.8125C38.8438 87.5 42.7812 87.8438 46.7812 87.8438H49.2188C53.2188 87.8438 57.1562 87.5 61.0312 86.8125C64.9062 86.125 68.6562 85.125 72.2812 83.8125C73.4688 83.375 74.6562 82.8125 75.8438 82.125C77.0312 81.4375 78.1562 80.625 79.2188 79.6875C80.0938 79 80.7812 78.1562 81.2812 77.1562C81.8438 76.1562 82.1562 75.0625 82.2188 73.875V22.125H82.3125C82.25 20.9375 81.9375 19.8438 81.375 18.8438C80.8125 17.7812 80.0938 16.9062 79.2188 16.2188C78.1562 15.3438 77 14.5625 75.75 13.875C74.5625 13.125 73.3125 12.5312 72 12.0938C68.5625 10.8438 64.9062 9.875 61.0312 9.1875C57.1562 8.5 53.1875 8.15625 49.125 8.15625V7.45605ZM47.9062 81.0498C48.1299 81.0498 48.3498 81.0833 48.5654 81.1436H49.0312V81.8438H48.4688C48.2812 81.7812 48.0938 81.75 47.9062 81.75C47.7812 81.75 47.625 81.7812 47.4375 81.8438H46.9688V81.1436H47.334C47.5212 81.0886 47.7156 81.0498 47.9062 81.0498ZM19.7812 64.2188C20.4688 64.6562 21.1562 65.0625 21.8438 65.4375C22.5938 65.75 23.375 66.0625 24.1875 66.375C27.6875 67.625 31.375 68.5938 35.25 69.2812C39.125 69.9688 43.125 70.3125 47.25 70.3125H49.2188C53.2812 70.3125 57.2188 70 61.0312 69.375C64.9062 68.6875 68.625 67.7188 72.1875 66.4688L74.25 65.5312C75 65.1562 75.7188 64.75 76.4062 64.3125L76.3125 73.9688C76.3125 74.0938 76.2188 74.2812 76.0312 74.5312C75.8438 74.7812 75.5938 75.0312 75.2812 75.2812C74.4688 75.9688 73.5938 76.5625 72.6562 77.0625C71.7188 77.5625 70.75 78 69.75 78.375C66.625 79.4375 63.3125 80.2812 59.8125 80.9062C56.3125 81.5312 52.7188 81.8438 49.0312 81.8438V81.1436C52.679 81.1436 56.2315 80.8343 59.6895 80.2168C63.1556 79.5978 66.4318 78.7624 69.5195 77.7129C70.4855 77.3499 71.4217 76.9282 72.3271 76.4453C73.2208 75.9687 74.0544 75.4026 74.8291 74.7471L74.8369 74.7402L74.8438 74.7344C75.1224 74.5115 75.3279 74.3031 75.4717 74.1113C75.5481 74.0095 75.5901 73.9378 75.6123 73.8945L75.6934 65.5557C75.3244 65.7641 74.948 65.965 74.5635 66.1572L74.54 66.1689L74.5352 66.1699L74.5078 66.1836L74.5029 66.1846L74.4756 66.1982L74.4707 66.1992L74.4434 66.2129L74.4385 66.2139L74.4111 66.2275L74.4062 66.2285L74.3789 66.2422L74.374 66.2432L74.3467 66.2568L74.3418 66.2578L74.3145 66.2715L74.3096 66.2725L74.2822 66.2861L74.2773 66.2871L74.25 66.3008L74.2451 66.3018L74.2178 66.3154L74.2129 66.3164L74.1855 66.3301L74.1807 66.3311L74.1533 66.3447L74.1484 66.3457L74.1211 66.3594L74.1162 66.3604L74.0889 66.374L74.084 66.375L74.0566 66.3887L74.0518 66.3896L74.0244 66.4033L74.0195 66.4043L73.9922 66.418L73.9873 66.4189L73.96 66.4326L73.9551 66.4336L73.9277 66.4473L73.9229 66.4482L73.8955 66.4619L73.8906 66.4629L73.8633 66.4766L73.8584 66.4775L73.8311 66.4912L73.8262 66.4922L73.7988 66.5059L73.7939 66.5068L73.7666 66.5205L73.7617 66.5215L73.7344 66.5352L73.7295 66.5361L73.7021 66.5498L73.6973 66.5508L73.6699 66.5645L73.665 66.5654L73.6377 66.5791L73.6328 66.5801L73.6055 66.5938L73.6006 66.5947L73.5732 66.6084L73.5684 66.6094L73.541 66.623L73.5361 66.624L73.5088 66.6377L73.5039 66.6387L73.4766 66.6523L73.4717 66.6533L73.4443 66.667L73.4395 66.668L73.4121 66.6816L73.4072 66.6826L73.3799 66.6963L73.375 66.6973L73.3477 66.7109L73.3428 66.7119L73.3154 66.7256L73.3105 66.7266L73.2832 66.7402L73.2783 66.7412L73.251 66.7549L73.2461 66.7559L73.2188 66.7695L73.2139 66.7705L73.1865 66.7842L73.1816 66.7852L73.1543 66.7988L73.1494 66.7998L73.1221 66.8135L73.1172 66.8145L73.0898 66.8281L73.085 66.8291L73.0576 66.8428L73.0527 66.8438L73.0254 66.8574L73.0205 66.8584L72.9932 66.8721L72.9883 66.873L72.9609 66.8867L72.9561 66.8877L72.9287 66.9014L72.9238 66.9023L72.8965 66.916L72.8916 66.917L72.8643 66.9307L72.8594 66.9316L72.832 66.9453L72.8271 66.9463L72.7998 66.96L72.7949 66.9609L72.7676 66.9746L72.7627 66.9756L72.7354 66.9893L72.7305 66.9902L72.7031 67.0039L72.6982 67.0049L72.6709 67.0186L72.666 67.0195L72.6387 67.0332L72.6338 67.0342L72.6064 67.0479L72.6016 67.0488L72.5742 67.0625L72.5693 67.0635L72.542 67.0771L72.5371 67.0781L72.5098 67.0918L72.5049 67.0928L72.4775 67.1064L72.4492 67.1191L72.4189 67.1289C68.8194 68.3919 65.0639 69.3706 61.1533 70.0645L61.1445 70.0654C57.2927 70.6969 53.3172 71.0127 49.2188 71.0127H47.25C43.0861 71.0127 39.0451 70.6657 35.1279 69.9707C31.2167 69.2768 27.491 68.2981 23.9521 67.0342L23.9365 67.0283C23.1184 66.7137 22.3306 66.3991 21.5742 66.084L21.541 66.0693L21.5088 66.0518C21.1662 65.8649 20.8237 65.6706 20.4814 65.4688V73.8018C20.5038 73.8451 20.5461 73.9163 20.6221 74.0176C20.7802 74.2284 21.0011 74.4775 21.29 74.7676C22.064 75.42 22.8645 75.9825 23.6914 76.4551C24.5335 76.9363 25.3711 77.3246 26.2041 77.6221C29.4167 78.7338 32.7536 79.5984 36.2168 80.2168C39.7382 80.8345 43.3214 81.1436 46.9688 81.1436V81.8438C43.2812 81.8438 39.6562 81.5312 36.0938 80.9062C32.5938 80.2812 29.2188 79.4062 25.9688 78.2812C25.0938 77.9688 24.2188 77.5625 23.3438 77.0625C22.4688 76.5625 21.625 75.9688 20.8125 75.2812C20.5 74.9688 20.25 74.6875 20.0625 74.4375C19.875 74.1875 19.7812 74 19.7812 73.875V64.2188ZM49.2188 64.0811V64.7812H48.5625V64.0811H49.2188ZM76.3125 57.2812C76.1875 57.4688 76.0312 57.6562 75.8438 57.8438C75.7188 57.9688 75.5938 58.125 75.4688 58.3125C74.6562 58.9375 73.7812 59.5312 72.8438 60.0938C71.9062 60.5938 70.9375 61.0312 69.9375 61.4062C66.75 62.4688 63.4062 63.3125 59.9062 63.9375C56.4688 64.5 52.9062 64.7812 49.2188 64.7812V64.0811C52.867 64.0811 56.3883 63.803 59.7832 63.248L61.0762 63.0059C64.0725 62.4174 66.9482 61.6632 69.7041 60.7451C70.6619 60.3853 71.5899 59.9669 72.4883 59.4893C73.3708 58.9595 74.1937 58.402 74.959 57.8184C75.0817 57.6445 75.211 57.4862 75.3486 57.3486C75.4523 57.245 75.5385 57.1425 75.6143 57.0459L75.6943 48.3047C75.325 48.5134 74.9484 48.7148 74.5635 48.9072L74.54 48.9189C73.8373 49.2384 73.1331 49.5251 72.4287 49.7812C68.8261 51.1085 65.0674 52.12 61.1533 52.8145L61.1445 52.8154C57.2927 53.4469 53.3172 53.7627 49.2188 53.7627H46.7812C42.6828 53.7627 38.7073 53.4469 34.8555 52.8154L34.8447 52.8145C30.9954 52.1203 27.3315 51.1413 23.8545 49.877C23.0178 49.6175 22.2111 49.2945 21.4365 48.9072C21.073 48.7255 20.7238 48.5419 20.3877 48.3594V57.0703L20.3896 57.0723L20.3926 57.0762L20.3936 57.0791L20.3955 57.0811L20.3984 57.085L20.3994 57.0879L20.4014 57.0898L20.4043 57.0938L20.4053 57.0967L20.4072 57.0986L20.4102 57.1025L20.4111 57.1055L20.4131 57.1074L20.416 57.1113L20.417 57.1143L20.4189 57.1162L20.4219 57.1201L20.4229 57.123L20.4248 57.125L20.4277 57.1289L20.4287 57.1318L20.4307 57.1338L20.4336 57.1377L20.4346 57.1406L20.4365 57.1426L20.4395 57.1465L20.4404 57.1494L20.4424 57.1514L20.4453 57.1553L20.4463 57.1582L20.4482 57.1602L20.4512 57.1641L20.4521 57.167L20.4541 57.1689L20.457 57.1729L20.458 57.1758L20.46 57.1777L20.4629 57.1816L20.4639 57.1846L20.4658 57.1865L20.4688 57.1904L20.4697 57.1934L20.4717 57.1953L20.4746 57.1992L20.4756 57.2021L20.4775 57.2041L20.4805 57.208L20.4814 57.2109L20.4834 57.2129L20.4863 57.2168L20.4873 57.2197L20.4893 57.2217L20.4922 57.2256L20.4932 57.2285L20.4951 57.2305L20.498 57.2344L20.499 57.2373L20.501 57.2393L20.5039 57.2432L20.5049 57.2461L20.5068 57.248L20.5098 57.252L20.5107 57.2549L20.5127 57.2568L20.5156 57.2607L20.5166 57.2637L20.5186 57.2656L20.5215 57.2695L20.5225 57.2725L20.5244 57.2744L20.5273 57.2783L20.5283 57.2812L20.5303 57.2832L20.5332 57.2871L20.5342 57.29L20.5361 57.292L20.5391 57.2959L20.54 57.2988L20.542 57.3008L20.5449 57.3047L20.5459 57.3076L20.5479 57.3096L20.5508 57.3135L20.5518 57.3164L20.5537 57.3184L20.5566 57.3223L20.5576 57.3252L20.5596 57.3271L20.5625 57.3311L20.5635 57.334L20.5654 57.3359L20.5684 57.3398L20.5693 57.3428L20.5713 57.3447C20.7259 57.4547 20.8674 57.5705 20.9932 57.6924C21.7707 58.3493 22.5752 58.9144 23.4062 59.3896C24.3126 59.8722 25.1825 60.2617 26.0166 60.5596C29.2919 61.7337 32.6621 62.6299 36.124 63.248C39.6449 63.8032 43.2283 64.0811 46.875 64.0811V64.7812C43.1875 64.7812 39.5625 64.5 36 63.9375C32.5 63.3125 29.0938 62.4062 25.7812 61.2188C24.9062 60.9062 24 60.5 23.0625 60C22.1875 59.5 21.3438 58.9062 20.5312 58.2188C20.4062 58.0938 20.25 57.9688 20.0625 57.8438L19.6875 57.2812V47.1562C20.3125 47.5312 21 47.9062 21.75 48.2812C22.5 48.6562 23.2812 48.9688 24.0938 49.2188C27.5312 50.4688 31.1562 51.4375 34.9688 52.125C38.7812 52.75 42.7188 53.0625 46.7812 53.0625H49.2188C53.2812 53.0625 57.2188 52.75 61.0312 52.125C64.9062 51.4375 68.625 50.4375 72.1875 49.125C72.875 48.875 73.5625 48.5938 74.25 48.2812C75 47.9062 75.7188 47.5 76.4062 47.0625L76.3125 57.2812ZM48.5625 64.0811V64.7812H47.9062V64.0811H48.5625ZM47.9062 64.0811V64.7812H47.4375V64.0811H47.9062ZM47.4375 64.0811V64.7812H46.875V64.0811H47.4375ZM48.9375 46.8311V47.5312H48.375V46.8311H48.9375ZM76.3125 39.9375C76.1875 40.125 76.0312 40.3125 75.8438 40.5C75.7188 40.625 75.5938 40.7812 75.4688 40.9688C74.6562 41.5938 73.7812 42.1875 72.8438 42.75C71.9062 43.25 70.9375 43.6875 69.9375 44.0625C66.75 45.1875 63.375 46.0625 59.8125 46.6875C56.3125 47.25 52.6875 47.5312 48.9375 47.5312V46.8311C52.6524 46.8311 56.24 46.5523 59.7012 45.9961C63.2245 45.3775 66.5585 44.5125 69.7041 43.4023C70.662 43.0425 71.5898 42.6232 72.4883 42.1455C73.3708 41.6158 74.1937 41.0582 74.959 40.4746C75.0817 40.3007 75.211 40.1425 75.3486 40.0049C75.4523 39.9012 75.5385 39.7987 75.6143 39.7021L75.6934 31.2432C75.3244 31.4516 74.948 31.6525 74.5635 31.8447L74.54 31.8564C73.8439 32.1729 73.1771 32.4584 72.541 32.7129L72.5273 32.7178L72.5127 32.7227C68.9131 33.9857 65.1576 34.9644 61.2471 35.6582C57.3305 36.3531 53.3208 36.7002 49.2188 36.7002H46.5938C42.4953 36.7002 38.5198 36.3844 34.668 35.7529L34.6553 35.751C30.8723 35.0574 27.2439 34.1117 23.7715 32.9121L23.7598 32.9072L23.749 32.9033C22.9309 32.5887 22.1431 32.2741 21.3867 31.959L21.3535 31.9443L21.3213 31.9268C21.0035 31.7534 20.6927 31.5788 20.3877 31.4053V39.8203L20.3896 39.8223L20.3926 39.8262L20.3936 39.8291L20.3955 39.8311L20.3984 39.835L20.3994 39.8379L20.4014 39.8398L20.4043 39.8438L20.4053 39.8467L20.4072 39.8486L20.4102 39.8525L20.4111 39.8555L20.4131 39.8574L20.416 39.8613L20.417 39.8643L20.4189 39.8662L20.4219 39.8701L20.4229 39.873L20.4248 39.875L20.4277 39.8789L20.4287 39.8818L20.4307 39.8838L20.4336 39.8877L20.4346 39.8906L20.4365 39.8926L20.4395 39.8965L20.4404 39.8994L20.4424 39.9014L20.4453 39.9053L20.4463 39.9082L20.4482 39.9102L20.4512 39.9141L20.4521 39.917L20.4541 39.9189L20.457 39.9229L20.458 39.9258L20.46 39.9277L20.4629 39.9316L20.4639 39.9346L20.4658 39.9365L20.4688 39.9404L20.4697 39.9434L20.4717 39.9453L20.4746 39.9492L20.4756 39.9521L20.4775 39.9541L20.4805 39.958L20.4814 39.9609L20.4834 39.9629L20.4863 39.9668L20.4873 39.9697L20.4893 39.9717L20.4922 39.9756L20.4932 39.9785L20.4951 39.9805L20.498 39.9844L20.499 39.9873L20.501 39.9893L20.5039 39.9932L20.5049 39.9961L20.5068 39.998L20.5098 40.002L20.5107 40.0049L20.5127 40.0068L20.5156 40.0107L20.5166 40.0137L20.5186 40.0156L20.5215 40.0195L20.5225 40.0225L20.5244 40.0244L20.5273 40.0283L20.5283 40.0312L20.5303 40.0332L20.5332 40.0371L20.5342 40.04L20.5361 40.042L20.5391 40.0459L20.54 40.0488L20.542 40.0508L20.5449 40.0547L20.5459 40.0576L20.5479 40.0596L20.5508 40.0635L20.5518 40.0664L20.5537 40.0684L20.5566 40.0723L20.5576 40.0752L20.5596 40.0771L20.5625 40.0811L20.5635 40.084L20.5654 40.0859L20.5684 40.0898L20.5693 40.0928L20.5713 40.0947C20.7255 40.2045 20.8666 40.3199 20.9922 40.4414C21.7735 41.1019 22.5839 41.7017 23.4229 42.2422C24.3196 42.7188 25.1808 43.1038 26.0068 43.3994L27.2402 43.8057C30.1295 44.7259 33.0913 45.4565 36.124 45.998C39.6449 46.5532 43.2283 46.8311 46.875 46.8311V47.5312C43.1875 47.5312 39.5625 47.25 36 46.6875C32.5 46.0625 29.0938 45.1875 25.7812 44.0625C24.9062 43.75 24 43.3438 23.0625 42.8438C22.1875 42.2812 21.3438 41.6562 20.5312 40.9688C20.4062 40.8438 20.25 40.7188 20.0625 40.5938L19.6875 40.0312V30.1875C20.3125 30.5625 20.9688 30.9375 21.6562 31.3125C22.4062 31.625 23.1875 31.9375 24 32.25C27.4375 33.4375 31.0312 34.375 34.7812 35.0625C38.5938 35.6875 42.5312 36 46.5938 36H49.2188C53.2812 36 57.25 35.6562 61.125 34.9688C65 34.2812 68.7188 33.3125 72.2812 32.0625C72.9062 31.8125 73.5625 31.5312 74.25 31.2188C75 30.8438 75.7188 30.4375 76.4062 30L76.3125 39.9375ZM48.375 46.8311V47.5312H47.9062V46.8311H48.375ZM47.9062 46.8311V47.5312H47.4375V46.8311H47.9062ZM47.4375 46.8311V47.5312H46.875V46.8311H47.4375ZM49.0312 29.3936V30.0938H48.4688V29.3936H49.0312ZM49.125 14.1562C52.8125 14.1562 56.4062 14.4688 59.9062 15.0938C63.4062 15.7188 66.7812 16.5938 70.0312 17.7188C70.9062 18.0312 71.7812 18.4375 72.6562 18.9375C73.5312 19.4375 74.375 20.0312 75.1875 20.7188C75.4375 20.8438 75.625 21.0312 75.75 21.2812C75.9375 21.5312 76.0938 21.8125 76.2188 22.125C76.2188 22.3125 76.125 22.5312 75.9375 22.7812C75.75 23.0312 75.5 23.2812 75.1875 23.5312C74.375 24.2188 73.5 24.8438 72.5625 25.4062C71.6875 25.9062 70.75 26.3125 69.75 26.625C66.625 27.75 63.3125 28.625 59.8125 29.25C56.3125 29.8125 52.7188 30.0938 49.0312 30.0938V29.3936C52.6806 29.3936 56.2347 29.1152 59.6943 28.5596C63.1563 27.9411 66.4288 27.077 69.5127 25.9668L69.5273 25.9609L69.541 25.957C70.4898 25.6606 71.3764 25.2763 72.2021 24.8057C73.1081 24.2621 73.9525 23.6595 74.7354 22.9971L74.7432 22.9902L74.75 22.9844C75.0286 22.7615 75.2341 22.5531 75.3779 22.3613C75.43 22.2919 75.4622 22.235 75.4844 22.1924C75.3984 22.0114 75.3005 21.848 75.1904 21.7012L75.1523 21.6504L75.124 21.5947C75.0668 21.4802 74.9886 21.402 74.874 21.3447L74.7998 21.3076L74.7354 21.2529C73.9537 20.5915 73.1444 20.0225 72.3086 19.5449C71.4665 19.0637 70.6289 18.6754 69.7959 18.3779C66.5837 17.2664 63.246 16.4016 59.7832 15.7832C56.3253 15.1657 52.7728 14.8564 49.125 14.8564C49.0168 14.8564 48.9041 14.8741 48.7842 14.9141L48.6758 14.9502H47.3242L47.2158 14.9141C47.0959 14.8741 46.9832 14.8564 46.875 14.8564C43.2272 14.8564 39.6747 15.1657 36.2168 15.7832L36.207 15.7842C32.8098 16.3401 29.57 17.1734 26.4873 18.2832L26.4727 18.2891L26.459 18.293C25.5142 18.5882 24.5961 19.0029 23.7041 19.5381L23.6885 19.5469L23.6729 19.5547C22.783 20.0293 21.9536 20.5615 21.1836 21.1504C20.9007 21.4353 20.6842 21.6809 20.5283 21.8887C20.4585 21.9818 20.4207 22.0506 20.4014 22.0957C20.396 22.1082 20.3928 22.1182 20.3906 22.125C20.3928 22.1318 20.396 22.1418 20.4014 22.1543C20.4207 22.1994 20.4585 22.2682 20.5283 22.3613C20.6362 22.5052 20.7789 22.6585 20.9609 22.8203L21.1562 22.9844L21.1631 22.9902L21.1709 22.9971C21.9514 23.6575 22.7593 24.225 23.5938 24.7021C24.2722 25.0634 24.9304 25.3724 25.5684 25.6299L26.2041 25.8721L26.209 25.874C29.4199 27.0472 32.7566 27.9425 36.2178 28.5605C39.7386 29.1157 43.3221 29.3936 46.9688 29.3936V30.0938C43.2812 30.0938 39.6562 29.8125 36.0938 29.25C32.5938 28.625 29.2188 27.7188 25.9688 26.5312C25.0938 26.2188 24.1875 25.8125 23.25 25.3125C22.375 24.8125 21.5312 24.2188 20.7188 23.5312C20.4062 23.2812 20.1562 23.0312 19.9688 22.7812C19.7812 22.5312 19.6875 22.3125 19.6875 22.125C19.6875 21.9375 19.7812 21.7188 19.9688 21.4688C20.1562 21.2188 20.4062 20.9375 20.7188 20.625C21.5312 20 22.4062 19.4375 23.3438 18.9375C24.2812 18.375 25.25 17.9375 26.25 17.625C29.375 16.5 32.6562 15.6562 36.0938 15.0938C39.5938 14.4688 43.1875 14.1562 46.875 14.1562C47.0625 14.1562 47.25 14.1875 47.4375 14.25H48.5625C48.75 14.1875 48.9375 14.1562 49.125 14.1562ZM48.4688 29.3936V30.0938H47.9062V29.3936H48.4688ZM47.9062 29.3936V30.0938H47.4375V29.3936H47.9062ZM47.4375 29.3936V30.0938H46.9688V29.3936H47.4375ZM47.4375 7.45605V8.15625H46.875V7.45605H47.4375ZM47.9062 7.45605V8.15625H47.4375V7.45605H47.9062ZM48.5625 7.45605V8.15625H47.9062V7.45605H48.5625ZM49.125 7.45605V8.15625H48.5625V7.45605H49.125Z" fill="black"/>
</svg>
