<svg width="96" height="96" viewBox="0 0 96 96" fill="none" xmlns="http://www.w3.org/2000/svg">
<path d="M65.4253 81.4561C65.4253 81.4561 65.394 81.4873 65.3315 81.5498H65.0503C65.0503 81.4873 65.019 81.4561 64.9565 81.4561L62.7065 78.0811H67.8628L65.4253 81.4561Z" fill="black"/>
<path d="M67.769 76.8623H62.7065V66.7373H67.769V76.8623Z" fill="black"/>
<path d="M78.3628 66.8311C78.5503 66.8311 78.7065 66.8623 78.8315 66.9248C78.9565 66.9873 79.0815 67.0811 79.2065 67.2061C79.3315 67.3311 79.4253 67.4873 79.4878 67.6748C79.6128 67.7998 79.6753 67.9248 79.6753 68.0498C79.6753 68.2373 79.644 68.3936 79.5815 68.5186C79.519 68.6436 79.4253 68.7686 79.3003 68.8936L76.769 71.5186L79.3003 74.1436C79.4253 74.2061 79.519 74.3311 79.5815 74.5186C79.644 74.6436 79.6753 74.7998 79.6753 74.9873C79.6753 75.2998 79.5503 75.5811 79.3003 75.8311C79.1128 76.0811 78.8315 76.2061 78.4565 76.2061C78.3315 76.2061 78.1753 76.1748 77.9878 76.1123C77.8628 75.9873 77.7378 75.8936 77.6128 75.8311L74.9878 73.2061L72.3628 75.8311C72.3003 75.8936 72.1753 75.9873 71.9878 76.1123C71.8628 76.1748 71.7065 76.2061 71.519 76.2061C71.2065 76.2061 70.9253 76.0811 70.6753 75.8311C70.4878 75.5811 70.394 75.2998 70.394 74.9873C70.394 74.7998 70.4253 74.6436 70.4878 74.5186C70.5503 74.3311 70.6128 74.2061 70.6753 74.1436L73.3003 71.5186L70.5815 68.8936C70.4565 68.7686 70.3628 68.6436 70.3003 68.5186C70.2378 68.3936 70.2065 68.2373 70.2065 68.0498C70.2065 67.7373 70.3315 67.4561 70.5815 67.2061C70.8315 66.9561 71.1128 66.8311 71.4253 66.8311C71.6128 66.8311 71.769 66.8623 71.894 66.9248C72.019 66.9873 72.144 67.0811 72.269 67.2061L74.894 69.8311L77.519 67.2061C77.644 67.0811 77.769 66.9873 77.894 66.9248C78.019 66.8623 78.1753 66.8311 78.3628 66.8311Z" fill="black"/>
<path d="M66.4565 62.2373C66.8315 62.2373 67.144 62.3623 67.394 62.6123C67.644 62.8623 67.769 63.1748 67.769 63.5498V65.3311H62.7065V63.5498C62.7065 63.1748 62.8003 62.8623 62.9878 62.6123C63.2378 62.3623 63.5503 62.2373 63.9253 62.2373H66.4565Z" fill="black"/>
<path fill-rule="evenodd" clip-rule="evenodd" d="M41.1567 7.45605C45.2588 7.45605 49.2685 7.80319 53.1851 8.49805C57.0969 9.19208 60.7928 10.1707 64.271 11.4355C65.6271 11.8891 66.9174 12.5026 68.1431 13.2754C69.4154 13.977 70.5954 14.7744 71.6821 15.668C72.6357 16.4172 73.4127 17.366 74.0161 18.501C74.6332 19.5982 74.9755 20.7971 75.0435 22.0879L75.0825 22.8252H74.9507V50.2656C84.2196 52.8547 91.019 61.3611 91.019 71.4561C91.019 83.6063 81.1693 93.4561 69.019 93.4561C63.116 93.4561 57.7565 91.1307 53.8052 87.3467C53.5534 87.4244 53.3318 87.4925 53.2788 87.502C49.3622 88.1968 45.3526 88.5439 41.2505 88.5439H38.813C34.7727 88.5439 30.7944 88.1967 26.8784 87.502C22.9666 86.8079 19.2707 85.8293 15.7925 84.5645C14.4451 84.1141 13.1311 83.536 11.8511 82.832L11.8325 82.8223L11.814 82.8105C10.6067 82.0481 9.46236 81.2213 8.38037 80.3311C7.43106 79.5851 6.65241 78.6702 6.04639 77.5928L6.03857 77.5771C5.42909 76.4259 5.08796 75.2022 5.02002 73.9121L5.01904 73.8936V22.0127L5.02002 21.9941C5.088 20.7034 5.4293 19.5044 6.04639 18.4072C6.65249 17.3297 7.43088 16.414 8.38037 15.668C9.46867 14.7729 10.6213 13.9736 11.8374 13.2695C13.0567 12.5636 14.2802 11.9827 15.5083 11.5303L15.5122 11.5293C19.1757 10.2029 22.9648 9.19241 26.8784 8.49805C30.795 7.80319 34.8046 7.45605 38.9067 7.45605H41.1567ZM69.019 56.4561C60.7348 56.4561 54.019 63.1718 54.019 71.4561C54.019 79.7403 60.7348 86.4561 69.019 86.4561C77.3033 86.4561 84.019 79.7403 84.019 71.4561C84.019 63.1718 77.3033 56.4561 69.019 56.4561ZM67.7349 31.2373C67.3628 31.4478 66.9831 31.6508 66.5952 31.8447L66.5718 31.8564C65.8756 32.1729 65.2089 32.4584 64.5728 32.7129L64.5591 32.7178L64.5444 32.7227C60.9449 33.9857 57.1894 34.9644 53.2788 35.6582C49.3622 36.3531 45.3526 36.7002 41.2505 36.7002H38.7192C34.6207 36.7002 30.6453 36.3844 26.7935 35.7529L26.7808 35.751C22.9978 35.0574 19.3694 34.1117 15.897 32.9121L15.8853 32.9072L15.8745 32.9033C15.0564 32.5887 14.2686 32.2741 13.5122 31.959L13.479 31.9443L13.4468 31.9268C13.129 31.7534 12.8181 31.5788 12.5132 31.4053V73.8018C12.5355 73.8451 12.5779 73.9163 12.6538 74.0176C12.8119 74.2284 13.0328 74.4775 13.3218 74.7676C14.0957 75.42 14.8962 75.9825 15.7231 76.4551C16.5653 76.9363 17.4028 77.3246 18.2358 77.6221C21.4484 78.7338 24.7853 79.5984 28.2485 80.2168C31.77 80.8345 35.3531 81.1436 39.0005 81.1436H39.3657C39.8755 81.1406 39.763 81.1445 39.9536 81.1445C39.9536 81.1445 40.1528 81.1367 40.5972 81.1436H41.063C43.5675 81.1436 46.5416 80.886 48.9976 80.5859C47.7273 77.8049 47.019 74.7132 47.019 71.4561C47.019 66.5929 48.5982 62.0991 51.27 58.457V51.7891H50.9731L42.1294 73.6797H37.9731L29.1294 51.7422H28.8325V73.7734H23.27V41.7734H30.3638L39.8638 64.9609H40.2388L49.7388 41.7734H56.8325V53.1377C59.9771 51.0415 63.6918 49.7338 67.6948 49.4961L67.7349 31.2373ZM39.2153 14.8594C39.2153 14.8594 39.0149 14.8564 38.9067 14.8564C35.259 14.8564 31.7064 15.1657 28.2485 15.7832L28.2388 15.7842C24.8416 16.3401 21.6018 17.1734 18.519 18.2832L18.5044 18.2891L18.4907 18.293C17.5459 18.5882 16.6278 19.0029 15.7358 19.5381L15.7202 19.5469L15.7046 19.5547C14.8147 20.0293 13.9853 20.5615 13.2153 21.1504C12.9324 21.4353 12.7159 21.6809 12.5601 21.8887C12.4902 21.9818 12.4525 22.0506 12.4331 22.0957C12.4278 22.1082 12.4245 22.1182 12.4224 22.125C12.4245 22.1318 12.4278 22.1418 12.4331 22.1543C12.4525 22.1994 12.4902 22.2682 12.5601 22.3613C12.668 22.5052 12.8107 22.6585 12.9927 22.8203L13.188 22.9844L13.1948 22.9902L13.2026 22.9971C13.9831 23.6575 14.791 24.225 15.6255 24.7021C16.304 25.0634 16.9621 25.3724 17.6001 25.6299L18.2358 25.8721L18.2407 25.874C21.4516 27.0472 24.7883 27.9425 28.2495 28.5605C31.7703 29.1157 35.3538 29.3936 39.0005 29.3936H41.063C44.7123 29.3936 48.2665 29.1152 51.7261 28.5596C55.188 27.9411 58.4606 27.077 61.5444 25.9668L61.5591 25.9609L61.5728 25.957C62.5215 25.6606 63.4081 25.2763 64.2339 24.8057C65.1398 24.2621 65.9842 23.6595 66.7671 22.9971L66.7749 22.9902L66.7817 22.9844C67.0603 22.7615 67.2658 22.5531 67.4097 22.3613C67.4617 22.2919 67.4939 22.235 67.5161 22.1924C67.4301 22.0114 67.3322 21.848 67.2222 21.7012L67.1841 21.6504L67.1558 21.5947C67.0985 21.4802 67.0203 21.402 66.9058 21.3447L66.8315 21.3076L66.7671 21.2529C65.9854 20.5915 65.1762 20.0225 64.3403 19.5449C63.4982 19.0637 62.6607 18.6754 61.8276 18.3779C58.6154 17.2664 55.2777 16.4016 51.8149 15.7832C48.357 15.1657 44.8045 14.8564 41.1567 14.8564C41.0486 14.8564 40.8989 14.8633 40.8989 14.8633L40.2739 14.8555H39.3794L39.2153 14.8594Z" fill="black"/>
</svg>
