<svg width="96" height="96" viewBox="0 0 96 96" fill="none" xmlns="http://www.w3.org/2000/svg">
<path fill-rule="evenodd" clip-rule="evenodd" d="M57.9922 40.0801C60.1023 40.0801 62.0521 40.63 63.8281 41.7295C65.5992 42.8259 66.9907 44.3178 67.999 46.1934C69.0632 48.1537 69.5918 50.3201 69.5918 52.6797C69.5918 55.87 68.8489 58.9359 67.3682 61.8701L67.3672 61.8711C66.1072 64.3635 64.3193 66.7464 62.0156 69.0234C60.226 70.8131 58.1043 72.5561 55.6533 74.2529L55.6514 74.2549C54.2758 75.1989 52.4761 76.3266 50.2568 77.6367L50.2549 77.6387L48.9922 78.375L47.7295 77.6387L47.7285 77.6377C45.4022 76.274 43.5211 75.0919 42.0898 74.0928L41.1465 73.4229C38.985 71.854 37.0954 70.2395 35.4814 68.5781L35.4785 68.5742C33.2496 66.2416 31.5305 63.8222 30.3301 61.3154L26.9854 61.2803L26.3926 61.2734V56.0703L28.6992 56.1074C28.4954 54.9743 28.3926 53.8316 28.3926 52.6797C28.3926 50.3201 28.9212 48.1537 29.9854 46.1934C30.9937 44.3178 32.3851 42.8259 34.1562 41.7295C35.9323 40.63 37.8821 40.0801 39.9922 40.0801C41.8246 40.0801 43.6327 40.5313 45.4111 41.4189C46.7329 42.0554 47.9279 42.866 48.9922 43.8486C49.9053 43.0056 50.9137 42.2895 52.0166 41.7012L52.5723 41.4189C54.351 40.531 56.1595 40.0801 57.9922 40.0801ZM57.9834 45.2803C57.0228 45.2817 56.0354 45.5221 55.0156 46.0195L55.0049 46.0244C53.9756 46.5014 53.0604 47.1408 52.2568 47.9443L49.416 50.7842L48.9922 51.209L48.5684 50.7842L45.7275 47.9443C44.924 47.1408 44.0087 46.5014 42.9795 46.0244L42.9688 46.0195C41.9459 45.5206 40.9556 45.2803 39.9922 45.2803C38.8275 45.2803 37.7675 45.593 36.7988 46.2227C35.8263 46.8548 35.0409 47.7346 34.4443 48.8779C33.8818 49.9805 33.5918 51.2561 33.5918 52.7197C33.5918 53.8498 33.7223 54.9814 33.9824 56.1152L37.5303 56.083L41.9912 48.6328L47.9932 58.6348L49.5332 56.0801H59.5918V61.2803H52.4531L47.9941 68.7695L41.9873 58.7588L40.4502 61.2773L36.2627 61.3115C37.7535 63.5906 39.8753 65.8384 42.6465 68.0508C44.0389 69.1542 45.6315 70.2741 47.4277 71.4102L48.3096 71.9443C48.5284 72.0747 48.7566 72.2066 48.9922 72.3438C49.5623 72.0119 50.0847 71.7023 50.5566 71.4102C52.3526 70.2743 53.9456 69.154 55.3379 68.0508L55.8916 67.6016C58.6154 65.3507 60.6721 63.0584 62.0791 60.7295C63.627 58.149 64.3926 55.4816 64.3926 52.7197C64.3925 51.2543 64.1017 49.9613 63.5352 48.8281C62.9666 47.6911 62.1989 46.8314 61.2344 46.2285C60.2642 45.6221 59.1848 45.3054 57.9834 45.2803ZM56.7812 67.6357C56.7929 67.6258 56.8048 67.6164 56.8164 67.6064C56.8475 67.5799 56.8773 67.552 56.9082 67.5254C56.8658 67.5619 56.824 67.5993 56.7812 67.6357ZM57.3066 67.1787C57.3186 67.1681 57.3309 67.158 57.3428 67.1475C57.3562 67.1355 57.3684 67.1223 57.3818 67.1104C57.3566 67.1329 57.332 67.1562 57.3066 67.1787ZM58.8164 65.7617C58.615 65.9628 58.4078 66.1624 58.1963 66.3623C58.5707 66.0085 58.9304 65.654 59.2734 65.2969L58.8164 65.7617ZM32.5732 64.0342C32.6091 64.0878 32.6463 64.1407 32.6826 64.1943C32.6076 64.0838 32.5337 63.9731 32.4609 63.8623C32.4984 63.9194 32.5352 63.9772 32.5732 64.0342ZM31.9756 63.0967C32.0016 63.1395 32.0284 63.1819 32.0547 63.2246C32.0026 63.1399 31.9522 63.0546 31.9014 62.9697C31.9265 63.0117 31.9501 63.0547 31.9756 63.0967ZM36.082 45.9922C36.0468 46.0186 36.0122 46.0461 35.9775 46.0732C36.0744 45.9974 36.1734 45.9241 36.2744 45.8535L36.082 45.9922ZM38.373 44.8789C38.3571 44.883 38.3411 44.8874 38.3252 44.8916C38.4154 44.8678 38.5062 44.846 38.5977 44.8262L38.373 44.8789Z" fill="black"/>
<path fill-rule="evenodd" clip-rule="evenodd" d="M49.125 7.45605C53.2271 7.45605 57.2368 7.80319 61.1533 8.49805C65.0651 9.19208 68.761 10.1707 72.2393 11.4355C73.5953 11.8891 74.8857 12.5026 76.1113 13.2754C77.3837 13.977 78.5636 14.7744 79.6504 15.668C80.604 16.4172 81.381 17.366 81.9844 18.501C82.6015 19.5982 82.9437 20.7971 83.0117 22.0879L83.0508 22.8252H82.9189V73.8936L82.918 73.9121C82.8506 75.1914 82.513 76.3795 81.9062 77.4688L81.9072 77.4697C81.3612 78.5616 80.6079 79.4867 79.6514 80.2383C78.5641 81.1943 77.4119 82.0255 76.1943 82.7305C74.975 83.4364 73.7516 84.0173 72.5234 84.4697C68.9207 85.7971 65.1614 86.8075 61.2471 87.502C57.3305 88.1968 53.3208 88.5439 49.2188 88.5439H46.7812C42.741 88.5439 38.7626 88.1967 34.8467 87.502C30.9349 86.8079 27.239 85.8293 23.7607 84.5645C22.4134 84.1141 21.0994 83.536 19.8193 82.832L19.8008 82.8223L19.7822 82.8105C18.575 82.0481 17.4306 81.2213 16.3486 80.3311C15.3993 79.5851 14.6207 78.6702 14.0146 77.5928L14.0068 77.5771C13.3974 76.4259 13.0562 75.2022 12.9883 73.9121L12.9873 73.8936V22.0127L12.9883 21.9941C13.0563 20.7034 13.3976 19.5044 14.0146 18.4072C14.6208 17.3297 15.3991 16.414 16.3486 15.668C17.4369 14.7729 18.5896 13.9736 19.8057 13.2695C21.025 12.5636 22.2484 11.9827 23.4766 11.5303L23.4805 11.5293C27.144 10.2029 30.933 9.19241 34.8467 8.49805C38.7632 7.80319 42.7729 7.45605 46.875 7.45605H49.125ZM75.7031 31.2373C75.331 31.4478 74.9514 31.6508 74.5635 31.8447L74.54 31.8564C73.8439 32.1729 73.1771 32.4584 72.541 32.7129L72.5273 32.7178L72.5127 32.7227C68.9131 33.9857 65.1576 34.9644 61.2471 35.6582C57.3305 36.3531 53.3208 36.7002 49.2188 36.7002H46.6875C42.589 36.7002 38.6135 36.3844 34.7617 35.7529L34.749 35.751C30.966 35.0574 27.3376 34.1117 23.8652 32.9121L23.8535 32.9072L23.8428 32.9033C23.0247 32.5887 22.2368 32.2741 21.4805 31.959L21.4473 31.9443L21.415 31.9268C21.0972 31.7534 20.7864 31.5788 20.4814 31.4053V73.8018C20.5038 73.8451 20.5461 73.9163 20.6221 74.0176C20.7802 74.2284 21.0011 74.4775 21.29 74.7676C22.064 75.42 22.8645 75.9825 23.6914 76.4551C24.5335 76.9363 25.3711 77.3246 26.2041 77.6221C29.4167 78.7338 32.7536 79.5984 36.2168 80.2168C39.7382 80.8345 43.3214 81.1436 46.9688 81.1436H47.334C47.8438 81.1406 47.7313 81.1445 47.9219 81.1445C47.9219 81.1445 48.1211 81.1367 48.5654 81.1436H49.0312C52.679 81.1436 56.2315 80.8343 59.6895 80.2168C63.1556 79.5978 66.4318 78.7624 69.5195 77.7129C70.4855 77.3499 71.4217 76.9282 72.3271 76.4453C73.2208 75.9687 74.0544 75.4026 74.8291 74.7471L74.8369 74.7402L74.8438 74.7344C75.1076 74.5233 75.3039 74.3239 75.4463 74.1406C75.5154 74.0227 75.5613 73.9316 75.5869 73.8633C75.6157 73.7865 75.6123 73.7636 75.6123 73.7812V73.7793L75.7031 31.2373ZM49.125 14.8564C49.0168 14.8564 48.9041 14.8741 48.7842 14.9141L48.6758 14.9502H47.3242L47.2158 14.9141C47.0959 14.8741 46.9832 14.8564 46.875 14.8564C43.2272 14.8564 39.6747 15.1657 36.2168 15.7832L36.207 15.7842C32.8098 16.3401 29.57 17.1734 26.4873 18.2832L26.4727 18.2891L26.459 18.293C25.5142 18.5882 24.5961 19.0029 23.7041 19.5381L23.6885 19.5469L23.6729 19.5547C22.783 20.0293 21.9536 20.5615 21.1836 21.1504C20.9007 21.4353 20.6842 21.6809 20.5283 21.8887C20.4585 21.9818 20.4207 22.0506 20.4014 22.0957C20.396 22.1082 20.3928 22.1182 20.3906 22.125C20.3928 22.1318 20.396 22.1418 20.4014 22.1543C20.4207 22.1994 20.4585 22.2682 20.5283 22.3613C20.6362 22.5052 20.7789 22.6585 20.9609 22.8203L21.1562 22.9844L21.1631 22.9902L21.1709 22.9971C21.9514 23.6575 22.7593 24.225 23.5938 24.7021C24.2722 25.0634 24.9304 25.3724 25.5684 25.6299L26.2041 25.8721L26.209 25.874C29.4199 27.0472 32.7566 27.9425 36.2178 28.5605C39.7386 29.1157 43.3221 29.3936 46.9688 29.3936H49.0312C52.6806 29.3936 56.2347 29.1152 59.6943 28.5596C63.1563 27.9411 66.4288 27.077 69.5127 25.9668L69.5273 25.9609L69.541 25.957C70.4898 25.6606 71.3764 25.2763 72.2021 24.8057C73.1081 24.2621 73.9525 23.6595 74.7354 22.9971L74.7432 22.9902L74.75 22.9844C75.0286 22.7615 75.2341 22.5531 75.3779 22.3613C75.43 22.2919 75.4622 22.235 75.4844 22.1924C75.3984 22.0114 75.3005 21.848 75.1904 21.7012L75.1523 21.6504L75.124 21.5947C75.0668 21.4802 74.9886 21.402 74.874 21.3447L74.7998 21.3076L74.7354 21.2529C73.9537 20.5915 73.1444 20.0225 72.3086 19.5449C71.4665 19.0637 70.6289 18.6754 69.7959 18.3779C66.5837 17.2664 63.246 16.4016 59.7832 15.7832C56.3253 15.1657 52.7728 14.8564 49.125 14.8564Z" fill="black"/>
</svg>
