<svg width="96" height="96" viewBox="0 0 96 96" fill="none" xmlns="http://www.w3.org/2000/svg">
<path d="M47.8555 66.9609H48.1836L56.4961 41.7734H62.8711L51.5898 73.7734H44.4336L33.168 41.7734H39.5273L47.8555 66.9609Z" fill="black"/>
<path fill-rule="evenodd" clip-rule="evenodd" d="M49.125 7.45605C53.2271 7.45605 57.2368 7.80319 61.1533 8.49805C65.0651 9.19208 68.761 10.1707 72.2393 11.4355C73.5953 11.8891 74.8857 12.5026 76.1113 13.2754C77.3837 13.977 78.5636 14.7744 79.6504 15.668C80.604 16.4172 81.381 17.366 81.9844 18.501C82.6015 19.5982 82.9437 20.7971 83.0117 22.0879L83.0508 22.8252H82.9189V73.8936L82.918 73.9121C82.8506 75.1914 82.513 76.3795 81.9062 77.4688L81.9072 77.4697C81.3612 78.5616 80.6079 79.4867 79.6514 80.2383C78.5641 81.1943 77.4119 82.0255 76.1943 82.7305C74.975 83.4364 73.7516 84.0173 72.5234 84.4697C68.9207 85.7971 65.1614 86.8075 61.2471 87.502C57.3305 88.1968 53.3208 88.5439 49.2188 88.5439H46.7812C42.741 88.5439 38.7626 88.1967 34.8467 87.502C30.9349 86.8079 27.239 85.8293 23.7607 84.5645C22.4134 84.1141 21.0994 83.536 19.8193 82.832L19.8008 82.8223L19.7822 82.8105C18.575 82.0481 17.4306 81.2213 16.3486 80.3311C15.3993 79.5851 14.6207 78.6702 14.0146 77.5928L14.0068 77.5771C13.3974 76.4259 13.0562 75.2022 12.9883 73.9121L12.9873 73.8936V22.0127L12.9883 21.9941C13.0563 20.7034 13.3976 19.5044 14.0146 18.4072C14.6208 17.3297 15.3991 16.414 16.3486 15.668C17.4369 14.7729 18.5896 13.9736 19.8057 13.2695C21.025 12.5636 22.2484 11.9827 23.4766 11.5303L23.4805 11.5293C27.144 10.2029 30.933 9.19241 34.8467 8.49805C38.7632 7.80319 42.7729 7.45605 46.875 7.45605H49.125ZM75.7031 31.2373C75.331 31.4478 74.9514 31.6508 74.5635 31.8447L74.54 31.8564C73.8439 32.1729 73.1771 32.4584 72.541 32.7129L72.5273 32.7178L72.5127 32.7227C68.9131 33.9857 65.1576 34.9644 61.2471 35.6582C57.3305 36.3531 53.3208 36.7002 49.2188 36.7002H46.6875C42.589 36.7002 38.6135 36.3844 34.7617 35.7529L34.749 35.751C30.966 35.0574 27.3376 34.1117 23.8652 32.9121L23.8535 32.9072L23.8428 32.9033C23.0247 32.5887 22.2368 32.2741 21.4805 31.959L21.4473 31.9443L21.415 31.9268C21.0972 31.7534 20.7864 31.5788 20.4814 31.4053V73.8018C20.5038 73.8451 20.5461 73.9163 20.6221 74.0176C20.7802 74.2284 21.0011 74.4775 21.29 74.7676C22.064 75.42 22.8645 75.9825 23.6914 76.4551C24.5335 76.9363 25.3711 77.3246 26.2041 77.6221C29.4167 78.7338 32.7536 79.5984 36.2168 80.2168C39.7382 80.8345 43.3214 81.1436 46.9688 81.1436H47.334C47.8438 81.1406 47.7313 81.1445 47.9219 81.1445C47.9219 81.1445 48.1211 81.1367 48.5654 81.1436H49.0312C52.679 81.1436 56.2315 80.8343 59.6895 80.2168C63.1556 79.5978 66.4318 78.7624 69.5195 77.7129C70.4855 77.3499 71.4217 76.9282 72.3271 76.4453C73.2208 75.9687 74.0544 75.4026 74.8291 74.7471L74.8369 74.7402L74.8438 74.7344C75.1076 74.5233 75.3039 74.3239 75.4463 74.1406C75.5154 74.0227 75.5613 73.9316 75.5869 73.8633C75.6157 73.7865 75.6123 73.7636 75.6123 73.7812V73.7793L75.7031 31.2373ZM47.1836 14.8594C47.1836 14.8594 46.9832 14.8564 46.875 14.8564C43.2272 14.8564 39.6747 15.1657 36.2168 15.7832L36.207 15.7842C32.8098 16.3401 29.57 17.1734 26.4873 18.2832L26.4727 18.2891L26.459 18.293C25.5142 18.5882 24.5961 19.0029 23.7041 19.5381L23.6885 19.5469L23.6729 19.5547C22.783 20.0293 21.9536 20.5615 21.1836 21.1504C20.9007 21.4353 20.6842 21.6809 20.5283 21.8887C20.4585 21.9818 20.4207 22.0506 20.4014 22.0957C20.396 22.1082 20.3928 22.1182 20.3906 22.125C20.3928 22.1318 20.396 22.1418 20.4014 22.1543C20.4207 22.1994 20.4585 22.2682 20.5283 22.3613C20.6362 22.5052 20.7789 22.6585 20.9609 22.8203L21.1562 22.9844L21.1631 22.9902L21.1709 22.9971C21.9514 23.6575 22.7593 24.225 23.5938 24.7021C24.2722 25.0634 24.9304 25.3724 25.5684 25.6299L26.2041 25.8721L26.209 25.874C29.4199 27.0472 32.7566 27.9425 36.2178 28.5605C39.7386 29.1157 43.3221 29.3936 46.9688 29.3936H49.0312C52.6806 29.3936 56.2347 29.1152 59.6943 28.5596C63.1563 27.9411 66.4288 27.077 69.5127 25.9668L69.5273 25.9609L69.541 25.957C70.4898 25.6606 71.3764 25.2763 72.2021 24.8057C73.1081 24.2621 73.9525 23.6595 74.7354 22.9971L74.7432 22.9902L74.75 22.9844C75.0286 22.7615 75.2341 22.5531 75.3779 22.3613C75.43 22.2919 75.4622 22.235 75.4844 22.1924C75.3984 22.0114 75.3005 21.848 75.1904 21.7012L75.1523 21.6504L75.124 21.5947C75.0668 21.4802 74.9886 21.402 74.874 21.3447L74.7998 21.3076L74.7354 21.2529C73.9537 20.5915 73.1444 20.0225 72.3086 19.5449C71.4665 19.0637 70.6289 18.6754 69.7959 18.3779C66.5837 17.2664 63.246 16.4016 59.7832 15.7832C56.3253 15.1657 52.7728 14.8564 49.125 14.8564C49.0168 14.8564 48.8672 14.8633 48.8672 14.8633L48.2422 14.8555H47.3477L47.1836 14.8594Z" fill="black"/>
</svg>
