<svg width="96" height="96" viewBox="0 0 96 96" fill="none" xmlns="http://www.w3.org/2000/svg">
<path fill-rule="evenodd" clip-rule="evenodd" d="M48 7.26855C50.7163 7.26855 53.2514 7.78676 55.5967 8.8291C57.9188 9.86114 59.9569 11.25 61.7051 12.9961L62.041 13.3281C63.6948 15.0048 64.9795 16.9396 65.8926 19.1279L66.0811 19.5801C66.9939 21.847 67.4502 24.2283 67.4502 26.7188C67.4502 30.0168 66.6723 33.0678 65.1162 35.8604L65.1172 35.8613C63.731 38.4529 61.8913 40.6269 59.6025 42.3789L63.957 50.0205C64.9548 49.6209 65.9962 49.3117 67.0811 49.0947L67.0879 49.0938C68.4428 48.8357 69.799 48.7061 71.1562 48.7061C73.6972 48.7061 76.0795 49.132 78.2969 49.9893L78.7383 50.166L78.7451 50.1699L78.7529 50.1729C81.075 51.2049 83.1131 52.5938 84.8613 54.3398L85.1973 54.6729C86.851 56.3532 88.1339 58.3175 89.0459 60.5596L89.2354 61.001C90.1504 63.2163 90.6064 65.5723 90.6064 68.0625C90.6064 70.7729 90.0896 73.3025 89.0518 75.6436C88.0785 77.9793 86.6838 80.0565 84.8701 81.8701C83.1166 83.6236 81.0708 84.9871 78.7383 85.959L78.7373 85.958C76.3963 86.9958 73.8667 87.5127 71.1562 87.5127C68.5054 87.5127 66.007 86.9951 63.668 85.958C61.3356 84.9861 59.2896 83.6235 57.5361 81.8701C55.786 80.1199 54.3941 78.0789 53.3604 75.7529C52.4109 73.6167 51.8971 71.3472 51.8135 68.9502H44.2656C44.1352 71.3418 43.6286 73.6062 42.7402 75.7383L42.7363 75.7451L42.7334 75.7529C41.6996 78.0789 40.3078 80.1199 38.5576 81.8701C36.8059 83.6218 34.7322 84.9807 32.3457 85.9512L32.3467 85.9521C30.0035 86.9935 27.5001 87.5127 24.8438 87.5127C22.1903 87.5127 19.6611 86.9943 17.2617 85.958C14.9294 84.9861 12.8833 83.6235 11.1299 81.8701L11.1211 81.8613C9.37619 80.0518 7.98683 77.9828 6.9541 75.6592C5.91176 73.3139 5.39355 70.7788 5.39355 68.0625C5.39355 65.4062 5.91273 62.9027 6.9541 60.5596C7.98689 58.1733 9.37809 56.1004 11.1299 54.3486C12.8801 52.5985 14.9211 51.2066 17.2471 50.1729L17.2578 50.168L17.2686 50.1641C19.6668 49.1918 22.1936 48.7061 24.8438 48.7061C26.201 48.7061 27.5287 48.8354 28.8252 49.0947C29.9486 49.3091 30.9905 49.6142 31.9512 50.0107L36.3047 42.2891C34.0717 40.5931 32.2346 38.4516 30.7949 35.8721L30.7891 35.8613C29.2947 33.0676 28.5498 30.016 28.5498 26.7188C28.5498 24.0624 29.0688 21.5297 30.1074 19.1279L30.1104 19.1221C31.1441 16.7961 32.536 14.7551 34.2861 13.0049C36.0363 11.2547 38.0773 9.86287 40.4033 8.8291L40.4092 8.82617C42.8109 7.78758 45.3436 7.26855 48 7.26855ZM24.8438 55.6377C21.3382 55.6377 18.3925 56.8477 15.9639 59.2764C13.5352 61.705 12.3252 64.6507 12.3252 68.1562C12.3252 71.5957 13.5327 74.5112 15.9639 76.9424C18.3925 79.371 21.3382 80.5811 24.8438 80.5811C28.2832 80.5811 31.1987 79.3736 33.6299 76.9424C36.0612 74.5111 37.3002 71.5946 37.3623 68.1562C37.3623 64.6562 36.125 61.7122 33.6357 59.2822L33.6299 59.2764C31.1987 56.8452 28.2832 55.6377 24.8438 55.6377ZM71.1562 55.6377C67.7165 55.6377 64.7665 56.8457 62.2705 59.2822C59.8458 61.7098 58.6377 64.6536 58.6377 68.1562C58.6377 71.5929 59.8432 74.5065 62.2705 76.9365L62.7432 77.3789C65.1366 79.5195 67.9313 80.5811 71.1562 80.5811C74.5957 80.5811 77.5112 79.3736 79.9424 76.9424L79.9482 76.9365C82.4401 74.504 83.6748 71.5901 83.6748 68.1562C83.6748 64.6562 82.4375 61.7122 79.9482 59.2822L79.9424 59.2764C77.5112 56.8452 74.5957 55.6377 71.1562 55.6377ZM53.5586 45.4365C52.769 45.635 51.9593 45.814 51.1289 45.9697C50.0872 46.165 49.044 46.2627 48 46.2627C46.9707 46.2627 45.9417 46.1979 44.9131 46.0693L44.8877 46.0664L44.8623 46.0615C44.0879 45.9066 43.3336 45.7086 42.5986 45.4707L37.8291 53.6709C39.0668 54.8062 40.1251 56.0729 41 57.4727C41.9428 58.8338 42.6922 60.3504 43.2559 62.0186H52.7168C53.2812 60.3662 54.0113 58.8451 54.9141 57.4609L54.918 57.4551C55.8476 56.0607 56.9349 54.7979 58.1768 53.665L53.5586 45.4365ZM48 14.2939C44.5602 14.2939 41.6102 15.502 39.1143 17.9385C36.6895 20.366 35.4814 23.3098 35.4814 26.8125C35.4814 30.2493 36.6878 33.1968 39.1201 35.6914C41.6149 38.1243 44.5627 39.3311 48 39.3311C51.5055 39.3311 54.4512 38.121 56.8799 35.6924C59.3125 33.1977 60.5186 30.2496 60.5186 26.8125C60.5186 23.307 59.3085 20.3613 56.8799 17.9326C54.4512 15.504 51.5055 14.2939 48 14.2939Z" fill="black"/>
</svg>
