<svg width="96" height="96" viewBox="0 0 96 96" fill="none" xmlns="http://www.w3.org/2000/svg">
<path d="M64.8711 80.0364C65.8984 79.376 67.0067 79.1751 68.1494 79.4798C69.2649 79.7773 70.1274 80.4544 70.7158 81.469C71.3798 82.4407 71.5721 83.5187 71.2705 84.6497C71.0345 85.7699 70.3847 86.6612 69.3789 87.3079L69.3672 87.3157L69.3662 87.3147C68.3886 87.9162 67.2981 88.0607 66.1436 87.7796C65.022 87.5551 64.1178 86.9482 63.4561 85.9925L63.4385 85.9681L63.4238 85.9417C62.8321 84.9061 62.685 83.7822 62.9775 82.6116L62.9795 82.6009C63.2736 81.4983 63.91 80.6318 64.8711 80.0364Z" fill="black"/>
<path fill-rule="evenodd" clip-rule="evenodd" d="M41.1562 36.0501C42.1376 36.0501 42.9951 36.3937 43.6875 37.0735L43.8281 37.2073C44.5132 37.8892 44.8564 38.7524 44.8564 39.7503C44.8564 40.0922 44.7728 40.4204 44.6289 40.7327C44.5536 41.0143 44.4492 41.2923 44.3135 41.5638L44.3057 41.5794L44.2959 41.596L37.4512 53.6634C38.574 54.6848 39.5672 55.8575 40.4297 57.18C41.3113 58.5319 42.0311 59.9898 42.5908 61.5501H55.7812C56.7876 61.5501 57.6528 61.9431 58.3389 62.6917C59.088 63.3778 59.4814 64.2436 59.4814 65.2503C59.4814 66.2656 59.0824 67.1582 58.3389 67.9017C57.642 68.5985 56.7749 68.9505 55.7812 68.9505H43.5137C43.3778 71.3433 42.8385 73.5842 41.8867 75.6663C40.8533 77.9894 39.4623 80.0282 37.7139 81.7767L37.7041 81.7854C35.9515 83.4731 33.9089 84.8022 31.582 85.7718C29.2424 86.7466 26.7438 87.2317 24.0938 87.2317C21.4437 87.2317 18.9451 86.7466 16.6055 85.7718L16.5967 85.7679C14.2079 84.7348 12.1331 83.3424 10.3799 81.5892C8.62667 79.8359 7.23421 77.7611 6.20117 75.3724L6.19727 75.3636C5.22245 73.024 4.73734 70.5253 4.7373 67.8753C4.7373 65.1651 5.22162 62.6349 6.19727 60.2933L6.20117 60.2864L6.2041 60.2786C7.23784 57.9527 8.62976 55.9116 10.3799 54.1614C12.1301 52.3489 14.203 50.9569 16.5908 49.9856L17.0322 49.7962C19.2476 48.8812 21.6035 48.4251 24.0938 48.4251C25.4481 48.4251 26.7441 48.5541 27.9805 48.8138C29.052 49.0281 30.062 49.3113 31.0088 49.6624L37.9268 37.804C38.2384 37.2607 38.6709 36.8288 39.2148 36.5179L39.2324 36.5081L39.249 36.4993C39.8469 36.2004 40.4858 36.0501 41.1562 36.0501ZM24.2812 55.3567C20.7812 55.3567 17.8372 56.594 15.4072 59.0833L15.4014 59.0892C12.9703 61.5203 11.7627 64.4359 11.7627 67.8753C11.7628 71.3807 12.9728 74.3266 15.4014 76.7552C17.83 79.1837 20.7758 80.3938 24.2812 80.3938C27.7206 80.3938 30.6362 79.1863 33.0674 76.7552C35.496 74.3266 36.706 71.3807 36.7061 67.8753C36.7061 64.4359 35.4985 61.5203 33.0674 59.0892L33.0615 59.0833C30.629 56.5914 27.7151 55.3567 24.2812 55.3567Z" fill="black"/>
<path d="M78.0898 77.5989C79.0608 76.9747 80.12 76.768 81.2285 76.9895L81.4512 77.0403L81.4619 77.0423C82.5789 77.3402 83.4428 78.0185 84.0312 79.0354C84.693 80.0061 84.8842 81.0827 84.583 82.2122C84.2846 83.3307 83.6075 84.2211 82.5977 84.8704L82.5859 84.8782L82.585 84.8772C81.6058 85.4797 80.5325 85.6318 79.4131 85.3333C78.3119 85.1019 77.4217 84.4982 76.7686 83.555L76.751 83.5306L76.7363 83.5042C76.15 82.4781 76.0003 81.3654 76.2822 80.2063C76.5069 79.0834 77.1184 78.2009 78.0898 77.5989Z" fill="black"/>
<path d="M55.4336 73.0804C56.4602 72.4937 57.5544 72.3363 58.6758 72.6341C59.7978 72.8692 60.6645 73.5232 61.252 74.5403C61.9108 75.5096 62.0925 76.6009 61.8105 77.762C61.581 78.9096 60.9185 79.7948 59.8789 80.389L59.8779 80.388C58.9119 80.976 57.8344 81.1545 56.6836 80.9388L56.6572 80.9339L56.6318 80.927C55.5308 80.6334 54.6424 80.0011 53.9873 79.055L53.9697 79.0306L53.9551 79.0042C53.3676 77.9762 53.2113 76.8801 53.5107 75.7571C53.8023 74.6007 54.4359 73.6943 55.4141 73.0921L55.4238 73.0853L55.4336 73.0804Z" fill="black"/>
<path d="M84.6523 67.5677C85.6796 66.9073 86.788 66.7063 87.9307 67.011C89.0477 67.309 89.9115 67.9872 90.5 69.0042C91.1618 69.9748 91.353 71.0515 91.0518 72.181C90.8157 73.3012 90.166 74.1925 89.1602 74.8392L89.1484 74.847L89.1475 74.846C88.1609 75.453 87.0589 75.5956 85.8926 75.304L85.8818 75.302C84.7808 75.0084 83.8924 74.3761 83.2373 73.43L83.2197 73.4056L83.2051 73.3792C82.6176 72.3512 82.4613 71.2551 82.7607 70.1321C83.0548 69.0295 83.6912 68.1631 84.6523 67.5677Z" fill="black"/>
<path d="M82.2148 56.0364C83.2421 55.376 84.3505 55.1751 85.4932 55.4798C86.588 55.7718 87.449 56.402 88.0439 57.3519L88.166 57.5384C88.7422 58.4685 88.89 59.5061 88.623 60.6058C88.3948 61.7464 87.7414 62.6529 86.7227 63.3079L86.7109 63.3157L86.71 63.3147C85.7234 63.9217 84.6214 64.0643 83.4551 63.7728L83.4443 63.7708C82.3433 63.4771 81.4549 62.8448 80.7998 61.8987L80.7822 61.8743L80.7676 61.8479C80.1801 60.8199 80.0238 59.7239 80.3232 58.6009C80.6173 57.4983 81.2537 56.6318 82.2148 56.0364Z" fill="black"/>
<path d="M53.8125 36.4251C54.4931 36.4251 55.1189 36.6126 55.6689 36.9905C56.2574 37.2938 56.7258 37.7207 57.0439 38.2767L65.7236 53.3958C65.9587 53.6542 66.1244 53.9571 66.21 54.2991C66.2889 54.6148 66.3252 54.9548 66.3252 55.3128C66.3251 56.3281 65.9261 57.2207 65.1826 57.9642C64.4858 58.661 63.6186 59.013 62.625 59.013C61.9546 59.013 61.3156 58.8626 60.7178 58.5638L60.6689 58.5394L60.624 58.5071C60.1115 58.141 59.6977 57.6933 59.3945 57.1644L50.582 41.9769C50.4195 41.7233 50.3031 41.4408 50.2275 41.139C50.1486 40.8232 50.1123 40.4833 50.1123 40.1253C50.1123 39.1317 50.4643 38.2645 51.1611 37.5677C51.9047 36.8241 52.7971 36.4251 53.8125 36.4251Z" fill="black"/>
<path d="M72.0273 48.8929C73.054 48.3062 74.1481 48.1488 75.2695 48.4466C76.3916 48.6817 77.2583 49.3357 77.8457 50.3528C78.5045 51.3221 78.6862 52.4134 78.4043 53.5745C78.1747 54.7221 77.5123 55.6073 76.4727 56.2015L76.4717 56.2005C75.5056 56.7885 74.4281 56.967 73.2773 56.7513L73.251 56.7464L73.2256 56.7395C72.1245 56.4459 71.2361 55.8136 70.5811 54.8675L70.5635 54.8431L70.5488 54.8167C69.9614 53.7887 69.8051 52.6926 70.1045 51.5696C70.3961 50.4132 71.0296 49.5068 72.0078 48.9046L72.0176 48.8978L72.0273 48.8929Z" fill="black"/>
<path d="M61.1846 28.5862C62.2962 28.2157 63.3955 28.2903 64.4385 28.8118C65.4811 29.3333 66.1998 30.1673 66.5703 31.2786C66.9408 32.3901 66.8662 33.4897 66.3447 34.5325C65.8279 35.5659 65.0069 36.3081 63.916 36.7444L63.8975 36.7513L63.8779 36.7581C62.7664 37.1286 61.6669 37.0539 60.624 36.5325C59.5815 36.0111 58.8627 35.1769 58.4922 34.0657C58.1202 32.9499 58.1999 31.8269 58.709 30.7356L58.7139 30.7269L58.7178 30.7181C59.2392 29.6755 60.0733 28.9568 61.1846 28.5862Z" fill="black"/>
<path d="M31.3721 27.555C32.488 27.183 33.6108 27.2626 34.7021 27.7718L34.7109 27.7767L34.7197 27.7806C35.7623 28.302 36.4811 29.1361 36.8516 30.2474C37.222 31.3589 37.1474 32.4584 36.626 33.5013C36.1045 34.5438 35.2704 35.2626 34.1592 35.6331C33.0476 36.0036 31.9482 35.9289 30.9053 35.4075C29.8786 34.894 29.155 34.1025 28.7783 33.0481L28.7754 33.0413L28.7734 33.0345C28.4015 31.9186 28.4811 30.7956 28.9902 29.7044L28.9951 29.6956L28.999 29.6868C29.5125 28.66 30.3039 27.9365 31.3584 27.5599L31.3652 27.5569L31.3721 27.555Z" fill="black"/>
<path d="M61.3721 16.8675C62.4837 16.4969 63.583 16.5716 64.626 17.0931C65.6642 17.6123 66.3811 18.4418 66.7529 19.5462L66.8193 19.7464C67.1223 20.7516 67.0151 21.7802 66.541 22.7962L66.5361 22.805L66.5322 22.8138C66.0108 23.8563 65.1767 24.5751 64.0654 24.9456C62.9539 25.3161 61.8544 25.2414 60.8115 24.72C59.769 24.1986 59.0502 23.3644 58.6797 22.2532C58.3092 21.1417 58.3839 20.0422 58.9053 18.9993C59.4267 17.9567 60.2608 17.238 61.3721 16.8675Z" fill="black"/>
<path d="M31.7471 15.8362C32.8587 15.4657 33.958 15.5403 35.001 16.0618C36.0436 16.5833 36.7623 17.4173 37.1328 18.5286C37.5033 19.6401 37.4287 20.7397 36.9072 21.7825C36.3858 22.825 35.5517 23.5439 34.4404 23.9144C33.3289 24.2848 32.2294 24.2102 31.1865 23.6888C30.144 23.1674 29.4252 22.3332 29.0547 21.222C28.6842 20.1104 28.7589 19.0109 29.2803 17.9681C29.8017 16.9255 30.6358 16.2068 31.7471 15.8362Z" fill="black"/>
<path d="M52.9346 7.67998C54.0462 7.30944 55.1455 7.38409 56.1885 7.90556C57.219 8.42099 57.9325 9.24212 58.3066 10.3343L58.3838 10.5433C58.746 11.5895 58.6855 12.6323 58.1885 13.6263C57.667 14.6688 56.8329 15.3876 55.7217 15.7581C54.6058 16.13 53.4829 16.0505 52.3916 15.5413L52.3828 15.5364L52.374 15.5325C51.3315 15.0111 50.6127 14.1769 50.2422 13.0657C49.8717 11.9542 49.9464 10.8547 50.4678 9.81181C50.9892 8.7692 51.8233 8.0505 52.9346 7.67998Z" fill="black"/>
<path d="M40.8408 7.21123C41.9524 6.84069 43.0518 6.91534 44.0947 7.43681C45.1253 7.95224 45.8387 8.77337 46.2129 9.86552L46.29 10.0745C46.6523 11.1207 46.5917 12.1635 46.0947 13.1575C45.5733 14.2 44.7392 14.9189 43.6279 15.2894C42.5121 15.6613 41.3891 15.5817 40.2979 15.0726L40.2891 15.0677L40.2803 15.0638C39.2377 14.5424 38.519 13.7082 38.1484 12.597C37.7779 11.4854 37.8527 10.3859 38.374 9.34306C38.8954 8.30045 39.7295 7.58175 40.8408 7.21123Z" fill="black"/>
</svg>
