<svg width="96" height="96" viewBox="0 0 96 96" fill="none" xmlns="http://www.w3.org/2000/svg">
<path d="M92 47.8318V52.3877C88.5432 52.3877 86.1295 53.1011 84.7591 54.528C83.3886 55.9549 82.7034 58.2991 82.7034 61.5606V70.3665C82.7034 73.4853 82.3455 76.1047 81.6295 78.2246C80.9341 80.365 79.8602 82.0772 78.408 83.3614C76.9557 84.6456 75.1148 85.5731 72.8852 86.1439C70.6557 86.7146 68.0273 87 65 87V79.7534C67.3727 79.7534 69.2239 79.3967 70.5534 78.6833C71.883 77.9902 72.8034 76.9098 73.3148 75.4422C73.8466 73.9949 74.1125 72.1501 74.1125 69.9079V58.7781C74.1125 57.2085 74.3477 55.7613 74.8182 54.4363C75.2886 53.0909 76.158 51.929 77.4261 50.9506C78.6943 49.9518 80.5045 49.1874 82.8568 48.6574C85.2091 48.107 88.2568 47.8318 92 47.8318ZM65 9C68.0273 9 70.6557 9.28538 72.8852 9.85614C75.1148 10.4269 76.9557 11.3544 78.408 12.6386C79.8602 13.9228 80.9341 15.635 81.6295 17.7754C82.3455 19.8953 82.7034 22.5147 82.7034 25.6335V34.4089C82.7034 37.6907 83.3886 40.0451 84.7591 41.472C86.1295 42.8785 88.5432 43.5817 92 43.5817V48.1682C88.2568 48.1682 85.2091 47.893 82.8568 47.3426C80.5045 46.7922 78.6943 46.0278 77.4261 45.0494C76.158 44.071 75.2886 42.9192 74.8182 41.5943C74.3477 40.2489 74.1125 38.7915 74.1125 37.2219V26.0921C74.1125 23.8295 73.8466 21.9745 73.3148 20.5272C72.8034 19.0596 71.883 17.9792 70.5534 17.2862C69.2239 16.5931 67.3727 16.2466 65 16.2466V9ZM92 43.5817V52.3877H84.5046V43.5817H92Z" fill="black"/>
<path d="M2 48.1682V43.5817C5.45682 43.5817 7.87045 42.8785 9.24091 41.472C10.6114 40.0451 11.2966 37.6907 11.2966 34.4089V25.6335C11.2966 22.5147 11.6443 19.8953 12.3398 17.7754C13.0557 15.635 14.1398 13.9228 15.592 12.6386C17.0443 11.3544 18.8852 10.4269 21.1148 9.85614C23.3443 9.28538 25.9727 9 29 9V16.2466C26.6273 16.2466 24.7761 16.5931 23.4466 17.2862C22.117 17.9792 21.1864 19.0596 20.6545 20.5272C20.1432 21.9745 19.8875 23.8295 19.8875 26.0921V37.2219C19.8875 38.7915 19.6523 40.2489 19.1818 41.5943C18.7114 42.9192 17.842 44.071 16.5739 45.0494C15.3057 46.0278 13.4955 46.7922 11.1432 47.3426C8.79091 47.893 5.74318 48.1682 2 48.1682ZM29 87C25.9727 87 23.3443 86.7146 21.1148 86.1439C18.8852 85.5731 17.0443 84.6456 15.592 83.3614C14.1398 82.0772 13.0557 80.365 12.3398 78.2246C11.6443 76.1047 11.2966 73.4853 11.2966 70.3665V61.5606C11.2966 58.2991 10.6114 55.9549 9.24091 54.528C7.87045 53.1011 5.45682 52.3877 2 52.3877V47.8318C5.74318 47.8318 8.79091 48.107 11.1432 48.6574C13.4955 49.1874 15.3057 49.9518 16.5739 50.9506C17.842 51.929 18.7114 53.0909 19.1818 54.4363C19.6523 55.7613 19.8875 57.2085 19.8875 58.7781V69.9079C19.8875 72.1501 20.1432 73.9949 20.6545 75.4422C21.1864 76.9098 22.117 77.9902 23.4466 78.6833C24.7761 79.3967 26.6273 79.7534 29 79.7534V87ZM2 52.3877V43.5817H9.49541V52.3877H2Z" fill="black"/>
<path d="M62.6001 52.5C61.3668 52.5 60.3084 52.0583 59.4251 51.175C58.5418 50.2917 58.1001 49.2333 58.1001 48C58.1001 46.7667 58.5418 45.7083 59.4251 44.825C60.3084 43.9417 61.3668 43.5 62.6001 43.5C63.8334 43.5 64.8918 43.9417 65.7751 44.825C66.6584 45.7083 67.1001 46.7667 67.1001 48C67.1001 48.8167 66.8918 49.5667 66.4751 50.25C66.0751 50.9333 65.5334 51.4833 64.8501 51.9C64.1834 52.3 63.4334 52.5 62.6001 52.5Z" fill="black"/>
<path d="M47 52.5C45.7667 52.5 44.7083 52.0583 43.825 51.175C42.9417 50.2917 42.5 49.2333 42.5 48C42.5 46.7667 42.9417 45.7083 43.825 44.825C44.7083 43.9417 45.7667 43.5 47 43.5C48.2333 43.5 49.2917 43.9417 50.175 44.825C51.0583 45.7083 51.5 46.7667 51.5 48C51.5 48.8167 51.2917 49.5667 50.875 50.25C50.475 50.9333 49.9333 51.4833 49.25 51.9C48.5833 52.3 47.8333 52.5 47 52.5Z" fill="black"/>
<path d="M31.3999 52.5C30.1666 52.5 29.1082 52.0583 28.2249 51.175C27.3416 50.2917 26.8999 49.2333 26.8999 48C26.8999 46.7667 27.3416 45.7083 28.2249 44.825C29.1082 43.9417 30.1666 43.5 31.3999 43.5C32.6332 43.5 33.6916 43.9417 34.5749 44.825C35.4582 45.7083 35.8999 46.7667 35.8999 48C35.8999 48.8167 35.6916 49.5667 35.2749 50.25C34.8749 50.9333 34.3332 51.4833 33.6499 51.9C32.9832 52.3 32.2332 52.5 31.3999 52.5Z" fill="black"/>
</svg>
